<?xml version="1.0" encoding="UTF-8"?>
<svg version="1.1" xmlns="http://www.w3.org/2000/svg" width="512" height="512">
<path d="M0 0 C0.99356506 0.00182281 1.98713013 0.00364563 3.01080322 0.00552368 C17.504692 0.05030022 31.61636097 0.51139787 45.875 3.3125 C46.77057617 3.47347168 47.66615234 3.63444336 48.58886719 3.80029297 C82.99884456 10.02566427 115.96357972 23.6582064 144.875 43.3125 C144.81441406 42.76311768 144.75382812 42.21373535 144.69140625 41.64770508 C144.41649181 39.14043248 144.14571044 36.63272985 143.875 34.125 C143.73191406 32.82852539 143.73191406 32.82852539 143.5859375 31.50585938 C143.49570312 30.66474609 143.40546875 29.82363281 143.3125 28.95703125 C143.18681641 27.80231323 143.18681641 27.80231323 143.05859375 26.62426758 C142.8655808 24.19389573 142.875 21.75052406 142.875 19.3125 C153.105 18.3225 163.335 17.3325 173.875 16.3125 C176.05723611 35.09531793 178.18223667 53.87856273 180.125 72.6875 C180.25787415 73.96163254 180.25787415 73.96163254 180.39343262 75.26150513 C180.64531232 77.68186949 180.89358551 80.10257487 181.140625 82.5234375 C181.21543091 83.23969803 181.29023682 83.95595856 181.36730957 84.69392395 C181.72514851 88.24862337 181.95646033 91.7395113 181.875 95.3125 C179.09802789 96.70098606 176.53328049 96.75313462 173.44091797 97.06860352 C172.78047989 97.13702454 172.12004181 97.20544556 171.43959045 97.27593994 C169.24917709 97.50174643 167.05822567 97.72175122 164.8671875 97.94140625 C163.34219063 98.0966899 161.81721738 98.25220567 160.29226685 98.40794373 C157.08963053 98.73409122 153.88672047 99.05736781 150.68359375 99.37866211 C146.59445212 99.78906441 142.50607211 100.20655516 138.41787529 100.62625217 C135.26444569 100.94916895 132.11063472 101.26822885 128.95669937 101.58616447 C127.4504205 101.738473 125.94426068 101.89196402 124.43822861 102.0466938 C109.9433284 103.53191723 109.9433284 103.53191723 102.875 103.3125 C101.18356263 92.9503934 100.39044174 82.79314866 99.875 72.3125 C108.455 71.3225 117.035 70.3325 125.875 69.3125 C73.27205482 35.89415836 12.29932615 23.74291765 -48.89160156 36.90771484 C-54.36069993 38.18562846 -59.74868508 39.69173651 -65.125 41.3125 C-66.37796875 41.67988281 -67.6309375 42.04726563 -68.921875 42.42578125 C-124.43029173 59.75727188 -170.6621594 100.56868648 -198.125 151.3125 C-198.50221191 152.00939941 -198.87942383 152.70629883 -199.26806641 153.42431641 C-213.79094615 180.83963556 -223.06519578 213.37992062 -223.36328125 244.46484375 C-223.37302979 245.31429565 -223.38277832 246.16374756 -223.39282227 247.03894043 C-223.56696734 266.15223292 -223.30149107 284.56598259 -219.125 303.3125 C-218.93776367 304.1669873 -218.75052734 305.02147461 -218.55761719 305.90185547 C-217.30417092 311.44494555 -215.80520128 316.88451322 -214.125 322.3125 C-213.88442871 323.0972168 -213.64385742 323.88193359 -213.39599609 324.69042969 C-207.68687522 342.93758771 -199.82223213 360.70036802 -189.03393555 376.53027344 C-187.9946464 378.07984325 -187.04979268 379.69199173 -186.125 381.3125 C-187.92992542 386.72727625 -193.8120635 389.10356797 -198.4375 392.125 C-199.49646484 392.84365234 -200.55542969 393.56230469 -201.64648438 394.30273438 C-203.17692383 395.30723633 -203.17692383 395.30723633 -204.73828125 396.33203125 C-206.14267456 397.26172729 -206.14267456 397.26172729 -207.57543945 398.21020508 C-210.125 399.3125 -210.125 399.3125 -212.33398438 398.67871094 C-215.10579918 396.56433312 -216.61499025 393.72982854 -218.3125 390.75 C-218.70123291 390.0801709 -219.08996582 389.4103418 -219.49047852 388.72021484 C-220.71552843 386.59173069 -221.920929 384.45290752 -223.125 382.3125 C-223.49818359 381.6632959 -223.87136719 381.0140918 -224.25585938 380.34521484 C-245.85540247 342.62247298 -255.60186029 299.85536654 -255.4375 256.6875 C-255.43534485 255.66926147 -255.4331897 254.65102295 -255.43096924 253.60192871 C-255.38126609 238.9777116 -255.06707988 224.68445362 -252.125 210.3125 C-251.83496094 208.81759033 -251.83496094 208.81759033 -251.5390625 207.29248047 C-243.91040781 168.68418872 -228.19757683 132.53083121 -204.125 101.3125 C-203.16013672 100.05953125 -203.16013672 100.05953125 -202.17578125 98.78125 C-188.09144299 80.85069756 -171.7481663 63.56309511 -153.125 50.3125 C-152.50737793 49.86648437 -151.88975586 49.42046875 -151.25341797 48.9609375 C-120.43500893 26.80077594 -86.08085799 11.68447012 -48.875 4.0625 C-48.14482666 3.91143799 -47.41465332 3.76037598 -46.66235352 3.60473633 C-31.13594597 0.6050283 -15.77479569 -0.06008599 0 0 Z " fill="#000000" transform="translate(255.125,-0.3125)"/>
<path d="M0 0 C2.73979552 2.08578947 4.23523636 4.85725301 5.91381836 7.79931641 C6.49196289 8.79415039 6.49196289 8.79415039 7.08178711 9.80908203 C8.33355935 11.98458974 9.5630433 14.17156751 10.78881836 16.36181641 C11.19970703 17.08643066 11.6105957 17.81104492 12.03393555 18.55761719 C25.05163755 41.67244827 33.78634357 66.83347662 39.10131836 92.79931641 C39.24867432 93.51821045 39.39603027 94.23710449 39.54785156 94.9777832 C42.52170938 110.6240732 43.16181644 126.09749726 43.10131836 141.98681641 C43.09916321 143.00505493 43.09700806 144.02329346 43.0947876 145.0723877 C43.04508445 159.69660481 42.73089824 173.98986279 39.78881836 188.36181641 C39.4987793 189.85672607 39.4987793 189.85672607 39.20288086 191.38183594 C31.08409962 232.47063695 13.71466721 269.56481135 -12.21118164 302.36181641 C-13.02329102 303.39951172 -13.83540039 304.43720703 -14.67211914 305.50634766 C-27.34698933 321.08004462 -41.91055775 335.6143293 -58.21118164 347.36181641 C-59.29955525 348.17801473 -60.38678308 348.99574301 -61.47290039 349.81494141 C-92.67443353 373.06063227 -129.002191 388.3420589 -167.21118164 395.36181641 C-168.01716797 395.52262695 -168.8231543 395.6834375 -169.65356445 395.84912109 C-197.60728742 401.27431343 -230.31102493 400.8427875 -258.21118164 395.36181641 C-259.10675781 395.20084473 -260.00233398 395.03987305 -260.92504883 394.87402344 C-295.3350262 388.64865214 -328.29976136 375.01611001 -357.21118164 355.36181641 C-357.1505957 355.91119873 -357.09000977 356.46058105 -357.02758789 357.02661133 C-356.75267345 359.53388393 -356.48189208 362.04158656 -356.21118164 364.54931641 C-356.11579102 365.41363281 -356.02040039 366.27794922 -355.92211914 367.16845703 C-355.83188477 368.00957031 -355.74165039 368.85068359 -355.64868164 369.71728516 C-355.56489258 370.48709717 -355.48110352 371.25690918 -355.39477539 372.05004883 C-355.20176244 374.48042067 -355.21118164 376.92379235 -355.21118164 379.36181641 C-365.44118164 380.35181641 -375.67118164 381.34181641 -386.21118164 382.36181641 C-388.39341775 363.57899848 -390.51841831 344.79575367 -392.46118164 325.98681641 C-392.5497644 325.13739471 -392.63834717 324.28797302 -392.72961426 323.41281128 C-392.98149397 320.99244692 -393.22976715 318.57174153 -393.47680664 316.15087891 C-393.55161255 315.43461838 -393.62641846 314.71835785 -393.70349121 313.98039246 C-394.06176501 310.42137323 -394.24100145 306.9365019 -394.21118164 303.36181641 C-385.63884628 301.82160287 -377.07846597 300.72450883 -368.41430664 299.85400391 C-367.14069275 299.72365753 -365.86707886 299.59331116 -364.55487061 299.45901489 C-361.88277548 299.1859865 -359.21042071 298.91571098 -356.5378418 298.64746094 C-353.13279677 298.30545479 -349.72852743 297.95631069 -346.32442093 297.60510063 C-343.04227841 297.267497 -339.7595169 296.93603446 -336.47680664 296.60400391 C-335.2651886 296.47903534 -334.05357056 296.35406677 -332.80523682 296.22531128 C-326.90688594 295.63816043 -321.1387102 295.21668597 -315.21118164 295.36181641 C-313.51974427 305.723923 -312.72662338 315.88116775 -312.21118164 326.36181641 C-320.79118164 327.35181641 -329.37118164 328.34181641 -338.21118164 329.36181641 C-284.05439833 362.48683921 -223.38399854 375.56460201 -160.83618164 361.17431641 C-120.93276583 351.4454126 -85.18894197 331.50095164 -55.8034668 302.90722656 C-54.43589401 301.57991351 -53.04987828 300.27164955 -51.66040039 298.96728516 C-45.10249728 292.68893742 -39.64840159 285.60495623 -34.21118164 278.36181641 C-33.56681152 277.50861816 -33.56681152 277.50861816 -32.90942383 276.63818359 C-11.39239203 247.96537217 3.52706027 213.91101644 8.78881836 178.36181641 C9.04719482 176.78533325 9.04719482 176.78533325 9.31079102 175.17700195 C10.9390615 164.45115073 11.18682372 153.88070249 11.16381836 143.04931641 C11.16350113 141.66726517 11.16350113 141.66726517 11.16317749 140.2572937 C11.12826537 124.97025103 10.12362566 110.33036827 6.78881836 95.36181641 C6.60158203 94.5073291 6.4143457 93.6528418 6.22143555 92.77246094 C4.96798928 87.22937086 3.46901964 81.78980318 1.78881836 76.36181641 C1.54824707 75.57709961 1.30767578 74.79238281 1.05981445 73.98388672 C-4.64930642 55.73672869 -12.51394951 37.97394839 -23.30224609 22.14404297 C-24.34153524 20.59447316 -25.28638896 18.98232468 -26.21118164 17.36181641 C-24.40625622 11.94704015 -18.52411814 9.57074844 -13.89868164 6.54931641 C-12.8397168 5.83066406 -11.78075195 5.11201172 -10.68969727 4.37158203 C-9.6694043 3.70191406 -8.64911133 3.03224609 -7.59790039 2.34228516 C-6.66163818 1.72248779 -5.72537598 1.10269043 -4.76074219 0.46411133 C-2.21118164 -0.63818359 -2.21118164 -0.63818359 0 0 Z " fill="#000000" transform="translate(469.211181640625,113.63818359375)"/>
<path d="M0 0 C5.93657248 4.99211776 10.58040802 11.70395035 11.34375 19.51953125 C11.94724003 31.47679284 9.85988539 40.44345874 1.70410156 49.56884766 C-6.10682151 57.8561878 -14.24912656 65.70760547 -23 73 C-4.685 73.495 -4.685 73.495 14 74 C14 81.92 14 89.84 14 98 C-12.73 98 -39.46 98 -67 98 C-67 78 -67 78 -63.4375 73.6875 C-61.97265632 72.76843288 -60.49343941 71.87183147 -59 71 C-57.79754058 69.87025951 -56.62957289 68.70261686 -55.5 67.5 C-53.10946833 65.06610268 -50.64953738 62.78644441 -48.0625 60.5625 C-44.53425792 57.52372503 -41.27010699 54.29252065 -38.0078125 50.97265625 C-36.03164838 49.03109423 -33.98553685 47.23105508 -31.875 45.4375 C-24.22160442 38.86220374 -24.22160442 38.86220374 -20 30 C-19.91112789 26.86725795 -19.90036201 23.95078737 -21 21 C-25.49936843 17.41494173 -29.5180639 17.49895515 -35.0625 17.6484375 C-41.91747012 18.46884616 -45.72228671 22.60190559 -51 27 C-61.395 21.06 -61.395 21.06 -72 15 C-70.20745865 7.8298346 -64.55865087 2.71634905 -58.5 -1.3125 C-40.94938987 -10.94655052 -16.70499296 -11.53850029 0 0 Z " fill="#000000" transform="translate(151,213)"/>
<path d="M0 0 C1.45684573 0.05525967 2.91389365 0.1054355 4.37109375 0.15039062 C7.91830818 0.27081025 11.45784821 0.46007197 15 0.6875 C13.76054927 4.03612761 12.37541675 6.83697476 10.3046875 9.7421875 C9.48991943 10.89460937 9.48991943 10.89460937 8.65869141 12.0703125 C8.07007324 12.89273438 7.48145508 13.71515625 6.875 14.5625 C5.60895573 16.35126583 4.34334846 18.14034101 3.078125 19.9296875 C2.41361328 20.86651367 1.74910156 21.80333984 1.06445312 22.76855469 C-2.44039596 27.72408634 -5.90865713 32.70498903 -9.375 37.6875 C-10.05062988 38.6580835 -10.72625977 39.62866699 -11.42236328 40.62866211 C-16.03165844 47.26242531 -20.5617761 53.93770116 -25 60.6875 C-19.06 60.6875 -13.12 60.6875 -7 60.6875 C-7 55.0775 -7 49.4675 -7 43.6875 C2.57 43.6875 12.14 43.6875 22 43.6875 C22 49.2975 22 54.9075 22 60.6875 C26.95 60.6875 31.9 60.6875 37 60.6875 C37 68.6075 37 76.5275 37 84.6875 C32.05 84.6875 27.1 84.6875 22 84.6875 C22 91.2875 22 97.8875 22 104.6875 C12.1 104.6875 2.2 104.6875 -8 104.6875 C-8 98.0875 -8 91.4875 -8 84.6875 C-25.82 84.6875 -43.64 84.6875 -62 84.6875 C-62 61.76226663 -62 61.76226663 -56.8125 56.0625 C-55.70231924 54.67382086 -54.59297265 53.28447452 -53.484375 51.89453125 C-52.90751953 51.20568848 -52.33066406 50.5168457 -51.73632812 49.80712891 C-48.82681356 46.25532837 -46.21723731 42.49355966 -43.5625 38.75 C-42.47833877 37.24871565 -41.39239173 35.74871937 -40.3046875 34.25 C-36.41729093 28.88488397 -32.54095882 23.51179811 -28.66430664 18.13891602 C-27.65869279 16.74608587 -26.63925822 15.36314021 -25.60693359 13.98999023 C-23.90222163 11.63921333 -23.90222163 11.63921333 -22.39697266 8.73071289 C-16.65939182 -1.03322669 -10.23583358 -0.67704685 0 0 Z " fill="#000000" transform="translate(236,206.3125)"/>
<path d="M0 0 C28.38 0 56.76 0 86 0 C86 24.12416327 86 24.12416327 81.13671875 34.38671875 C80.63010208 35.53831985 80.12348541 36.68992096 79.60151672 37.87641907 C77.99923266 41.4973975 76.34570422 45.09184324 74.6875 48.6875 C73.62072967 51.06804288 72.55755983 53.45020258 71.49804688 55.83398438 C69.40009787 60.54603452 67.28302474 65.24878374 65.15380859 69.94677734 C61.40271232 78.27109013 57.86264766 86.67909895 54.35368347 95.108078 C53.92606216 96.13177994 53.49844086 97.15548187 53.05786133 98.21020508 C52.68301102 99.1140242 52.30816071 100.01784332 51.92195129 100.9490509 C51 103 51 103 50 104 C47.55169574 104.08843793 45.13179401 104.11528752 42.68359375 104.09765625 C41.95253922 104.0962413 41.22148468 104.09482635 40.46827698 104.09336853 C38.12464368 104.08775408 35.78110461 104.07519922 33.4375 104.0625 C31.85221492 104.05748686 30.26692834 104.05292363 28.68164062 104.04882812 C24.7877239 104.03777997 20.89387795 104.02050572 17 104 C18.82474144 97.98458782 21.39603324 92.30871506 23.91015625 86.55859375 C24.39649033 85.4404982 24.8828244 84.32240265 25.38389587 83.17042542 C26.94103126 79.5917333 28.50162245 76.01456131 30.0625 72.4375 C32.09600203 67.76994466 34.12814195 63.10179693 36.16015625 58.43359375 C36.65407867 57.29957123 37.1480011 56.16554871 37.65689087 54.99716187 C42.14626915 44.68242111 46.57976191 34.34455302 51 24 C42.75 24 34.5 24 26 24 C26 29.28 26 34.56 26 40 C17.42 40 8.84 40 0 40 C0 26.8 0 13.6 0 0 Z " fill="#000000" transform="translate(347,207)"/>
<path d="M0 0 C8.58 0 17.16 0 26 0 C24.87517201 6.74896794 24.87517201 6.74896794 23.61157227 10.26220703 C23.18725418 11.45429779 23.18725418 11.45429779 22.75436401 12.67047119 C22.44483795 13.52429382 22.13531189 14.37811646 21.81640625 15.2578125 C21.32601364 16.63087555 21.32601364 16.63087555 20.82571411 18.03167725 C20.11533412 20.01972761 19.40278632 22.0070044 18.68832397 23.99359131 C16.74717415 29.39277766 14.82322233 34.79808733 12.8984375 40.203125 C12.49644638 41.33100433 12.09445526 42.45888367 11.68028259 43.62094116 C7.27103135 56.01189749 2.97553412 68.44168684 -1.3125 80.875 C-8.12418843 100.61359196 -15.01174017 120.3232527 -22 140 C-30.58 140 -39.16 140 -48 140 C-45.74984896 129.87432031 -45.74984896 129.87432031 -44.39038086 125.96655273 C-43.93137894 124.63560577 -43.93137894 124.63560577 -43.46310425 123.277771 C-43.13367828 122.3391925 -42.80425232 121.40061401 -42.46484375 120.43359375 C-41.93904221 118.91684052 -41.93904221 118.91684052 -41.40261841 117.3694458 C-40.25264627 114.05700999 -39.0952704 110.7472174 -37.9375 107.4375 C-37.12854638 105.11378508 -36.31987536 102.78997177 -35.51147461 100.46606445 C-27.7421802 78.15955822 -19.85452622 55.89488493 -11.93859863 33.64007568 C-10.45435703 29.4652239 -8.97311571 25.28930932 -7.4921875 21.11328125 C-7.09346687 19.98897957 -7.09346687 19.98897957 -6.68669128 18.84196472 C-6.17840092 17.40869312 -5.67011521 15.97541987 -5.16183472 14.54214478 C-3.4423588 9.69436008 -1.72106121 4.84722206 0 0 Z " fill="#000000" transform="translate(322,186)"/>
</svg>
