<?xml version="1.0" encoding="UTF-8"?>
<svg id="Layer_2" data-name="Layer 2" xmlns="http://www.w3.org/2000/svg" viewBox="0 0 317.07 317.07">
  <defs>
    <style>
      .cls-1 {
        fill: #2561b9;
        stroke-width: 0px;
      }
    </style>
  </defs>
  <g id="Layer_1-2" data-name="Layer 1">
    <g>
      <path class="cls-1" d="M158.53,317.07C71.12,317.07,0,245.95,0,158.53S71.12,0,158.53,0s158.53,71.12,158.53,158.53c0,6.82-.44,13.68-1.3,20.39-.34,2.64-2.76,4.51-5.4,4.17-2.64-.34-4.51-2.76-4.17-5.4.81-6.31,1.22-12.76,1.22-19.17,0-82.1-66.79-148.89-148.89-148.89S9.65,76.44,9.65,158.53s66.79,148.89,148.89,148.89c15.6,0,30.96-2.4,45.66-7.13,2.54-.82,5.25.58,6.07,3.11.82,2.54-.58,5.25-3.11,6.07-15.66,5.04-32.01,7.59-48.61,7.59Z"/>
      <path class="cls-1" d="M205.67,309.71c-2.04,0-3.93-1.3-4.59-3.35-.82-2.54.58-5.25,3.11-6.07,28.48-9.17,53.32-26.56,71.83-50.28,1.64-2.1,4.67-2.48,6.77-.84,2.1,1.64,2.48,4.67.84,6.77-19.7,25.26-46.14,43.77-76.48,53.54-.49.16-.99.23-1.48.23Z"/>
      <path class="cls-1" d="M287.41,282.02c-2.29,0-4.32-1.64-4.74-3.97l-4.23-23.59-22.88,4.82c-2.6.55-5.17-1.12-5.71-3.73-.55-2.61,1.12-5.16,3.73-5.71l27.75-5.84c1.28-.27,2.61,0,3.69.72,1.08.73,1.82,1.86,2.05,3.15l5.11,28.48c.47,2.62-1.27,5.13-3.9,5.6-.29.05-.57.08-.86.08Z"/>
      <g>
        <path class="cls-1" d="M88.96,139.5c.3-4.43,1.4-8.24,3.33-11.45,1.92-3.2,4.42-5.67,7.48-7.38,3.07-1.72,6.32-2.98,9.76-3.78,3.44-.8,7.12-1.2,11.03-1.2,3.03,0,5.93.25,8.7.74s5.47,1.36,8.09,2.58,4.9,2.73,6.82,4.52c1.92,1.79,3.47,4.1,4.66,6.92,1.18,2.82,1.77,6.03,1.77,9.61,0,16.18-10.24,24.26-30.71,24.26-2.22,0-4.32.17-6.32.51s-4.03.92-6.1,1.72c-2.07.8-3.73,2.06-4.99,3.78-1.26,1.72-1.89,3.8-1.89,6.24v8.24h50.01v12.02h-61.98v-20.26c0-4.35.89-8.13,2.66-11.33,1.77-3.2,4.21-5.67,7.32-7.38,3.1-1.72,6.39-2.96,9.87-3.72,3.47-.76,7.24-1.14,11.31-1.14,2,0,3.97-.19,5.93-.57,1.96-.38,3.94-.99,5.93-1.83,2-.84,3.62-2.16,4.88-3.95,1.26-1.79,1.89-3.91,1.89-6.35,0-8.55-5.95-13.05-17.85-13.51-3.25,0-6.25.38-8.98,1.15s-5.1,2.14-7.1,4.12-3.03,4.46-3.1,7.44h-12.42Z"/>
        <path class="cls-1" d="M220.79,116.84v52.19h9.2v11.9h-9.2v15.91h-12.31v-15.91h-43.02l-1.55-11.56,42.58-52.53h14.3ZM208.49,169.03v-37.31l-30.71,37.31h30.71Z"/>
      </g>
    </g>
  </g>
</svg>