<?xml version="1.0" encoding="UTF-8"?>
<svg id="Layer_2" data-name="Layer 2" xmlns="http://www.w3.org/2000/svg" viewBox="0 0 320.01 279.9">
  <defs>
    <style>
      .cls-1 {
        fill: #fff;
      }

      .cls-1, .cls-2 {
        stroke-width: 0px;
      }

      .cls-2 {
        fill: #2561b9;
      }
    </style>
  </defs>
  <g id="Layer_1-2" data-name="Layer 1">
    <g>
      <path class="cls-2" d="M289.25,249.38H19.38c-10.69,0-19.38-8.7-19.38-19.38V19.38C0,8.7,8.7,0,19.38,0h269.86c10.69,0,19.38,8.7,19.38,19.38v210.61c0,10.69-8.7,19.38-19.38,19.38ZM19.38,8.41c-6.05,0-10.97,4.92-10.97,10.97v210.61c0,6.05,4.92,10.97,10.97,10.97h269.86c6.05,0,10.97-4.92,10.97-10.97V19.38c0-6.05-4.92-10.97-10.97-10.97H19.38Z"/>
      <polygon class="cls-2" points="106.5 59.44 4.21 59.44 4.21 51.03 103.37 51.03 127.08 30.61 304.42 30.61 304.42 39.03 130.2 39.03 106.5 59.44"/>
      <path class="cls-2" d="M137.61,163.46H34.73c-6.63,0-12.02-5.39-12.02-12.02v-55.48c0-6.63,5.39-12.02,12.02-12.02h102.88c6.63,0,12.02,5.39,12.02,12.02v55.48c0,6.63-5.39,12.02-12.02,12.02ZM34.73,92.35c-1.99,0-3.61,1.62-3.61,3.61v55.48c0,1.99,1.62,3.61,3.61,3.61h102.88c1.99,0,3.61-1.62,3.61-3.61v-55.48c0-1.99-1.62-3.61-3.61-3.61H34.73Z"/>
      <path class="cls-2" d="M261.57,123.96h-83.17c-9.07,0-16.44-7.37-16.44-16.44v-7.13c0-9.07,7.37-16.44,16.44-16.44h83.17c9.07,0,16.44,7.37,16.44,16.44v7.13c0,9.07-7.37,16.44-16.44,16.44ZM178.4,92.35c-4.43,0-8.03,3.6-8.03,8.03v7.13c0,4.43,3.6,8.03,8.03,8.03h83.17c4.43,0,8.03-3.6,8.03-8.03v-7.13c0-4.43-3.6-8.03-8.03-8.03h-83.17Z"/>
      <path class="cls-2" d="M145.43,191.6H26.92c-2.32,0-4.21-1.88-4.21-4.21s1.88-4.21,4.21-4.21h118.51c2.32,0,4.21,1.88,4.21,4.21s-1.88,4.21-4.21,4.21Z"/>
      <path class="cls-2" d="M121.23,220.74H26.92c-2.32,0-4.21-1.88-4.21-4.21s1.88-4.21,4.21-4.21h94.31c2.32,0,4.21,1.88,4.21,4.21s-1.88,4.21-4.21,4.21Z"/>
      <path class="cls-1" d="M262.95,172.52s1.48-9.81,14.81-9.81,12.34,16.79,12.34,16.79v28.38-22.59s1.98-7.75,14.32-7.75,11.36,11.83,11.36,11.83v57.21c0,5.92-1.59,11.76-4.8,16.73-3.88,6.02-10.46,12.39-20.88,12.39h-53.63c-7.11,0-26.86-8.8-36.73-28.55l-23.71-33.67c-2.89-3.78-4.57-8.41-4.47-13.17.07-3.59,1.1-7.34,4.48-9.46,7.9-4.94,14.81-.99,16.79,1.98s17.78,20.74,17.78,20.74v-89.87s1.98-11.85,13.83-11.85,12.04,11.85,12.04,11.85l.3,38.02,26.66,10.86-.49-12.62s0-11.57-12.84-11.57-13.63,13.12-13.63,13.12"/>
      <path class="cls-2" d="M262.95,208.89c-2.32,0-4.21-1.88-4.21-4.21v-44.72c-.04-1.7-.77-7.37-8.63-7.37-8.33,0-9.32,7.66-9.44,9.19-.17,2.3-2.17,4.04-4.48,3.9-2.31-.16-4.05-2.13-3.92-4.44.36-5.9,4.54-17.07,17.83-17.07,12.51,0,17.04,9.44,17.04,15.78v44.72c0,2.32-1.88,4.21-4.21,4.21Z"/>
      <path class="cls-2" d="M290.1,212.08c-2.32,0-4.21-1.88-4.21-4.21v-28.38c0-.08,0-.17,0-.25.1-1.9-.24-7.5-2.98-10.38-1.25-1.31-2.94-1.95-5.17-1.95-9.2,0-10.54,5.66-10.67,6.31l-4.15-.7-4.16-.63c.7-4.63,5.56-13.39,18.97-13.39,4.55,0,8.46,1.59,11.3,4.61,5.5,5.83,5.32,14.92,5.25,16.49v28.27c0,2.32-1.88,4.21-4.21,4.21Z"/>
      <path class="cls-2" d="M290.1,279.9h-53.63c-8.43,0-29.53-9.24-40.35-30.59l-23.49-33.35c-3.52-4.63-5.39-10.21-5.29-15.73.14-7.45,3.59-11.15,6.46-12.94,9.81-6.13,19.24-1.71,22.52,3.21.85,1.28,5.36,6.54,10.07,11.93v-78.73c0-.23.02-.46.06-.69.89-5.31,5.78-15.36,17.97-15.36s16.14,9.56,16.25,15.99v81.8c0,2.32-1.88,4.21-4.21,4.21s-4.21-1.88-4.21-4.21v-81.67c-.07-1.86-.85-7.71-7.84-7.71s-9.25,6.42-9.62,8.06v89.45c0,1.75-1.08,3.31-2.71,3.93-1.63.62-3.48.17-4.64-1.14-2.67-3-16.1-18.15-18.13-21.2-.59-.89-4.9-4.59-11.06-.74-.6.37-2.42,1.51-2.51,5.97-.07,3.66,1.21,7.4,3.61,10.53.03.04.07.09.1.13l23.71,33.67c.12.17.23.35.32.54,9.08,18.16,27.5,26.23,32.97,26.23h53.63c7.03,0,12.87-3.52,17.35-10.46,2.7-4.18,4.12-9.18,4.12-14.45v-57.21c0-.12,0-.23.01-.35.06-.91-.13-3.75-1.73-5.46-1.13-1.2-2.96-1.82-5.44-1.82-8.51,0-10.12,4.22-10.28,4.7.02-.08.03-.12.03-.12l-8.15-2.08c.11-.45,2.96-10.92,18.4-10.92,6.16,0,9.74,2.48,11.66,4.56,4.06,4.42,3.98,10.28,3.91,11.61v57.07c0,6.89-1.89,13.47-5.47,19.01-6.04,9.36-14.49,14.31-24.41,14.31Z"/>
    </g>
  </g>
</svg>