<?xml version="1.0" encoding="UTF-8"?>
<svg id="Layer_2" data-name="Layer 2" xmlns="http://www.w3.org/2000/svg" viewBox="0 0 325.09 325.09">
  <defs>
    <style>
      .cls-1 {
        fill: #fff;
      }

      .cls-1, .cls-2 {
        stroke-width: 0px;
      }

      .cls-2 {
        fill: #2561b9;
      }
    </style>
  </defs>
  <g id="Layer_1-2" data-name="Layer 1">
    <g>
      <path class="cls-2" d="M101.8,110.19h-12.35c-7.42,0-13.45-6.04-13.45-13.45v-22.49c0-7.42,6.04-13.45,13.45-13.45h12.35c7.42,0,13.45,6.04,13.45,13.45v22.49c0,7.42-6.04,13.45-13.45,13.45ZM89.45,70.08c-2.3,0-4.17,1.87-4.17,4.17v22.49c0,2.3,1.87,4.17,4.17,4.17h12.35c2.3,0,4.17-1.87,4.17-4.17v-22.49c0-2.3-1.87-4.17-4.17-4.17h-12.35Z"/>
      <path class="cls-2" d="M225.08,110.19h-12.35c-7.42,0-13.45-6.04-13.45-13.45v-22.49c0-7.42,6.04-13.45,13.45-13.45h12.35c7.42,0,13.45,6.04,13.45,13.45v22.49c0,7.42-6.04,13.45-13.45,13.45ZM212.73,70.08c-2.3,0-4.17,1.87-4.17,4.17v22.49c0,2.3,1.87,4.17,4.17,4.17h12.35c2.3,0,4.17-1.87,4.17-4.17v-22.49c0-2.3-1.87-4.17-4.17-4.17h-12.35Z"/>
      <rect class="cls-2" x="110.61" y="80.85" width="93.3" height="9.29"/>
      <path class="cls-2" d="M253.82,256.69H60.41c-8.51,0-15.43-6.92-15.43-15.43V96.28c0-8.51,6.92-15.43,15.43-15.43h20.23v9.29h-20.23c-3.39,0-6.14,2.76-6.14,6.14v144.98c0,3.39,2.76,6.14,6.14,6.14h193.41c3.39,0,6.14-2.76,6.14-6.14V96.28c0-3.39-2.76-6.14-6.14-6.14h-19.92v-9.29h19.92c8.51,0,15.43,6.92,15.43,15.43v144.98c0,8.51-6.92,15.43-15.43,15.43Z"/>
      <rect class="cls-2" x="49.62" y="122.62" width="214.99" height="9.29"/>
      <g>
        <circle class="cls-1" cx="234.32" cy="225.03" r="46.86"/>
        <path class="cls-2" d="M234.32,276.54c-28.4,0-51.51-23.11-51.51-51.51s23.11-51.51,51.51-51.51,51.51,23.11,51.51,51.51-23.11,51.51-51.51,51.51ZM234.32,182.81c-23.28,0-42.22,18.94-42.22,42.22s18.94,42.22,42.22,42.22,42.22-18.94,42.22-42.22-18.94-42.22-42.22-42.22Z"/>
      </g>
      <path class="cls-2" d="M232,242.55c-1.03,0-2.05-.35-2.87-.99l-15.84-12.46c-2.02-1.59-2.36-4.51-.78-6.52,1.58-2.01,4.5-2.37,6.52-.78l11.87,9.34,17.69-26.82c1.41-2.14,4.29-2.73,6.43-1.32,2.14,1.41,2.73,4.29,1.32,6.43l-20.47,31.04c-.72,1.08-1.85,1.82-3.13,2.03-.25.04-.5.06-.74.06Z"/>
      <path class="cls-2" d="M162.54,325.09C72.92,325.09,0,252.17,0,162.54c0-48.57,21.47-94.21,58.91-125.23,1.97-1.64,4.9-1.36,6.54.61,1.64,1.97,1.36,4.9-.61,6.54C29.53,73.72,9.29,116.75,9.29,162.54c0,84.51,68.75,153.26,153.26,153.26s153.26-68.75,153.26-153.26S247.05,9.29,162.54,9.29c-26.07,0-51.82,6.66-74.46,19.27-2.24,1.25-5.07.44-6.32-1.8-1.25-2.24-.44-5.07,1.8-6.32C107.58,7.07,134.89,0,162.54,0c89.63,0,162.54,72.92,162.54,162.54s-72.92,162.54-162.54,162.54Z"/>
      <path class="cls-2" d="M62.49,66.28c-.17,0-.33,0-.5-.03-2.55-.27-4.4-2.56-4.12-5.11l1.96-18.33-20.84.67c-.05,0-.1,0-.15,0-2.5,0-4.56-1.98-4.64-4.49-.08-2.56,1.93-4.71,4.49-4.79l26.18-.84c1.37-.05,2.64.5,3.55,1.48.91.98,1.36,2.32,1.21,3.65l-2.53,23.64c-.26,2.38-2.27,4.15-4.61,4.15Z"/>
    </g>
  </g>
</svg>