<?xml version="1.0" encoding="UTF-8"?>
<svg id="Layer_1" data-name="Layer 1" xmlns="http://www.w3.org/2000/svg" viewBox="0 0 2834.65 2834.65">
  <defs>
    <style>
      .cls-1 {
        fill: #fff;
        stroke-width: 0px;
      }
    </style>
  </defs>
  <path class="cls-1" d="M1138.41,2214.01h-45.28c-305.91,0-611.82.04-917.72-.02-111.85-.02-171.11-59.35-171.11-171.15-.02-492.94-.03-985.89,0-1478.83,0-111.26,60.1-171.5,171.42-171.53,337.44-.1,674.89-.06,1012.34.06,11.49,0,23.35-.12,34.4,2.51,27.45,6.54,40.84,25.28,38.36,53.17-2.36,26.5-18.35,41.65-44.85,44.42-11.45,1.2-23.1.68-34.66.68-333.24.03-666.48,0-999.72.04-62.54,0-76.37,13.73-76.37,75.56-.01,489.79-.01,979.58,0,1469.37,0,61.81,13.26,74.8,76.31,74.8,775.81,0,1551.62,0,2327.42,0,64.64,0,76.46-11.99,76.48-77.5.03-126.13-.1-252.25.19-378.38.03-12.45.55-25.54,4.33-37.2,7.83-24.1,26.57-34.72,51.34-32.43,24.98,2.31,40.23,16.9,44.05,41.8,1.58,10.3.98,20.97.98,31.47.05,125.07-3.9,250.31,1.18,375.18,4.75,116.73-76.05,180.66-177.68,179.36-303.76-3.89-607.59-1.4-911.4-1.4h-40.44c0,53.43-1.21,104.49.46,155.46,1,30.34,8.04,60.45,9.55,90.81,1.22,24.67,12.53,29.97,35.46,31.54,193.34,13.25,384.52,39.56,567.51,107.04,45.07,16.62,88.41,38.61,131.03,61.01,33.5,17.61,42.56,46.07,28.24,72.88-14.07,26.35-39.53,33.3-73.3,15.62-206.85-108.3-431.71-140.5-660.2-156.2-194.3-13.35-388.73-12.65-582.66,6.41-172.87,16.99-343.55,45.42-505.16,113.1-23.17,9.7-45.5,21.61-67.5,33.81-34.63,19.21-63.85,15.17-79.36-12.28-15.51-27.45-5.23-55,29.24-75.3,85-50.05,177.99-79.51,272.85-103.43,140.98-35.55,284.64-53.93,429.52-63.15,17.2-1.09,27.98-4.68,29.12-23.89,4.93-83.34,10.24-166.65,15.63-253.45ZM1226.91,2481.97h237.66c-4.24-89.83-8.38-177.52-12.54-265.63h-217.53c0,45.3.97,88.31-.27,131.25-1.27,43.97-4.69,87.88-7.32,134.38Z"/>
  <path class="cls-1" d="M1363.18,1349.12c3.01-13.21,2.33-29.17,9.73-39.11,20.21-27.12,8.69-50.09-2.18-75.75-22.03-52-41.31-105.18-63.17-157.26-3.22-7.66-13.55-14.86-22.04-17.38-54.57-16.2-84.32-52.74-85.87-110.2-1.02-37.81-1.05-75.69.03-113.49,1.64-57.35,30.93-93.14,86.17-110.12,8.41-2.59,18.58-9.73,21.79-17.35,24.39-57.85,48.28-115.96,69.81-174.91,4.94-13.53,4.78-32.67-1-45.69-20.01-45.11-14.92-92.7,19.33-128.52,27.59-28.86,55.86-57.12,84.68-84.76,37.89-36.34,88.44-43.04,133.07-15.93,14.94,9.08,24.71,7.35,39.62.7,55.42-24.71,111.56-47.92,168.16-69.77,14.84-5.73,23.77-10.68,28.31-27.74,14.25-53.6,52.31-82.79,107.7-84.42,38.86-1.14,77.82-1.32,116.66.06,54.94,1.95,91.5,33.08,107.42,85.62,3,9.89,13.09,21.02,22.65,24.98,59.04,24.48,118.66,47.64,178.65,69.71,10,3.68,24.47,3.49,33.95-1.03,49.49-23.64,94.44-18.52,133.42,18.91,28.05,26.93,55.61,54.4,82.49,82.49,37.49,39.18,42.41,84.31,18.23,133.38-4.71,9.55-5.99,24.16-2.28,33.95,23.73,62.64,48.9,124.75,74.85,186.51,2.75,6.55,13.03,11.73,20.85,14.07,55.81,16.74,85.41,55.02,85.92,113.42.31,35.73.32,71.47,0,107.2-.52,58.49-30.36,96.48-86.29,113-8.27,2.44-18.07,9.92-21.3,17.55-24.93,58.79-49.34,117.85-71.59,177.68-4.6,12.37-3.68,30.28,1.89,42.31,20.54,44.31,17.01,90-16.33,126.07-29.23,31.61-59.78,62.16-91.4,91.37-36,33.25-81.66,36.79-126.07,15.99-11.02-5.16-27.58-5.53-39.13-1.33-57.11,20.77-113.18,44.4-170.12,65.67-15.71,5.87-26.04,11.09-30.33,30.28-10.95,49.07-51.62,81.12-102.18,82.8-40.95,1.36-82,1.19-122.97.1-51.07-1.36-90.33-31.24-103.57-81.13-5.09-19.17-14.91-25.46-32.22-31.86-53.96-19.97-107.33-41.8-159.72-65.58-17.63-8-29.7-12-48.39-.94-44.31,26.24-92.32,18.55-130.04-17.72-28.79-27.68-58.92-54.49-83.97-85.33-16.95-20.87-26.13-48.06-38.78-72.42,1.85-1.36,3.71-2.72,5.56-4.08ZM2563.71,1350.05c-34.87-62.5-32.53-86.06-.65-150.3,23.64-47.62,42.4-97.97,59.62-148.37,12.93-37.87,31.16-68.72,69.76-83.66,11.49-4.45,23.68-7.09,34.62-10.28v-130.63c-63.27-8.96-92.24-47.9-108.12-105.35-12.45-45.06-30.83-89.59-53.65-130.39-29.8-53.29-40.4-103.16,3.67-159.67-28.95-27.12-56.56-54.28-85.99-79.33-5.09-4.34-19.62-2.78-26.75,1.32-40.44,23.25-78.44,19.33-119.79-.35-54.67-26.02-111.13-48.71-168.08-69.36-42.79-15.51-72.46-39.7-84.24-85.17-2.17-8.39-15.69-18.78-24.72-19.55-29.21-2.49-58.8-.13-88.18-1.24-17.13-.65-23.29,6.22-26.95,22.52-9.58,42.65-38.36,67-78.87,82.18-59.67,22.36-118.61,46.91-176.86,72.76-29.06,12.9-61.16,26.11-87.28,8.84-44.27-29.26-66.99-4.96-92.24,24.41-10.25,11.92-23.65,21.35-32.64,34.02-4.58,6.46-6.68,20.12-2.92,26.21,27.67,44.79,20.83,86.1-3.26,130.59-22.85,42.19-44.45,86.52-56.89,132.53-16.51,61.07-42.95,106.9-112.86,115.62,0,39.96-.95,77.71.85,115.32.34,7.02,10.73,17.7,18.23,19.54,48.33,11.85,71.92,43.86,87.2,89.58,18.19,54.41,40.78,107.77,66.3,159.18,21.43,43.17,26.82,82.83.81,125.13-3.77,6.13-4.51,19.65-.45,24.15,26.46,29.34,54.64,57.13,81.85,85.01,45.97-33.65,87.98-36.42,134.89-14.24,55.68,26.33,112.93,49.83,170.86,70.78,42.93,15.53,72.13,40.24,84.97,84.92,2.44,8.49,15.07,19.15,23.72,19.85,30.28,2.43,60.96,2.22,91.29.11,8.28-.58,21.12-10.1,22.89-17.63,11.73-50.08,44.93-74.31,91.92-88.87,45.87-14.21,92.59-29.58,134.11-53,55.58-31.36,107.55-47.9,161.04-4.36,32.03-32.04,61.63-61.64,92.81-92.83Z"/>
  <path class="cls-1" d="M386.72,1670.16c47.61,46.99,90.31,88.9,132.73,131.11,20.13,20.03,26.41,42.92,9.89,68.11-17.5,26.7-51.97,30.97-76.52,7.16-57.34-55.61-113.68-112.27-169.45-169.45-22.06-22.62-21.65-50.26.7-73.1,55.14-56.33,110.89-112.09,167.27-167.18,23.08-22.55,52.78-21.76,72.95-.84,20.27,21.03,20.02,49.06-3.65,73.01-42.72,43.24-86.78,85.16-133.91,131.18Z"/>
  <path class="cls-1" d="M1186.36,1670.7c-47.14-46.2-91-88.16-133.63-131.34-26.03-26.37-24.41-59.91,2.51-78.94,23.05-16.3,46.14-13.59,65.7,5.65,56.83,55.91,113.4,112.09,168.99,169.23,21.87,22.47,21.15,50.07-1.31,73.03-55.02,56.23-110.68,111.85-166.98,166.8-23.22,22.66-52.5,21.87-72.82.98-20.45-21.04-20.26-49.03,3.17-72.84,42.63-43.31,86.47-85.44,134.37-132.55Z"/>
  <path class="cls-1" d="M747.65,1891.65c-38.48-1.05-59.78-30.67-50.99-66.94,24.18-99.77,49.31-199.32,74.1-298.94,3.29-13.22,5.87-26.71,10.4-39.5,9.36-26.42,34.87-40.25,59.72-33.53,25.55,6.92,43.24,31.34,36.9,57.66-27.74,115.09-56.53,229.94-85.88,344.63-6.13,23.96-24.84,35.18-44.25,36.61Z"/>
  <path class="cls-1" d="M2492.35,894.87c-3.46,267.5-217.2,478.18-481.97,475.07-267.16-3.14-476.61-218.65-473.28-486.97,3.26-262.25,222.02-470.91,489.92-467.28,256.41,3.47,468.65,222.04,465.32,479.19ZM2391.46,891.79c-2.06-212.43-170.97-377.5-384.02-375.26-206.46,2.16-371.78,173.81-369.41,383.55,2.32,205.44,172.55,370.42,380.73,369,206-1.41,374.68-172.17,372.7-377.29Z"/>
</svg>