<?xml version="1.0" encoding="UTF-8"?>
<svg version="1.1" xmlns="http://www.w3.org/2000/svg" width="512" height="512">
<path d="M0 0 C1.08786287 -0.00913666 1.08786287 -0.00913666 2.19770277 -0.01845789 C4.61051044 -0.03501218 7.02278601 -0.0303232 9.43563843 -0.0255127 C11.17238408 -0.03285719 12.90912486 -0.04144453 14.64585876 -0.05117798 C19.35021879 -0.07335618 24.05440349 -0.07632673 28.75880861 -0.07443047 C32.68800831 -0.07431066 36.61717099 -0.08287845 40.54636037 -0.09120798 C49.81367748 -0.11042659 59.08090451 -0.11333057 68.34823608 -0.10656738 C77.90907168 -0.09991865 87.46952226 -0.12282792 97.03027976 -0.15988111 C105.24276792 -0.1905542 113.45513202 -0.20194101 121.66767633 -0.1980443 C126.57119822 -0.19597532 131.47442009 -0.20147985 136.37788773 -0.22593689 C140.9860401 -0.24816364 145.5935643 -0.24636041 150.20171928 -0.22600937 C151.89281513 -0.22259273 153.58395296 -0.22771656 155.27499199 -0.24199295 C157.58355928 -0.2601388 159.88998442 -0.24747477 162.19848633 -0.22705078 C163.4900445 -0.22776329 164.78160267 -0.2284758 166.11229897 -0.2292099 C170.3560027 0.55843465 171.84626425 2.03381068 174.47225952 5.39440918 C175.0257459 9.26881385 174.77194515 12.17484929 172.47225952 15.39440918 C168.89820765 17.77857809 165.66089836 17.64725997 161.44367981 17.6526947 C160.73592425 17.65637041 160.02816869 17.66004611 159.29896599 17.6638332 C156.92753933 17.67381302 154.55634717 17.66966253 152.18490601 17.66564941 C150.48476919 17.67003638 148.78463453 17.67533842 147.08450317 17.68148804 C143.42370222 17.69298977 139.76295916 17.69844757 136.10214043 17.69936943 C130.31669206 17.70130844 124.53136372 17.71935123 118.74595642 17.74012756 C104.37778005 17.78933528 90.00957113 17.82022804 75.6413269 17.84143066 C64.4723423 17.85793611 53.30346053 17.88069472 42.13454491 17.92445141 C36.37998416 17.94627632 30.62561855 17.95428117 24.87101924 17.95205867 C21.29590771 17.95372141 17.72092441 17.96774476 14.14585876 17.98527145 C12.48457837 17.99088665 10.82327155 17.99134184 9.16198921 17.98633385 C6.89898249 17.98022562 4.63679114 17.99236273 2.37385559 18.00914001 C1.10605475 18.01115134 -0.16174608 18.01316267 -1.46796513 18.01523495 C-4.47726828 18.15131278 -4.47726828 18.15131278 -6.39659023 19.6684885 C-8.4382722 22.78370784 -8.6528228 25.96575795 -8.65637493 29.62080288 C-8.65959938 30.46169852 -8.66282382 31.30259416 -8.66614598 32.16897148 C-8.66459738 33.08773711 -8.66304878 34.00650273 -8.66145325 34.95310974 C-8.6637188 35.93305218 -8.66598436 36.91299461 -8.66831857 37.92263228 C-8.67466256 41.21523842 -8.67382895 44.50780345 -8.67300415 47.80041504 C-8.67599536 50.15739495 -8.6793978 52.51437438 -8.68318176 54.87135315 C-8.69202913 61.28034114 -8.69436017 67.68931578 -8.69499755 74.09830928 C-8.69549135 78.09984279 -8.69777647 82.10137463 -8.70049477 86.10290718 C-8.70930063 99.33495481 -8.71391418 112.56699432 -8.71316429 125.7990449 C-8.71310436 126.86900046 -8.71310436 126.86900046 -8.71304321 127.96057129 C-8.71300233 128.67474528 -8.71296145 129.38891926 -8.71291933 130.12473489 C-8.71251276 141.70266561 -8.72208539 153.28056383 -8.73618158 164.85848515 C-8.75053966 176.74523869 -8.75745209 188.63197637 -8.7565878 200.51873881 C-8.75625566 207.19283753 -8.75920417 213.86690699 -8.76976585 220.54099846 C-8.77942456 226.81592147 -8.77954133 233.09077235 -8.77224922 239.36569786 C-8.77120065 241.67117162 -8.77358233 243.97664982 -8.77960968 246.28211594 C-8.78729397 249.42440461 -8.7827084 252.56644195 -8.77497864 255.70872498 C-8.7801222 256.62525988 -8.78526576 257.54179479 -8.79056519 258.48610348 C-8.80564905 264.70238462 -8.80564905 264.70238462 -6.52774048 270.39440918 C-3.11356746 272.65444548 -0.15988443 272.64584005 3.86946774 272.64888477 C4.51247876 272.65209125 5.15548978 272.65529773 5.81798598 272.65860137 C7.98139322 272.6669296 10.14452565 272.66096736 12.30793762 272.65510559 C13.87112758 272.65812499 15.43431606 272.66201341 16.99750191 272.66669816 C21.30003326 272.67701416 25.60248161 272.67478721 29.90501988 272.67051756 C34.54245291 272.66805686 39.17986561 272.6770563 43.81729126 272.68455505 C52.90506107 272.69732225 61.99280135 272.69909324 71.08057862 272.69675479 C78.46507459 272.69497378 85.84956158 272.69671661 93.23405647 272.70097923 C94.28393281 272.70157442 95.33380914 272.70216961 96.41549991 272.70278284 C98.54812812 272.70399455 100.68075633 272.70520868 102.81338454 272.70642521 C122.82542014 272.71730847 142.8374389 272.7151345 162.84947545 272.70904037 C181.16876726 272.70387013 199.48800591 272.71512808 217.80728721 272.73413859 C236.60519931 272.75349667 255.40308624 272.76177658 274.20100838 272.75801533 C284.75956188 272.75610025 295.31807013 272.75862072 305.87661552 272.77272987 C314.86481983 272.78461878 323.85295103 272.7860766 332.8411563 272.77393971 C337.42907975 272.76803355 342.01686932 272.76699933 346.60478401 272.77894211 C350.80234814 272.78974201 354.99966564 272.78676832 359.19721795 272.77268042 C360.71803851 272.77001716 362.23887805 272.77245075 363.75968008 272.78041629 C365.82315683 272.79047644 367.8857686 272.78214089 369.94921017 272.76913929 C371.09645532 272.76919431 372.24370046 272.76924932 373.42571062 272.769306 C376.84043766 272.34910257 378.72690188 271.43491825 381.47225952 269.39440918 C382.94413007 266.45066808 382.59704428 263.83162005 382.59823608 260.54553223 C382.60010422 259.84126099 382.60197235 259.13698975 382.60389709 258.41137695 C382.60790445 256.87974603 382.60997624 255.34810912 382.61035919 253.81647301 C382.61377113 250.55989258 382.63512984 247.30351246 382.65559006 244.04700184 C382.69362878 237.98154413 382.72487508 231.91629855 382.7227478 225.85070801 C382.72196056 221.63356654 382.74533024 217.41715558 382.78462982 213.20020485 C382.7950911 211.59391375 382.79661284 209.98753833 382.78897858 208.38123131 C382.7793501 206.13050807 382.80054693 203.88199357 382.82870483 201.63146973 C382.83235046 200.35176804 382.83599609 199.07206635 382.8397522 197.75358582 C383.63766202 193.51597474 385.1242234 192.02859565 388.47225952 189.39440918 C392.44363233 188.64977678 393.91325635 189.0217404 397.28475952 191.26940918 C399.97592062 193.88367996 400.43646477 194.63252615 400.61270142 198.38368225 C400.61952942 199.66669724 400.62635742 200.94971222 400.63339233 202.27160645 C400.63835724 202.97920609 400.64332214 203.68680573 400.6484375 204.41584778 C400.66307687 206.76418017 400.66986667 209.11244484 400.67538452 211.46081543 C400.6811378 213.0954946 400.68689552 214.73017376 400.69265747 216.36485291 C400.70317475 219.79894322 400.70901157 223.2330101 400.7124939 226.66711426 C400.7179575 231.04942865 400.74193631 235.431429 400.77046585 239.81364536 C400.78917806 243.19474663 400.79430254 246.57577388 400.79582977 249.95692253 C400.79884128 251.57112264 400.80681862 253.18532192 400.82001495 254.7994709 C400.8944804 264.61465447 400.92602713 273.11217637 395.34725952 281.64440918 C388.37855956 288.31012219 381.42332718 290.52226775 371.91065979 290.5146637 C371.26526995 290.51551812 370.6198801 290.51637255 369.95493299 290.51725286 C367.8007678 290.51889487 365.64668116 290.51340732 363.49252319 290.50793457 C361.94500734 290.5076524 360.39749136 290.50781102 358.84997559 290.50837708 C354.65411274 290.50866387 350.45827852 290.50278613 346.26242232 290.49580312 C341.87552647 290.48955002 337.48862996 290.48896423 333.10173035 290.48777771 C324.79684621 290.48467017 316.49197524 290.47646455 308.18709689 290.46642822 C298.73129809 290.45524917 289.27549865 290.44975211 279.81969488 290.44473279 C260.37054229 290.43428147 240.92140197 290.41669318 221.47225952 290.39440918 C221.46035252 293.07923698 221.45172178 295.76401084 221.44491577 298.44885254 C221.43941711 299.57548435 221.43941711 299.57548435 221.43380737 300.7248764 C221.42096084 307.50405814 221.85892968 314.20613679 222.47225952 320.95690918 C222.56765015 322.07259277 222.66304077 323.18827637 222.76132202 324.33776855 C222.991895 327.02394374 223.22884215 329.70937309 223.47225952 332.39440918 C224.11324585 332.43404785 224.75423218 332.47368652 225.41464233 332.51452637 C321.51001076 338.66707737 321.51001076 338.66707737 343.32772827 362.41394043 C345.14826022 365.56414418 344.97121996 367.83931602 344.47225952 371.39440918 C342.34725952 374.33190918 342.34725952 374.33190918 339.47225952 376.39440918 C333.69117922 377.24355896 329.69958206 374.83629498 324.72225952 372.26940918 C252.20259969 336.64070045 139.26940622 340.08795361 63.72225952 365.83190918 C56.7956599 368.27284781 50.54879781 371.22820874 44.29647827 375.10925293 C40.80763996 376.69684325 38.26579358 376.72741217 34.47225952 376.39440918 C31.14590188 374.206016 30.5664083 372.7710043 29.59725952 368.89440918 C29.46917434 365.30802424 29.56433392 364.28762174 31.47225952 361.39440918 C61.67849079 337.59212563 113.54845619 334.44306615 150.47225952 332.39440918 C151.89426082 322.35756509 152.68391339 312.39860144 153.03866577 302.26550293 C153.10301819 300.54502747 153.10301819 300.54502747 153.16867065 298.78979492 C153.27290774 295.99143005 153.37404368 293.19299074 153.47225952 290.39440918 C152.67049789 290.39625277 151.86873627 290.39809635 151.04267883 290.3999958 C131.52045657 290.44419353 111.99824431 290.47727486 92.47598267 290.49803352 C83.03510744 290.50833947 73.59426564 290.52238678 64.15341187 290.54528809 C55.92332149 290.56524282 47.69325533 290.57813057 39.46314144 290.58258617 C35.10668375 290.58519001 30.75029532 290.59129601 26.39385986 290.60586929 C22.28993008 290.61948612 18.18609783 290.62362355 14.0821476 290.62062454 C12.579374 290.62117287 11.076597 290.62512584 9.573843 290.63282013 C-9.65551962 290.72641291 -9.65551962 290.72641291 -17.52774048 284.39440918 C-23.50891372 278.38461788 -25.74307447 273.62782687 -25.80455148 265.11215514 C-25.80145428 264.13998449 -25.79835707 263.16781384 -25.79516602 262.16618347 C-25.79969713 261.12625002 -25.80422824 260.08631657 -25.80889666 259.01486999 C-25.82157192 255.52504575 -25.81991825 252.03537696 -25.81826782 248.54553223 C-25.82425111 246.04548949 -25.8310562 243.5454486 -25.83862305 241.04541016 C-25.85447273 234.95600652 -25.86073232 228.86666416 -25.8618478 222.7772456 C-25.86279859 217.82653127 -25.86691044 212.8758297 -25.87324905 207.9251194 C-25.89086008 193.88410923 -25.90008818 179.84312961 -25.89858811 165.80210831 C-25.89850819 165.04535324 -25.89842828 164.28859817 -25.89834595 163.50891113 C-25.89826419 162.75123036 -25.89818242 161.99354958 -25.89809819 161.21290878 C-25.8972854 148.93541144 -25.91642159 136.65803681 -25.94462268 124.38057496 C-25.97336128 111.7694309 -25.98716243 99.15834667 -25.98543513 86.54716903 C-25.98477155 79.46885452 -25.99024976 72.39066864 -26.01179123 65.31238365 C-26.0319224 58.65491456 -26.03131933 51.99767062 -26.01675797 45.34017181 C-26.01466487 42.89727444 -26.0194004 40.45436019 -26.03147888 38.01149178 C-26.04690577 34.675203 -26.03763903 31.33985423 -26.0222168 28.00358582 C-26.03250392 27.03810733 -26.04279105 26.07262884 -26.05338991 25.07789344 C-25.98197537 18.08123491 -24.40298578 12.80583076 -19.85195923 7.40612793 C-19.04178345 6.75063965 -19.04178345 6.75063965 -18.21524048 6.08190918 C-17.68285767 5.63202637 -17.15047485 5.18214355 -16.60195923 4.71862793 C-11.05752895 1.1789634 -6.5676844 0.01894977 0 0 Z M170.47225952 290.39440918 C170.18567561 298.27530021 170.18567561 298.27530021 169.90414429 306.15637207 C169.58844232 314.59222219 169.03446461 322.96133284 168.47225952 331.39440918 C180.68225952 331.39440918 192.89225952 331.39440918 205.47225952 331.39440918 C205.14431086 320.52022868 205.14431086 320.52022868 204.8140564 309.64611816 C204.77295818 308.26924888 204.7319375 306.89237728 204.69100952 305.51550293 C204.66941772 304.8171936 204.64782593 304.11888428 204.62557983 303.39941406 C204.4977568 299.05875692 204.47225952 294.74009234 204.47225952 290.39440918 C193.25225952 290.39440918 182.03225952 290.39440918 170.47225952 290.39440918 Z " fill="#000000" transform="translate(57.527740478515625,92.6055908203125)"/>
<path d="M0 0 C1.99907888 0.00315236 3.99813905 -0.02115759 5.99707031 -0.0456543 C7.90359375 -0.04662109 7.90359375 -0.04662109 9.84863281 -0.04760742 C11.00669434 -0.05058838 12.16475586 -0.05356934 13.35791016 -0.05664062 C19.64863422 0.65746941 23.57050658 3.65164245 27.44628906 8.39770508 C29.29749848 11.37784877 29.49583245 13.84003359 29.63769531 17.31567383 C30.24718018 17.41291748 30.85666504 17.51016113 31.48461914 17.61035156 C37.89045956 18.74541615 43.42109637 20.68836836 49.32519531 23.37817383 C54.790043 25.85820511 59.60178737 27.93122109 65.63769531 28.31567383 C67.30737503 27.65658973 68.97377486 26.98916544 70.63769531 26.31567383 C76.52408948 25.6360529 80.51434159 26.14320569 85.63769531 29.31567383 C88.87119511 32.15012236 91.87868593 35.18349894 94.88769531 38.25317383 C95.70238281 39.06463867 96.51707031 39.87610352 97.35644531 40.7121582 C105.40876114 48.8377981 105.40876114 48.8377981 105.90332031 54.19067383 C105.89816406 55.22192383 105.89300781 56.25317383 105.88769531 57.31567383 C105.89542969 58.86254883 105.89542969 58.86254883 105.90332031 60.44067383 C105.63769531 63.31567383 105.63769531 63.31567383 104.55957031 65.31567383 C103.16665058 68.33760138 103.79611464 70.11615091 104.63769531 73.31567383 C105.81169108 76.28902438 107.15159265 79.17401273 108.51269531 82.06567383 C110.83831805 87.06005225 112.89970684 91.70235503 114.01269531 97.12817383 C114.79792923 100.15029121 115.23052702 101.04112197 117.85644531 102.81176758 C119.61307586 103.64100053 121.39129577 104.42609241 123.18847656 105.16333008 C127.33550649 107.11448451 129.59836216 110.23700753 131.63769531 114.31567383 C131.92019649 118.63043238 131.95149204 122.94897453 131.98779297 127.27172852 C132.0042731 128.70711572 132.03145782 130.14242358 132.06982422 131.57739258 C132.45730519 146.16015484 132.45730519 146.16015484 127.99658203 151.93676758 C126.29041824 153.66806709 124.76835009 154.82879765 122.51269531 155.75317383 C121.85011719 156.04063477 121.18753906 156.3280957 120.50488281 156.62426758 C118.89419458 157.22069397 117.26712372 157.77253103 115.63769531 158.31567383 C114.6601622 160.727466 114.6601622 160.727466 113.95019531 163.75317383 C112.03378802 170.56622809 109.29840957 176.78042304 106.19165039 183.13378906 C104.11125948 187.48318125 104.11125948 187.48318125 103.84472656 192.22192383 C104.60281437 194.33044102 104.60281437 194.33044102 105.63769531 196.31567383 C106.52761937 203.53645002 106.24733191 209.100184 101.74316406 214.95239258 C99.11652257 217.90066364 96.45346528 220.79761306 93.70019531 223.62817383 C93.21067383 224.13219727 92.72115234 224.6362207 92.21679688 225.15551758 C88.03435055 229.28006583 83.68719402 232.83331344 77.72363281 233.77661133 C76.82902344 233.74825195 75.93441406 233.71989258 75.01269531 233.69067383 C74.11292969 233.6777832 73.21316406 233.66489258 72.28613281 233.65161133 C69.63769531 233.31567383 69.63769531 233.31567383 67.11425781 232.22973633 C62.85839948 230.65896212 59.13459933 232.39181055 55.09082031 234.05786133 C54.24519531 234.40204102 53.39957031 234.7462207 52.52832031 235.10083008 C51.22121094 235.64030273 51.22121094 235.64030273 49.88769531 236.19067383 C48.16481361 236.8990273 46.44085912 237.60477733 44.71582031 238.30786133 C43.87438477 238.65220215 43.03294922 238.99654297 42.16601562 239.35131836 C39.68150168 240.29896514 37.18876547 241.05398114 34.63769531 241.80004883 C31.34866516 242.849916 31.34866516 242.849916 29.05957031 245.40161133 C28.83785156 246.15700195 28.61613281 246.91239258 28.38769531 247.69067383 C26.64311362 252.56757264 24.3373377 255.58822183 19.90283203 258.42578125 C15.18797989 260.27808089 9.84901277 259.64729656 4.84814453 259.63134766 C2.77615418 259.62819431 0.70560241 259.65163985 -1.36621094 259.67700195 C-3.34041016 259.67796875 -3.34041016 259.67796875 -5.35449219 259.67895508 C-6.55444824 259.68193604 -7.7544043 259.68491699 -8.99072266 259.68798828 C-14.2417519 259.10813168 -17.40873942 257.2692391 -21.11230469 253.56567383 C-23.36230469 250.31567383 -23.36230469 250.31567383 -24.05761719 246.76489258 C-25.01239291 243.03934064 -25.01239291 243.03934064 -28.49511719 241.81958008 C-29.81958959 241.4803387 -31.15116556 241.16807744 -32.48730469 240.87817383 C-39.59408546 239.05131934 -45.68656859 236.38983838 -52.04443359 232.72998047 C-55.91715567 230.59608544 -55.91715567 230.59608544 -60.19433594 231.03051758 C-60.90976562 231.45461914 -61.62519531 231.8787207 -62.36230469 232.31567383 C-64.89925462 233.58414879 -66.77839106 233.51921623 -69.61230469 233.56567383 C-71.01222656 233.6043457 -71.01222656 233.6043457 -72.44042969 233.64379883 C-80.19095145 232.77341938 -84.82622811 227.33882706 -90.04980469 222.06567383 C-90.80841797 221.32704102 -91.56703125 220.5884082 -92.34863281 219.82739258 C-97.78636603 214.38485995 -100.98915203 210.23377673 -101.73730469 202.37817383 C-101.65849259 199.3139885 -100.97094408 197.38710264 -99.58105469 194.68286133 C-98.15674915 191.01593279 -98.43495618 189.09249162 -99.93261719 185.47583008 C-100.75663637 183.76308508 -101.6091778 182.06381798 -102.48730469 180.37817383 C-103.32744304 178.68363551 -104.16342199 176.9870283 -104.99511719 175.28833008 C-105.40020508 174.46349121 -105.80529297 173.63865234 -106.22265625 172.78881836 C-108.58938031 167.65280407 -110.36230469 162.99613071 -110.36230469 157.31567383 C-111.22855469 157.23317383 -112.09480469 157.15067383 -112.98730469 157.06567383 C-119.06287339 155.71554745 -122.87008597 152.35998975 -126.36230469 147.31567383 C-128.00364639 142.39164871 -127.66569751 137.29703092 -127.71240234 132.13867188 C-127.737005 130.15236891 -127.79360079 128.16654599 -127.85058594 126.1809082 C-127.91942528 118.6506489 -127.65786079 112.9979256 -122.36230469 107.31567383 C-118.45838436 104.07625058 -115.40235833 102.79567894 -110.36230469 102.31567383 C-110.23819214 101.43516357 -110.23819214 101.43516357 -110.11157227 100.53686523 C-108.71849497 92.20774656 -105.31292754 85.21100288 -101.55566406 77.70629883 C-98.97999037 72.551233 -98.97999037 72.551233 -98.72436523 66.96508789 C-99.60909112 64.57167216 -99.60909112 64.57167216 -101.36230469 61.31567383 C-102.49211323 55.12702109 -100.63604073 50.51351463 -97.36230469 45.31567383 C-94.93697566 42.35226483 -92.28595449 39.67868873 -89.54980469 37.00317383 C-88.86337891 36.3012793 -88.17695313 35.59938477 -87.46972656 34.8762207 C-82.71948344 30.16193022 -78.68172916 27.0206039 -71.92089844 25.91723633 C-68.01437209 25.96040237 -65.73447798 26.12593842 -62.17480469 27.94067383 C-59.44489601 29.65228848 -59.44489601 29.65228848 -56.62792969 28.61254883 C-53.10092276 27.21187144 -49.70259971 25.61349144 -46.29980469 23.94067383 C-41.28725783 21.48940092 -36.56562955 19.75973113 -31.11230469 18.44067383 C-26.85397941 17.37158089 -26.85397941 17.37158089 -24.10058594 14.24926758 C-23.39378397 11.89329825 -23.39378397 11.89329825 -22.95605469 9.50317383 C-21.78751247 5.19801831 -18.22125304 3.47261855 -14.57861328 1.20556641 C-10.01607073 -0.6263864 -4.85160417 -0.01602953 0 0 Z M-7.36230469 17.31567383 C-8.68230469 20.28567383 -10.00230469 23.25567383 -11.36230469 26.31567383 C-15.11214159 31.14995834 -18.82857518 32.47292813 -24.48730469 34.06567383 C-32.30821907 36.42904833 -39.44987748 39.53912148 -46.64013672 43.42016602 C-52.17818095 46.25550837 -57.15406543 47.38004512 -63.36230469 46.31567383 C-65.67230469 45.32567383 -67.98230469 44.33567383 -70.36230469 43.31567383 C-74.98230469 47.93567383 -79.60230469 52.55567383 -84.36230469 57.31567383 C-83.37230469 59.29567383 -82.38230469 61.27567383 -81.36230469 63.31567383 C-79.58759438 71.50107239 -82.13756511 77.7402065 -86.01708984 84.8046875 C-89.45685591 91.14445712 -91.72771555 97.69135575 -93.83911133 104.57739258 C-95.47551442 109.65914949 -96.97521537 112.98484678 -101.36230469 116.31567383 C-104.33230469 117.63567383 -107.30230469 118.95567383 -110.36230469 120.31567383 C-110.36230469 126.91567383 -110.36230469 133.51567383 -110.36230469 140.31567383 C-107.39230469 141.30567383 -104.42230469 142.29567383 -101.36230469 143.31567383 C-95.80330967 147.9125351 -94.29925261 153.08376188 -92.40527344 159.82470703 C-90.08834309 167.83342767 -86.27336121 174.98701184 -82.36230469 182.31567383 C-81.03846096 184.96336128 -81.15683994 187.0452906 -81.11230469 190.00317383 C-81.08652344 191.01766602 -81.06074219 192.0321582 -81.03417969 193.07739258 C-81.36230469 196.31567383 -81.36230469 196.31567383 -84.36230469 203.31567383 C-80.07230469 207.60567383 -75.78230469 211.89567383 -71.36230469 216.31567383 C-67.28504396 215.00219773 -67.28504396 215.00219773 -63.36230469 213.31567383 C-55.89396904 211.76110611 -50.38270829 214.49288933 -43.97363281 217.97094727 C-37.61579292 221.36317777 -31.06361306 223.66317048 -24.18896484 225.79248047 C-18.9821612 227.47555645 -15.18496991 229.21835963 -11.36230469 233.31567383 C-10.04230469 236.28567383 -8.72230469 239.25567383 -7.36230469 242.31567383 C-0.76230469 242.31567383 5.83769531 242.31567383 12.63769531 242.31567383 C13.19457031 240.74817383 13.75144531 239.18067383 14.32519531 237.56567383 C15.91733215 233.08410347 17.61550897 230.9001892 21.63769531 228.31567383 C24.29381974 227.2337509 27.01199254 226.43353423 29.76269531 225.62817383 C37.58715865 223.21629734 44.7805149 220.06634596 52.00341797 216.21142578 C57.24449065 213.53929279 61.74317679 212.41061569 67.63769531 213.31567383 C69.64521346 214.30049405 71.6470399 215.29719897 73.63769531 216.31567383 C77.75630316 215.03472452 80.46828054 211.70970118 83.38769531 208.69067383 C83.89429688 208.17504883 84.40089844 207.65942383 84.92285156 207.12817383 C86.16573433 205.86184044 87.40234807 204.58935943 88.63769531 203.31567383 C88.42113281 202.75879883 88.20457031 202.20192383 87.98144531 201.62817383 C87.56378906 200.48348633 87.56378906 200.48348633 87.13769531 199.31567383 C86.72003906 198.20192383 86.72003906 198.20192383 86.29394531 197.06567383 C84.29833305 188.70310815 86.46764318 183.66909009 90.32519531 176.31567383 C94.2538251 168.51624897 97.27283758 161.00175028 99.50488281 152.56567383 C101.14985475 147.84630606 103.24802236 145.11399659 107.57519531 142.62817383 C110.24575697 141.48364741 112.94002066 140.39474369 115.63769531 139.31567383 C115.63769531 133.04567383 115.63769531 126.77567383 115.63769531 120.31567383 C114.09082031 119.77942383 112.54394531 119.24317383 110.95019531 118.69067383 C106.20888784 117.04702057 103.27804266 114.54869562 100.63769531 110.31567383 C99.48176999 107.64885125 98.68288132 104.92082784 97.88769531 102.12817383 C95.50123121 94.29112344 92.35725238 87.10518532 88.53320312 79.86181641 C85.45783323 73.80280975 84.68099335 69.32471064 86.29394531 62.56567383 C87.07519531 60.48234049 87.85644531 58.39900716 88.63769531 56.31567383 C84.34769531 52.02567383 80.05769531 47.73567383 75.63769531 43.31567383 C72.09447643 44.71943214 72.09447643 44.71943214 68.63769531 46.31567383 C60.34813946 47.28640068 54.61700505 45.51582026 47.38769531 41.62817383 C39.95198373 37.83430795 32.80390796 34.78634743 24.76660156 32.54614258 C20.84289524 31.003112 18.54961617 29.38322477 15.63769531 26.31567383 C14.64769531 23.34567383 13.65769531 20.37567383 12.63769531 17.31567383 C6.03769531 17.31567383 -0.56230469 17.31567383 -7.36230469 17.31567383 Z " fill="#000000" transform="translate(348.3623046875,42.684326171875)"/>
<path d="M0 0 C14.68400112 13.40404531 23.67021641 32.38238416 24.71020508 52.22216797 C25.15642538 75.61484379 17.86253248 94.78472527 1.94848633 111.96435547 C-13.26164747 126.80944606 -33.59321364 133.79897672 -54.62182617 133.55419922 C-76.6584713 132.37565008 -94.61888559 123.1512691 -109.91870117 107.32763672 C-123.58823808 91.50084361 -129.43751697 71.24495965 -128.28198242 50.57373047 C-125.82924625 28.49910492 -115.70046535 10.22565086 -98.69604492 -4.00048828 C-68.8906222 -26.35455532 -27.85282646 -24.15004389 0 0 Z M-88.49291992 10.34716797 C-89.1812793 10.87052734 -89.86963867 11.39388672 -90.57885742 11.93310547 C-102.83177012 21.93260893 -109.44503242 36.50624936 -111.24291992 51.97216797 C-112.40639154 69.07950989 -106.43990142 83.94959205 -95.98120117 97.27294922 C-86.37776391 107.79560718 -71.68016955 115.333793 -57.49291992 116.34716797 C-56.65889648 116.41033203 -55.82487305 116.47349609 -54.96557617 116.53857422 C-39.38910603 117.18672264 -24.90758814 112.15569309 -13.18041992 101.90966797 C-11.6017139 100.40566412 -10.03745379 98.88624412 -8.49291992 97.34716797 C-7.92831055 96.80576172 -7.36370117 96.26435547 -6.78198242 95.70654297 C2.71616316 85.75610474 7.45713032 71.06296742 7.94458008 57.59716797 C7.50106993 40.14600798 1.04009152 25.52625716 -11.49291992 13.34716797 C-22.97693207 3.01155704 -37.63028232 -3.10141368 -53.20776367 -2.80126953 C-66.42741867 -1.9425569 -77.94687685 2.32901537 -88.49291992 10.34716797 Z " fill="#000000" transform="translate(402.492919921875,115.65283203125)"/>
<path d="M0 0 C1.80223902 1.63133281 3.531333 3.31451194 5.24765015 5.03604126 C5.88047409 5.66029495 6.51329803 6.28454865 7.16529846 6.92771912 C8.49559616 8.2465669 9.82073247 9.57063893 11.14096069 10.89956665 C13.15933935 12.92427327 15.20291859 14.92086064 17.24960327 16.91690063 C18.54223891 18.20499049 19.83330921 19.49465351 21.12265015 20.78604126 C21.73300613 21.37797775 22.34336212 21.96991425 22.97221375 22.57978821 C25.84595557 25.51732621 27.23576901 27.34835018 28.43002319 31.36538696 C28.27839905 38.02481574 23.69847392 41.68470514 19.22421265 46.10244751 C18.63390762 46.69229431 18.0436026 47.28214111 17.43540955 47.88986206 C16.19298137 49.12928114 14.94813567 50.36628102 13.70101929 51.60098267 C11.78821354 53.49545481 9.88360817 55.39788484 7.98007202 57.30166626 C6.77025777 58.50656766 5.55998711 59.71101101 4.34921265 60.91494751 C3.49292519 61.76956573 3.49292519 61.76956573 2.61933899 62.64144897 C-2.44636334 67.64625656 -2.44636334 67.64625656 -7.5218811 68.05557251 C-10.47656763 67.99647878 -11.53746504 67.80872215 -14.1468811 66.24307251 C-15.78812759 63.50766171 -16.44832952 61.36262275 -16.38711548 58.15908813 C-14.62124045 52.39553295 -8.9576476 48.2750463 -4.6468811 44.24307251 C-3.58516727 43.22152113 -2.52524965 42.19809942 -1.4671936 41.17276001 C1.11915203 38.67422368 3.72912765 36.20211266 6.3531189 33.74307251 C4.83328512 30.08425189 2.67250051 27.93398589 -0.2171936 25.25869751 C-1.11309204 24.40533813 -2.00899048 23.55197876 -2.93203735 22.67276001 C-4.82163907 20.88972455 -6.72271646 19.11877097 -8.63516235 17.36026001 C-16.2650561 10.02763485 -16.2650561 10.02763485 -16.3734436 5.25479126 C-15.56525217 1.34853268 -14.89862241 0.0012262 -11.6468811 -2.25692749 C-7.52368427 -4.18108601 -3.50852057 -2.67776219 0 0 Z " fill="#000000" transform="translate(210.64688110351563,263.2569274902344)"/>
<path d="M0 0 C1.46196855 2.43661425 1.89228696 4.60706718 1.85205078 7.43701172 C0.12834664 13.21703507 -5.56394899 17.3427601 -9.875 21.375 C-10.93671383 22.39655138 -11.99663146 23.41997309 -13.0546875 24.4453125 C-15.64103313 26.94384883 -18.25100875 29.41595985 -20.875 31.875 C-19.35516622 35.53382062 -17.19438161 37.68408662 -14.3046875 40.359375 C-13.40878906 41.21273437 -12.51289062 42.06609375 -11.58984375 42.9453125 C-9.70024203 44.72834796 -7.79916465 46.49930154 -5.88671875 48.2578125 C0.77783435 54.66270769 0.77783435 54.66270769 1.79394531 58.2109375 C1.85707359 61.44075637 1.2833246 63.61112567 -0.375 66.375 C-3.20254547 68.07152728 -5.45719244 68.63033225 -8.7644043 68.43823242 C-11.29775959 67.76218261 -12.46761779 66.82125066 -14.39453125 65.05078125 C-15.08724121 64.4163208 -15.77995117 63.78186035 -16.49365234 63.12817383 C-17.27949707 62.38462646 -18.0653418 61.6410791 -18.875 60.875 C-19.79361816 60.01092529 -20.71223633 59.14685059 -21.65869141 58.2565918 C-24.21615602 55.83299369 -26.73928508 53.37646708 -29.25024414 50.90478516 C-30.29816464 49.87864515 -31.35231274 48.85882929 -32.41235352 47.84521484 C-33.96547908 46.35911866 -35.49786967 44.85413217 -37.02734375 43.34375 C-37.93476318 42.46138672 -38.84218262 41.57902344 -39.77709961 40.66992188 C-42.34252803 37.2521371 -42.86332186 35.13183191 -42.875 30.875 C-40.94282673 26.20456576 -37.12891009 22.82262195 -33.59765625 19.296875 C-32.98989853 18.68483215 -32.38214081 18.07278931 -31.75596619 17.44219971 C-30.47502985 16.15554082 -29.19149233 14.87146691 -27.90551758 13.58984375 C-25.93874499 11.62624298 -23.9857002 9.64965903 -22.03320312 7.671875 C-20.78466511 6.421065 -19.53534258 5.1710375 -18.28515625 3.921875 C-17.41154198 3.03444611 -17.41154198 3.03444611 -16.52027893 2.12908936 C-10.8123408 -3.51427592 -7.07049137 -4.24229482 0 0 Z " fill="#000000" transform="translate(115.875,263.125)"/>
<path d="M0 0 C2.5 1.5 2.5 1.5 4 4 C4.5950081 11.23838916 2.85804685 17.72299559 1.078125 24.70703125 C0.77686707 25.90937912 0.47560913 27.11172699 0.16522217 28.35050964 C-0.472195 30.88066365 -1.11460888 33.40956348 -1.76171875 35.93725586 C-2.42240611 38.52794026 -3.07618696 41.11901655 -3.71679688 43.71459961 C-4.64466903 47.46617268 -5.59282207 51.21204123 -6.546875 54.95703125 C-6.97525665 56.7007476 -6.97525665 56.7007476 -7.41229248 58.47969055 C-7.69228088 59.55478378 -7.97226929 60.62987701 -8.26074219 61.73754883 C-8.50056824 62.68382645 -8.74039429 63.63010406 -8.98748779 64.60505676 C-10.18532003 67.43834627 -11.38130378 68.44382382 -14 70 C-17.91763474 70.84933097 -21.06329153 70.56202508 -24.5 68.5 C-28.07258865 62.54568559 -25.51679243 55.10338941 -23.96807861 48.78495789 C-23.67439392 47.63260147 -23.38070923 46.48024506 -23.078125 45.29296875 C-22.6262381 43.48944695 -22.6262381 43.48944695 -22.16522217 41.64949036 C-21.527805 39.11933635 -20.88539112 36.59043652 -20.23828125 34.06274414 C-19.57759389 31.47205974 -18.92381304 28.88098345 -18.28320312 26.28540039 C-17.35533097 22.53382732 -16.40717793 18.78795877 -15.453125 15.04296875 C-15.16753723 13.88049118 -14.88194946 12.71801361 -14.58770752 11.52030945 C-14.30771912 10.44521622 -14.02773071 9.37012299 -13.73925781 8.26245117 C-13.49943176 7.31617355 -13.25960571 6.36989594 -13.01251221 5.39494324 C-10.55729746 -0.41249287 -5.64669089 -1.00668465 0 0 Z " fill="#000000" transform="translate(167,261)"/>
</svg>
