<?xml version="1.0" encoding="UTF-8"?>
<svg version="1.1" xmlns="http://www.w3.org/2000/svg" width="512" height="512">
<path d="M0 0 C1.02051845 -0.00352835 1.02051845 -0.00352835 2.06165344 -0.00712797 C4.35203834 -0.01380963 6.64236641 -0.01336 8.93276024 -0.01294994 C10.58725616 -0.01624909 12.24175127 -0.01997476 13.89624536 -0.02409142 C18.45133571 -0.03411378 23.00641289 -0.0378286 27.56151271 -0.04048073 C32.47102402 -0.04438307 37.38052488 -0.05396144 42.29002953 -0.0626936 C54.15058047 -0.08245974 66.01113228 -0.09252429 77.87169558 -0.10142139 C83.45608073 -0.10580394 89.04046492 -0.11117082 94.62484932 -0.11641026 C113.18684314 -0.13342249 131.74883637 -0.14791698 150.31083679 -0.155159 C155.12820117 -0.15706891 159.94556555 -0.15898924 164.76292992 -0.16094494 C165.96027194 -0.16142868 167.15761397 -0.16191242 168.39123909 -0.16241082 C187.79030455 -0.17071231 207.18930837 -0.19605129 226.58834691 -0.22852562 C246.5016016 -0.26158919 266.41482495 -0.27960711 286.32810724 -0.28280324 C297.51002981 -0.28496895 308.69186248 -0.29372671 319.87375832 -0.31926441 C329.39615345 -0.34096176 338.91843686 -0.34902654 348.44085391 -0.33929763 C353.29879714 -0.33475019 358.15650979 -0.33666506 363.01442146 -0.35605907 C367.4645671 -0.37367165 371.91431361 -0.37270849 376.36446337 -0.35716178 C377.9715146 -0.35478282 379.57859332 -0.35912423 381.1856025 -0.37099043 C393.17323959 -0.45400109 402.54814483 0.80782058 411.50365257 9.27484608 C420.8332371 19.16545239 421.41155059 29.9967484 421.39127159 43.04469776 C421.39353715 44.12182976 421.3958027 45.19896176 421.39813691 46.30873412 C421.40445097 49.90657997 421.40364922 53.50438789 421.40282249 57.10223866 C421.40581559 59.68652361 421.40921847 62.27080812 421.41300011 64.85509205 C421.42128758 71.13959022 421.42405408 77.42407902 421.42461248 83.7085822 C421.42508852 88.81937785 421.42714764 93.93017041 421.43031311 99.04096508 C421.43911426 113.54708666 421.4437333 128.05320086 421.44298264 142.55932514 C421.4429227 143.73105561 421.4429227 143.73105561 421.44286156 144.92645741 C421.44282068 145.70857028 421.4427798 146.49068315 421.44273768 147.29649641 C421.44233129 159.96942775 421.45190033 172.64232936 421.46599992 185.3152521 C421.48037988 198.34347357 421.48726923 211.37168055 421.48640615 224.39991015 C421.48607475 231.70794919 421.48879665 239.01595705 421.4995842 246.32398891 C421.5096667 253.19814795 421.50933732 260.07224024 421.50206757 266.94640255 C421.50102302 269.46544205 421.50337688 271.98448566 421.50942802 274.5035181 C421.51716915 277.95002009 421.51248896 281.39629618 421.50479698 284.84279346 C421.50994054 285.8325056 421.51508411 286.82221774 421.52038354 287.84192115 C421.46201742 299.72868279 419.77992406 309.87847984 411.62474632 318.95062733 C401.85085438 328.01988985 390.95925126 328.25292848 378.25755882 328.13422108 C378.25755882 337.04422108 378.25755882 345.95422108 378.25755882 355.13422108 C381.23142601 355.08781483 384.2052932 355.04140858 387.26927757 354.99359608 C390.15524655 354.96238508 393.04119659 354.93810607 395.92723656 354.91449451 C397.9302521 354.89440116 399.93320915 354.86712142 401.93602562 354.83246326 C404.81808991 354.78384496 407.69937749 354.76122956 410.58177757 354.74359608 C411.47466988 354.72295094 412.36756218 354.70230579 413.28751183 354.68103504 C417.42406687 354.67954812 419.69434569 354.80291396 423.3271389 356.93988514 C425.25755882 359.13422108 425.25755882 359.13422108 425.82005882 362.63422108 C425.15917879 366.74636351 424.55512882 367.68245085 421.25755882 370.13422108 C418.59532359 370.52644463 416.3466003 370.67234565 413.6862545 370.63758564 C412.91631586 370.6433994 412.14637721 370.64921317 411.35310709 370.6552031 C408.75771134 370.66987046 406.16325136 370.65588696 403.56786156 370.64215565 C401.6945958 370.64676191 399.82133365 370.65311297 397.94807911 370.66106462 C392.78842672 370.67781883 387.62906888 370.66948397 382.46941519 370.65711975 C376.90969084 370.64809644 371.35001834 370.66202544 365.79030418 370.67303944 C354.89407142 370.69085837 343.99794865 370.68696966 333.10171151 370.67538887 C324.24885608 370.66636808 315.39603154 370.66512468 306.54317284 370.66948414 C305.28485568 370.67009707 304.02653853 370.67071 302.73009056 370.67134151 C300.17412161 370.67262037 297.61815267 370.67391722 295.06218374 370.67523187 C271.75952101 370.68632191 248.4569228 370.67480652 225.15427373 370.65386149 C203.87258918 370.63487843 182.59100035 370.63657692 161.30931664 370.65570545 C137.41026213 370.67711464 113.51126045 370.68554883 89.61219311 370.6732564 C87.06544368 370.67198215 84.51869425 370.67072467 81.97194481 370.66948414 C80.71878155 370.66886704 79.46561828 370.66824993 78.17448038 370.66761413 C69.3286962 370.6641554 60.48294591 370.67000084 51.63716698 370.67940235 C40.86221009 370.69060212 30.0873698 370.68762492 19.31242633 370.66627938 C13.81121382 370.65574172 8.31019598 370.65169328 2.80898476 370.66487598 C-2.2218848 370.67674957 -7.25237831 370.67032084 -12.2832135 370.64896578 C-14.10818288 370.64447827 -15.9331837 370.64681375 -17.75813305 370.65646893 C-20.2295928 370.6685468 -22.69974655 370.65624697 -25.17113686 370.63758564 C-25.88785824 370.6469503 -26.60457963 370.65631497 -27.34301984 370.66596341 C-30.68246993 370.61519722 -32.46947195 370.33717593 -35.18049145 368.32151079 C-37.48422493 365.09545784 -37.36272007 362.99373421 -36.74244118 359.13422108 C-34.61581828 356.71685841 -32.89741004 355.32561466 -29.66733742 354.79034901 C-27.12402856 354.67095011 -24.61209818 354.68474135 -22.06665993 354.74359608 C-21.14150078 354.74925587 -20.21634163 354.75491566 -19.26314735 354.76074696 C-16.31821132 354.78307628 -13.37450732 354.83326621 -10.42994118 354.88422108 C-8.42930775 354.90429053 -6.42865519 354.92254052 -4.42798805 354.93890858 C0.46804676 354.97952272 5.36142947 355.05781854 10.25755882 355.13422108 C10.25755882 346.22422108 10.25755882 337.31422108 10.25755882 328.13422108 C7.10193382 328.22703358 7.10193382 328.22703358 3.88255882 328.32172108 C-6.53669388 328.29024297 -14.70855991 325.95224675 -22.74244118 319.13422108 C-32.01218036 309.35849177 -32.8961025 298.21685875 -32.87615395 285.34399891 C-32.8784195 284.26772134 -32.88068506 283.19144376 -32.88301927 282.08255172 C-32.88934166 278.48159982 -32.88853103 274.88068572 -32.88770485 271.27972889 C-32.89069745 268.69559143 -32.89410021 266.11145442 -32.89788246 263.527318 C-32.9061753 257.23934061 -32.90893669 250.95137259 -32.90949484 244.66339019 C-32.90997068 239.54971021 -32.91202882 234.43603332 -32.91519547 229.32235432 C-32.92399856 214.81032458 -32.92861542 200.29830224 -32.92786499 185.78626981 C-32.92782503 185.00455076 -32.92778508 184.22283171 -32.92774391 183.4174242 C-32.92768259 182.24340664 -32.92768259 182.24340664 -32.92762003 181.04567155 C-32.92721373 168.36621012 -32.93678017 155.6867784 -32.95088228 143.00732556 C-32.96526239 129.9746157 -32.97215155 116.94192033 -32.9712885 103.90920234 C-32.97095708 96.59779495 -32.97367998 89.28641872 -32.98446655 81.9750185 C-32.99454939 75.09676885 -32.99421949 68.21858591 -32.98694992 61.34033298 C-32.98590537 58.81968178 -32.98825928 56.29902646 -32.99431038 53.7783823 C-33.00205149 50.32963732 -32.99737131 46.88111809 -32.98967934 43.43237782 C-32.9948229 42.44198356 -32.99996646 41.4515893 -33.00526589 40.4311831 C-32.94643238 28.441343 -31.4064139 17.84262733 -22.99244118 8.88422108 C-16.13603498 2.37319355 -9.34405109 0.01376374 0 0 Z M-14.06043422 21.83296537 C-17.05078443 26.64435609 -17.86514941 31.28476129 -17.87386894 36.84730625 C-17.87771009 37.77132764 -17.88155123 38.69534902 -17.88550878 39.64737105 C-17.88464229 40.65387812 -17.88377581 41.66038518 -17.88288307 42.69739246 C-17.88585419 43.77337232 -17.88882532 44.84935217 -17.89188647 45.95793748 C-17.90057035 49.56976642 -17.90208146 53.18156221 -17.90357399 56.79340076 C-17.90820236 59.38048848 -17.91322704 61.96757551 -17.91861916 64.55466175 C-17.93218742 71.58780179 -17.93822478 78.62093612 -17.94262981 85.65408707 C-17.94539466 90.04746273 -17.94963244 94.44083621 -17.95413399 98.8342104 C-17.96632444 111.00365403 -17.97662436 123.1730959 -17.98000908 135.34254551 C-17.98022865 136.12105522 -17.98044821 136.89956492 -17.98067443 137.70166583 C-17.98089271 138.48201247 -17.98111099 139.2623591 -17.98133588 140.06635261 C-17.98177934 141.64756918 -17.9822259 143.22878575 -17.98267555 144.81000233 C-17.98289698 145.59433633 -17.98311841 146.37867032 -17.98334655 147.18677202 C-17.98729393 159.89359158 -18.00474712 172.60035377 -18.02803507 185.30715117 C-18.05176396 198.36012844 -18.06421162 211.41307695 -18.065377 224.46607614 C-18.06629287 231.7920003 -18.07202303 239.1178497 -18.09019661 246.44375324 C-18.10723231 253.33512445 -18.10883873 260.22635166 -18.1000576 267.11773777 C-18.09928658 269.64568048 -18.10363845 272.17363077 -18.11351585 274.7015543 C-18.12621933 278.15557696 -18.1203667 281.60909586 -18.10993385 285.06311512 C-18.11799026 286.0606993 -18.12604666 287.05828348 -18.1343472 288.08609748 C-18.08624622 294.90690781 -17.37580887 301.6719483 -13.12915993 307.25531483 C-7.29846785 311.7724257 -2.98525818 313.22351856 4.46459007 313.17328358 C5.54844994 313.16764393 6.6323098 313.16200428 7.7490139 313.15619373 C8.99074364 313.14531727 8.99074364 313.14531727 10.25755882 313.13422108 C10.26635818 312.20793903 10.26635818 312.20793903 10.27533531 311.26294422 C10.33924226 304.83887424 10.42365504 298.41530649 10.52000999 291.99164295 C10.55327559 289.59392383 10.58130237 287.19612608 10.60399437 284.79828358 C10.63750962 281.35263008 10.68982537 277.90769813 10.74584007 274.46234608 C10.75542496 272.85278034 10.75542496 272.85278034 10.76520348 271.21069813 C10.79489471 269.70959492 10.79489471 269.70959492 10.82518578 268.17816639 C10.83628883 267.29880421 10.84739189 266.41944202 10.85883141 265.5134325 C11.36185365 262.51189254 12.00421476 261.19585904 14.25755882 259.13422108 C17.1417141 258.63301563 17.1417141 258.63301563 20.7009182 258.63251209 C21.67458084 258.62440762 21.67458084 258.62440762 22.66791344 258.61613941 C24.81284291 258.6036353 26.95643437 258.62015194 29.10130882 258.63812733 C30.59199151 258.63797238 32.0826746 258.63648403 33.57335472 258.63371754 C36.69727453 258.63233281 39.82073563 258.64490319 42.94457054 258.66766834 C46.94976748 258.69605379 50.95420214 258.69331694 54.95945549 258.68057823 C58.03755268 258.67362468 61.11547353 258.68140651 64.1935482 258.69383526 C65.67033779 258.69835295 67.14714629 258.69868377 68.62393761 258.69476986 C70.6877532 258.69186065 72.75051677 258.7083483 74.81419945 258.73016834 C75.9887368 258.73557133 77.16327415 258.74097431 78.37340355 258.74654102 C81.25755882 259.13422108 81.25755882 259.13422108 83.13324547 260.34558582 C84.6265073 262.72116977 84.65534817 264.3551586 84.68993187 267.15643787 C84.70972603 268.17726963 84.72952019 269.19810139 84.74991417 270.24986744 C84.75630409 271.34994633 84.76269402 272.45002522 84.76927757 273.58343983 C84.78722878 274.71119328 84.80517998 275.83894672 84.82367516 277.00087452 C84.87791735 280.60778517 84.91171917 284.21456246 84.94505882 287.82172108 C84.97821953 290.26509907 85.01270801 292.70845943 85.04857445 295.1517992 C85.13615479 301.14596052 85.19610717 307.13950662 85.25755882 313.13422108 C92.84755882 313.13422108 100.43755882 313.13422108 108.25755882 313.13422108 C108.26635818 310.43814938 108.26635818 310.43814938 108.27533531 307.68761158 C108.33245624 290.77960445 108.40498319 273.87172598 108.49327374 256.96385193 C108.53827134 248.27057258 108.57767676 239.57733456 108.60399437 230.88397694 C108.62694244 223.30831743 108.66030448 215.73278829 108.70626038 208.15723211 C108.73023588 204.14467631 108.74893619 200.13224997 108.75517273 196.11962414 C108.76120416 192.34471545 108.78113288 188.57013818 108.81183434 184.79535198 C108.82064589 183.40822364 108.82433072 182.02105204 108.82256699 180.63389683 C108.82092164 178.74315379 108.83933322 176.85242471 108.85883141 174.9617815 C108.86344037 173.90264136 108.86804934 172.84350122 108.87279797 171.75226593 C109.25755882 169.13422108 109.25755882 169.13422108 110.60221958 167.29464912 C113.21233132 165.46490523 115.55143658 165.73687497 118.7009182 165.7142992 C119.35002663 165.70582966 119.99913506 165.69736012 120.66791344 165.68863392 C122.81257806 165.66524304 124.95652632 165.66424204 127.10130882 165.66547108 C128.59199372 165.65837146 130.08267587 165.65067275 131.57335472 165.64239979 C134.69717063 165.6289508 137.82073378 165.6273883 140.94457054 165.63324451 C144.95001359 165.63914579 148.95424665 165.60853545 152.95945549 165.56812763 C156.03755299 165.54229482 159.11535724 165.53936901 162.1935482 165.54301929 C163.67037565 165.54132432 165.1472161 165.53164546 166.62393761 165.51387501 C168.68818577 165.49176553 170.74996064 165.50134021 172.81419945 165.5189867 C173.9887368 165.51693226 175.16327415 165.51487782 176.37340355 165.51276112 C179.25755882 166.13422108 179.25755882 166.13422108 180.91289806 168.29855347 C182.43275001 171.50367037 182.64066533 173.59291198 182.65628624 177.1263628 C182.66882439 178.328046 182.68136253 179.52972919 182.69428062 180.76782703 C182.69284554 182.07765553 182.69141045 183.38748402 182.68993187 184.73700428 C182.6989525 186.13674757 182.70928047 187.53648295 182.72081566 188.93620777 C182.74837668 192.72920007 182.75766891 196.52204244 182.76366973 200.31512189 C182.77305577 204.28167132 182.79925934 208.24810886 182.82367516 212.21458912 C182.86733756 219.72258547 182.89588609 227.23056011 182.91899854 234.73864478 C182.94605162 243.28763463 182.98996305 251.83651192 183.03528726 260.3854214 C183.12812983 277.96829876 183.19921434 295.5511966 183.25755882 313.13422108 C190.51755882 313.13422108 197.77755882 313.13422108 205.25755882 313.13422108 C205.27737816 311.03466053 205.29719749 308.93509998 205.31761742 306.77191639 C205.38452569 299.83479291 205.46216519 292.89781943 205.54508591 285.96086979 C205.59503078 281.75501523 205.64136096 277.54918557 205.67943382 273.34320545 C205.71630953 269.28416444 205.76267563 265.22533261 205.81562233 261.16647053 C205.83415414 259.61796965 205.84926661 258.06942395 205.86090279 256.5208559 C205.87778619 254.35172068 205.90682552 252.18306327 205.93871117 250.01410389 C205.95203484 248.77944386 205.96535851 247.54478382 205.97908592 246.27270985 C206.24338187 243.29400037 206.59597948 241.58884883 208.25755882 239.13422108 C211.05247518 237.7367629 213.36883107 237.99150905 216.49559593 237.97308826 C217.80713142 237.96348072 219.11866692 237.95387318 220.46994591 237.94397449 C221.90826303 237.93912728 223.34658217 237.93484827 224.78490257 237.93109608 C226.25459356 237.92534526 227.72428452 237.91958752 229.19397545 237.91382313 C232.27661553 237.90331356 235.35922952 237.89747041 238.44188499 237.8939867 C242.3943388 237.88849761 246.34644886 237.86446092 250.29879475 237.83601475 C253.33480403 237.81740444 256.37073018 237.81218367 259.40679169 237.81065083 C260.8640697 237.80762083 262.32134612 237.7995806 263.77856827 237.78646564 C265.81568547 237.76943831 267.85294413 237.77312539 269.89012718 237.77777576 C271.04991585 237.77413013 272.20970451 237.7704845 273.40463829 237.7667284 C276.25755882 238.13422108 276.25755882 238.13422108 278.12849998 239.22212696 C279.86095526 242.15609056 279.66037737 244.69722663 279.68993187 248.08417225 C279.70012352 248.78686741 279.71031517 249.48956257 279.72081566 250.21355152 C279.75099583 252.53484486 279.76021888 254.8557259 279.76927757 257.17718983 C279.78612061 258.78717393 279.80427034 260.39714484 279.82367516 262.00710011 C279.87122237 266.2435847 279.901001 270.48001587 279.92711449 274.71667957 C279.95689632 279.04021223 280.00343476 283.36356069 280.04857445 287.68695545 C280.13466137 296.16930229 280.20043381 304.65162969 280.25755882 313.13422108 C287.84755882 313.13422108 295.43755882 313.13422108 303.25755882 313.13422108 C303.26786629 311.12386265 303.27817375 309.11350422 303.28879356 307.04222584 C303.38621201 288.13287924 303.48904417 269.22356765 303.59689808 250.31427765 C303.65222109 240.59191757 303.70570159 230.86955382 303.75487328 221.14716053 C303.79772639 212.67501497 303.84400725 204.20289632 303.89443737 195.73079234 C303.92102921 191.24318844 303.94588209 186.75558985 303.96663284 182.26795483 C303.98620612 178.04666308 304.01035202 173.82542254 304.0380497 169.60417652 C304.04741646 168.05255341 304.05509309 166.50091906 304.06097794 164.94927883 C304.06924548 162.83518529 304.08352395 160.72121579 304.09934044 158.60716724 C304.10901927 156.83041127 304.10901927 156.83041127 304.11889362 155.01776123 C304.25755882 152.13422108 304.25755882 152.13422108 305.25755882 149.13422108 C314.20215951 149.04159784 323.14659548 148.97049553 332.09157085 148.92697239 C336.2449727 148.90608484 340.3980468 148.87774657 344.55125999 148.83246326 C348.55832903 148.78904612 352.56508255 148.76509277 356.57236862 148.7547121 C358.10224628 148.7473132 359.6321064 148.73286488 361.16184998 148.71130085 C363.30261421 148.68231995 365.44206989 148.67826257 367.58299828 148.68011951 C368.80211403 148.67123707 370.02122978 148.66235462 371.27728844 148.65320301 C374.25755882 149.13422108 374.25755882 149.13422108 375.91890526 150.75458241 C377.67834719 153.8822296 377.642241 156.10511383 377.65628624 159.68945789 C377.66293307 160.34624397 377.66957989 161.00303005 377.67642814 161.67971873 C377.69506786 163.87857794 377.69245233 166.07689348 377.68993187 168.27582264 C377.69894848 169.85275511 377.70927545 171.42968055 377.72081566 173.00659657 C377.74842383 177.28723336 377.75767534 181.56773731 377.76366973 185.84845161 C377.77304348 190.32215941 377.79924604 194.79576759 377.82367516 199.26941395 C377.86737138 207.74076039 377.89589915 216.21208754 377.91899854 224.68351245 C377.94603348 234.32797711 377.98994603 243.97234171 378.03528726 253.61673498 C378.12817826 273.45584321 378.19983859 293.2949814 378.25755882 313.13422108 C380.16632328 313.16307318 382.07521484 313.18359119 383.98412132 313.20062733 C385.04711449 313.21295399 386.11010765 313.22528065 387.20531273 313.23798084 C393.30598949 313.03059102 397.45646794 311.35143368 401.63255882 306.88422108 C406.87860214 300.72964511 406.54709418 292.9664569 406.51825523 285.33054066 C406.52208078 284.25285195 406.52590633 283.17516325 406.5298478 282.06481731 C406.54015399 278.45915857 406.53619011 274.85365979 406.53221703 271.24799061 C406.53656481 268.66060711 406.54174818 266.0732249 406.5477047 263.48584461 C406.56043926 257.19050801 406.56224693 250.89521408 406.55990443 244.59986676 C406.55811968 239.48139877 406.55987429 234.36294372 406.56412888 229.24447727 C406.56502166 228.15075462 406.56502166 228.15075462 406.56593248 227.03493657 C406.56714426 225.55355089 406.5683584 224.07216521 406.56957486 222.59077953 C406.58044566 208.70525154 406.57829011 194.81974786 406.57219001 180.93421851 C406.56702158 168.24045502 406.57827515 155.54676828 406.59728823 142.85301997 C406.61667567 129.8090145 406.62492102 116.76504532 406.62116498 103.72102535 C406.61925427 96.401844 406.62172778 89.08272797 406.63587952 81.76355839 C406.64905395 74.88035932 406.64652098 67.99731626 406.63346863 61.11411762 C406.6311016 58.58940167 406.633842 56.06467493 406.64209175 53.53997135 C406.65254984 50.0904255 406.64446541 46.64139616 406.63178062 43.19186878 C406.63915491 42.19564884 406.64652919 41.1994289 406.65412694 40.17302048 C406.59733619 32.81884186 405.40420389 26.53924429 401.44505882 20.25922108 C396.90147977 15.84545857 392.54111137 14.75923248 386.32590485 14.75111103 C385.31115632 14.74367176 385.31115632 14.74367176 384.27590781 14.7360822 C382.0104951 14.72313533 379.74567269 14.73150753 377.48024559 14.7398119 C375.83909401 14.73492255 374.19794587 14.72873254 372.55680358 14.72135401 C368.04792651 14.70493689 363.53922409 14.70727602 359.03032756 14.71272898 C354.167227 14.71539698 349.30417323 14.7008717 344.44109154 14.68863392 C334.91409322 14.66756814 325.38715574 14.66303972 315.86013688 14.6648218 C308.11720534 14.66612884 300.37429279 14.6623283 292.63136482 14.65489674 C290.40200134 14.65279757 288.17263786 14.65069997 285.94327438 14.64860392 C284.27890942 14.64703862 284.27890942 14.64703862 282.58092092 14.64544171 C261.59067334 14.62653476 240.6004607 14.62759096 219.61020814 14.63441104 C200.40388916 14.63998704 181.19770356 14.61915942 161.99141575 14.58605057 C142.2747193 14.5523254 122.55808677 14.53714376 102.84136093 14.5417676 C91.77018632 14.54401345 80.69913499 14.53875218 69.627985 14.51387501 C60.20290023 14.49287709 50.77800632 14.48925495 41.35291375 14.5081746 C36.54377032 14.51734165 31.73498292 14.51844576 26.92586708 14.49781895 C22.5226905 14.47914204 18.12016236 14.48357536 13.71701072 14.50636476 C12.12486353 14.51055884 10.53266694 14.50632334 8.94057192 14.49276882 C-4.06265866 14.32467238 -4.06265866 14.32467238 -14.06043422 21.83296537 Z M318.25755882 163.13422108 C318.25755882 226.49422108 318.25755882 289.85422108 318.25755882 355.13422108 C333.10755882 355.13422108 347.95755882 355.13422108 363.25755882 355.13422108 C363.25755882 291.77422108 363.25755882 228.41422108 363.25755882 163.13422108 C348.40755882 163.13422108 333.55755882 163.13422108 318.25755882 163.13422108 Z M123.25755882 180.13422108 C123.25755882 237.88422108 123.25755882 295.63422108 123.25755882 355.13422108 C138.10755882 355.13422108 152.95755882 355.13422108 168.25755882 355.13422108 C168.25755882 297.38422108 168.25755882 239.63422108 168.25755882 180.13422108 C153.40755882 180.13422108 138.55755882 180.13422108 123.25755882 180.13422108 Z M220.25755882 252.13422108 C220.25755882 286.12422108 220.25755882 320.11422108 220.25755882 355.13422108 C235.10755882 355.13422108 249.95755882 355.13422108 265.25755882 355.13422108 C265.25755882 321.14422108 265.25755882 287.15422108 265.25755882 252.13422108 C250.40755882 252.13422108 235.55755882 252.13422108 220.25755882 252.13422108 Z M25.25755882 273.13422108 C25.25755882 300.19422108 25.25755882 327.25422108 25.25755882 355.13422108 C40.10755882 355.13422108 54.95755882 355.13422108 70.25755882 355.13422108 C70.25755882 328.07422108 70.25755882 301.01422108 70.25755882 273.13422108 C55.40755882 273.13422108 40.55755882 273.13422108 25.25755882 273.13422108 Z M85.25755882 328.13422108 C85.25755882 337.04422108 85.25755882 345.95422108 85.25755882 355.13422108 C92.84755882 355.13422108 100.43755882 355.13422108 108.25755882 355.13422108 C108.25755882 346.22422108 108.25755882 337.31422108 108.25755882 328.13422108 C100.66755882 328.13422108 93.07755882 328.13422108 85.25755882 328.13422108 Z M183.25755882 328.13422108 C183.25755882 337.04422108 183.25755882 345.95422108 183.25755882 355.13422108 C190.51755882 355.13422108 197.77755882 355.13422108 205.25755882 355.13422108 C205.25755882 346.22422108 205.25755882 337.31422108 205.25755882 328.13422108 C197.99755882 328.13422108 190.73755882 328.13422108 183.25755882 328.13422108 Z M280.25755882 328.13422108 C280.25755882 337.04422108 280.25755882 345.95422108 280.25755882 355.13422108 C287.84755882 355.13422108 295.43755882 355.13422108 303.25755882 355.13422108 C303.25755882 346.22422108 303.25755882 337.31422108 303.25755882 328.13422108 C295.66755882 328.13422108 288.07755882 328.13422108 280.25755882 328.13422108 Z " fill="#000000" transform="translate(61.742441177368164,70.86577892303467)"/>
<path d="M0 0 C6.40688 5.38450553 10.1187417 12.99695648 11.25 21.25 C11.50706861 26.57132023 10.6532507 31.99554637 8.42608643 36.86325073 C7.98856697 39.27577022 7.98856697 39.27577022 10.0836792 41.50418091 C11.45909882 42.86747025 11.45909882 42.86747025 12.86230469 44.25830078 C13.36452545 44.76285797 13.86674622 45.26741516 14.38418579 45.78726196 C16.05167813 47.45637252 17.73633325 49.1069467 19.421875 50.7578125 C20.58298625 51.91213604 21.7430687 53.06749527 22.90216064 54.22384644 C25.9609238 57.26917511 29.03484549 60.29876659 32.11169434 63.32580566 C34.61936212 65.79813364 37.1158946 68.28153767 39.6119194 70.76561165 C42.58636353 73.72525631 45.56598745 76.67965924 48.546875 79.6328125 C49.11618492 80.19721165 49.68549484 80.76161079 50.27205658 81.34311295 C51.88530999 82.94007297 53.50205133 84.53340619 55.12011719 86.12548828 C56.04024597 87.03275665 56.96037476 87.94002502 57.90838623 88.87478638 C60.2447096 91.17648115 60.2447096 91.17648115 63.25 93.0625 C66.09120234 92.70734971 68.53047752 91.96900749 71.25 91.0625 C73.62267068 90.94016806 75.99920807 90.88699895 78.375 90.875 C79.63570312 90.86082031 80.89640625 90.84664063 82.1953125 90.83203125 C84.51946565 90.83763484 86.03271156 90.96513887 88.1660614 91.92103577 C90.78441917 93.03059173 92.39876941 93.33876918 95.25 93.0625 C100.11723227 89.93351739 103.98551332 85.85156025 108.01171875 81.7265625 C109.21266366 80.53048996 110.41531245 79.33612601 111.61958313 78.1434021 C114.13457126 75.64010709 116.62888624 73.11829874 119.11010742 70.58154297 C122.29077877 67.33255657 125.51624623 64.13285424 128.7583952 60.94535255 C131.24839118 58.48761974 133.71380088 56.00635604 136.17237282 53.51722336 C137.35290568 52.32751188 138.54076652 51.14502551 139.73596764 49.97005081 C141.40382257 48.32291731 143.03605369 46.6470479 144.6628418 44.95947266 C145.16083282 44.48015289 145.65882385 44.00083313 146.17190552 43.50698853 C147.73703068 41.94349004 147.73703068 41.94349004 149.25 39.0625 C149.08255158 36.86872749 148.6009064 35.0448868 147.8850069 32.9675808 C145.57335401 26.0324034 146.25953053 17.13040143 149.3125 10.5625 C153.50850048 3.46701605 159.22146818 -2.47842982 167.25 -4.9375 C177.29028933 -6.80396404 185.94465291 -6.11849169 194.5 -0.3125 C201.3284007 5.25803741 205.53378895 12.56064657 206.5 21.33203125 C206.91263829 29.52032229 204.52434995 36.51718979 200.125 43.375 C193.01448348 50.02178718 186.0535352 53.2412806 176.375 53.25 C175.66730469 53.26224609 174.95960938 53.27449219 174.23046875 53.28710938 C170.04018704 53.29881407 167.07906488 52.6434902 163.25 51.0625 C159.18834592 51.42341849 157.24985578 53.70546268 154.46899414 56.51879883 C154.00827011 56.98069107 153.54754608 57.44258331 153.07286072 57.91847229 C151.55320888 59.44530438 150.04435646 60.98237346 148.53515625 62.51953125 C147.47741067 63.58541746 146.41892252 64.65056725 145.35972595 65.7150116 C142.57191045 68.51994538 139.79277618 71.33331813 137.01580811 74.14898682 C132.5769934 78.64697088 128.12554957 83.13244601 123.67336845 87.61719322 C122.12352886 89.1809267 120.57761082 90.74845441 119.03224182 92.31660461 C118.07504942 93.28382944 117.11777328 94.25097141 116.16040039 95.21801758 C115.33085342 96.05883377 114.50130646 96.89964996 113.6466217 97.76594543 C111.28596078 100.02804071 108.83442778 102.06243517 106.25 104.0625 C106.58 105.25875 106.91 106.455 107.25 107.6875 C109.14512459 116.3940869 109.85870892 125.97207903 105.5703125 134.0390625 C100.6770679 141.53817701 94.68345011 147.50408662 85.734375 149.671875 C76.67706341 151.0959806 68.75495897 149.58604759 60.94921875 144.58984375 C54.77341463 139.67013538 50.76201861 132.83641388 49.25 125.0625 C49.10973388 123.52496757 49.03016852 121.9811225 49 120.4375 C48.96132813 119.27347656 48.96132813 119.27347656 48.921875 118.0859375 C49.41209081 113.568949 50.85345333 109.37325831 52.25 105.0625 C48.69700628 101.48455548 45.14056349 97.91008614 41.58105469 94.33862305 C40.37374935 93.12632752 39.16734766 91.9131313 37.96191406 90.69897461 C32.19555381 84.89197251 26.46654704 79.14160449 20.22607422 73.84008789 C17.71695058 71.58299261 15.39389553 69.17880701 13.05078125 66.75 C12.15166016 65.82058594 11.25253906 64.89117187 10.32617188 63.93359375 C8.93229907 62.48554214 7.53863766 61.03718805 6.15991211 59.57470703 C4.80423879 58.14057106 3.42777683 56.72617581 2.05078125 55.3125 C1.24809814 54.47203125 0.44541504 53.6315625 -0.3815918 52.765625 C-2.61912756 50.77582189 -2.61912756 50.77582189 -5.36254883 51.234375 C-6.15040771 51.50765625 -6.9382666 51.7809375 -7.75 52.0625 C-11.41351581 53.28367194 -14.81052972 53.24656354 -18.625 53.25 C-19.33269531 53.26224609 -20.04039062 53.27449219 -20.76953125 53.28710938 C-24.95981296 53.29881407 -27.92093512 52.6434902 -31.75 51.0625 C-34.96399469 51.50785014 -36.58315694 52.52743374 -38.83105469 54.81884766 C-39.40555359 55.39680084 -39.98005249 55.97475403 -40.57196045 56.57022095 C-41.18243225 57.19931366 -41.79290405 57.82840637 -42.421875 58.4765625 C-43.06312317 59.12442719 -43.70437134 59.77229187 -44.36505127 60.43978882 C-46.41724895 62.51538695 -48.45906238 64.60083383 -50.5 66.6875 C-52.52827424 68.75106118 -54.5587334 70.81239959 -56.59210205 72.87094116 C-57.85549344 74.15103865 -59.11577057 75.4342206 -60.37225342 76.72109985 C-64.08782108 80.49842581 -67.94310061 84.03484165 -71.9541626 87.49621582 C-74.06293417 89.33543331 -76.06110854 91.25953444 -78.03125 93.24609375 C-78.72734375 93.94541016 -79.4234375 94.64472656 -80.140625 95.36523438 C-80.83671875 96.06970703 -81.5328125 96.77417969 -82.25 97.5 C-82.97703125 98.23154297 -83.7040625 98.96308594 -84.453125 99.71679688 C-86.22109499 101.49639824 -87.98666378 103.27830918 -89.75 105.0625 C-89.53851318 105.64330322 -89.32702637 106.22410645 -89.10913086 106.82250977 C-85.85260136 116.0969758 -85.22734892 124.61546473 -89.43359375 133.74609375 C-94.1546374 142.0534495 -100.62434978 146.94112322 -109.796875 149.671875 C-117.65901019 151.24430204 -124.64525605 149.63582992 -131.75 146.0625 C-138.79795726 141.19493085 -143.37048254 135.34039761 -145.75 127.0625 C-146.78227204 117.60400739 -145.61356163 109.70623433 -140.20703125 101.80859375 C-135.62002122 96.10894513 -130.59487512 93.34412504 -123.75 91.0625 C-121.35726565 90.91490547 -118.95960854 90.84135186 -116.5625 90.8125 C-115.29019531 90.78671875 -114.01789063 90.7609375 -112.70703125 90.734375 C-109.40817821 91.00792254 -107.48244535 91.40824076 -104.50268555 92.58300781 C-103.79589157 92.8584845 -103.0890976 93.13396118 -102.36088562 93.41778564 C-101.56349724 93.73691925 -101.56349724 93.73691925 -100.75 94.0625 C-93.48005857 87.1638353 -86.25433493 80.22211527 -79.08123493 73.22272968 C-75.74866246 69.97355068 -72.40294536 66.74085117 -69.0222168 63.54174805 C-65.75778831 60.45162188 -62.53446145 57.32359276 -59.33537865 54.16591454 C-58.11038797 52.97041235 -56.87142841 51.78904797 -55.61858559 50.62276649 C-51.77366997 47.0332074 -48.36633304 43.65486347 -45.75 39.0625 C-45.6776986 34.22139381 -47.07370886 30.53851831 -48.75 26.0625 C-49.32653148 17.8861489 -46.25234695 10.77818558 -41.75 4.0625 C-30.59495092 -7.98665607 -13.30710754 -9.16960351 0 0 Z M-28.75 13.0625 C-31.92224234 16.90258284 -33.64969751 20.04737557 -33.75 25.0625 C-32.53934227 30.59081319 -30.6182145 33.94184968 -25.75 37.0625 C-22.03763586 38.91868207 -17.80156912 38.51059981 -13.75 38.0625 C-9.3000055 35.87795725 -6.75669315 33.60396346 -4.75 29.0625 C-3.51795479 24.70927361 -3.51353068 21.92953642 -5.375 17.875 C-7.75157278 13.71801168 -10.0499692 10.84047498 -14.82421875 9.46484375 C-20.49403575 8.47334774 -24.3699514 9.27404238 -28.75 13.0625 Z M163.75 15.75 C161.54637076 20.6163479 161.14786799 25.00364164 162.98046875 30.08984375 C165.02571794 34.03842688 167.08815083 36.52442531 171.25 38.0625 C176.21423402 38.72772399 180.04603876 38.61988947 184.625 36.5 C188.33573755 33.05431514 190.94025645 30.02868824 191.48046875 24.85546875 C191.23588427 19.53802108 189.5469973 16.23550795 185.86328125 12.4375 C183.03351734 10.02569154 180.54298356 9.27217301 176.9375 8.6875 C171.51415791 9.44424541 167.45801265 11.7638864 163.75 15.75 Z M-129.125 112.8125 C-131.41700114 117.39650228 -131.68199638 121.19078615 -130.125 125.98828125 C-128.05026858 130.31372576 -125.27551775 132.57517107 -120.90234375 134.47265625 C-116.27001722 135.74213231 -112.41490118 134.74359594 -108 132.9375 C-103.77914459 129.42012049 -101.96637171 125.82438395 -101.3125 120.5 C-101.96980239 115.33548119 -103.4377805 112.24669809 -107.3125 108.75 C-115.33010284 103.19935188 -123.00301497 105.72388576 -129.125 112.8125 Z M66.4375 111.75 C64.56434757 115.3977179 64.14340951 118.98363713 64.25 123.0625 C65.93855577 128.22749412 68.74285529 131.08608368 73.25 134.0625 C77.65784206 135.63216632 81.21627975 135.40179253 85.5 133.5625 C89.56218226 131.22754484 91.80285572 128.52151333 93.25 124.0625 C94.0553656 119.72527069 93.58663083 116.67772187 91.4375 112.75 C87.35883502 107.62800128 87.35883502 107.62800128 81.19921875 105.82421875 C74.63842519 105.60892501 71.2944501 107.22801197 66.4375 111.75 Z " fill="#000000" transform="translate(225.75,135.9375)"/>
</svg>
