<?xml version="1.0" encoding="UTF-8"?>
<svg id="Layer_1" data-name="Layer 1" xmlns="http://www.w3.org/2000/svg" viewBox="0 0 2834.65 2834.65">
  <defs>
    <style>
      .cls-1 {
        fill: #fff;
        stroke-width: 0px;
      }
    </style>
  </defs>
  <path class="cls-1" d="M0,1328.37c7.2-52.8,13.12-105.81,21.81-158.36C114.04,612.19,563.72,145.05,1116.38,32.18c389.28-79.5,750.78-11.8,1084.46,204,5.21,3.37,10.84,6.11,19.79,11.11-4.52-47.17-8.69-90.67-13.15-137.28,55.23-5.82,107.95-11.38,164.6-17.36,14.83,144.51,29.43,286.84,44.3,431.86-145.09,14.88-286.85,29.42-431.56,44.26-5.69-55.02-11.15-107.88-16.98-164.37,51.39-5.76,101.85-11.41,155.28-17.39-387.26-278.76-993.09-319.8-1453.94,27.66-264.61,199.51-429.22,463.84-484.69,791.23-55.35,326.69,12.05,629.82,193.9,909.66-46.05,30.99-90.82,61.12-136.8,92.07-61.28-90.05-109.67-183.89-147.71-283.13-49.13-128.17-79.32-260.61-89.31-397.6C4.04,1519.7,1.57,1512.64,0,1505.52c0-59.05,0-118.1,0-177.14Z"/>
  <path class="cls-1" d="M1334.44,2834.1c-51.98-6.94-104.18-12.52-155.9-21.06-195.58-32.29-375.6-104.58-541.23-213.14-4.62-3.03-9.18-6.18-13.93-9-1.45-.86-3.45-.82-8.71-1.94,4.23,44.28,8.35,87.53,12.88,134.99-55.14,5.78-108.59,11.39-164.69,17.27-14.83-144.7-29.37-286.58-44.23-431.6,144.15-14.81,285.91-29.38,431.52-44.34,5.67,54.93,11.17,108.33,16.97,164.5-52.12,5.73-102.03,11.22-154.15,16.96,371.44,272.31,1004.56,335,1490.25-56,490.72-395.05,623.18-1112.19,253.61-1672.28,44.54-30.06,89.17-60.18,135.39-91.38,5.16,6.57,9.95,11.73,13.7,17.57,170.96,266.33,248.58,557.51,224.51,873.13-45.08,591.11-429.22,1074.09-993.95,1253.56-98.71,31.37-200.14,50.2-303.57,57.83-9.01.66-17.88,3.23-26.81,4.92h-171.65Z"/>
  <path class="cls-1" d="M557.76,1322.99c-40.22-22.59-78.49-44.09-118.34-66.47,29.14-48.86,69.22-79.94,118.67-98.43,66.66-24.92,135.32-27.79,203.71-8.53,131.05,36.9,176.26,166.24,96.48,276.47-18.22,25.17-40.82,47.45-63.08,69.36-30.84,30.37-63.26,59.14-101.04,94.19h216.76v127.71h-442.31c0-31.5-1.03-62.53.75-93.4.43-7.41,9.32-15.19,15.76-21.27,63.08-59.42,127.1-117.86,189.39-178.09,19.57-18.92,38.93-40.3,50.98-64.27,23.75-47.26-1.32-87.63-53.89-91.89-46.94-3.81-84.36,14.6-113.85,54.62Z"/>
  <path class="cls-1" d="M1388.21,1149.39c-78.57,112.84-153.48,220.41-230.78,331.43h113.92v-94.12h151.86v95.17h84.23v128.4h-83.41v107.63h-155.89v-106.45h-301.52c.05-54.69-8.16-103.6,29.5-151.39,74.06-93.99,141.36-193.33,210.62-291.04,10.19-14.38,20.64-20.53,38.44-20.05,45.6,1.24,91.25.41,143.04.41Z"/>
  <path class="cls-1" d="M2019.05,1719.57c65.05-149.83,127.65-294.03,191.36-440.79h-148.7v84.59h-136.16v-211.94h470.98c-2.61,43.56,6.33,86.25-12.85,129.52-61.21,138.08-120.13,277.19-178.84,416.36-7.4,17.55-16.44,23.14-34.83,22.68-48.6-1.23-97.26-.42-150.96-.42Z"/>
  <path class="cls-1" d="M1520.08,1799.92c3.34-11.56,5.4-20.26,8.34-28.66,83.24-237.92,166.75-475.75,249.54-713.83,6.05-17.4,13.55-24.95,33.04-23.97,35.77,1.8,71.69.51,111.75.51-3.13,11-5.06,19.36-7.88,27.42-83.28,237.9-166.87,475.7-249.57,713.8-6.5,18.71-14.8,26.19-35.07,25.21-35.71-1.74-71.56-.49-110.15-.49Z"/>
</svg>