<?xml version="1.0" encoding="UTF-8"?>
<svg id="Layer_2" data-name="Layer 2" xmlns="http://www.w3.org/2000/svg" viewBox="0 0 313.48 256.73">
  <defs>
    <style>
      .cls-1 {
        fill: #fff;
      }

      .cls-1, .cls-2 {
        stroke-width: 0px;
      }

      .cls-2 {
        fill: #2561b9;
      }
    </style>
  </defs>
  <g id="Layer_1-2" data-name="Layer 1">
    <g>
      <path class="cls-2" d="M236.31,165.5c-.2,0-.38,0-.53-.02h-14.93c-4.27,0-6.72-3.29-7.5-5.24l-6.91-16.7-5.57-2.57c-3.52,1.29-13.09,4.81-16.61,6.28-5.56,2.32-8.26.35-9.28-.82-2.62-2.62-9.63-9.52-12.02-11.43-2.92-2.34-2.41-6.72,1.89-16.16,1.65-3.61,3.45-7.04,4.48-8.94l-2.42-5.24c-16.74-6.46-20.51-10.07-21.11-10.75l-.86-.97v-20.36l.86-.97c.59-.67,4.37-4.29,21.11-10.75l2.42-5.24c-1.03-1.9-2.83-5.33-4.48-8.94-4.3-9.44-4.82-13.82-1.89-16.16,2.39-1.91,9.4-8.82,12.02-11.43,1.02-1.17,3.73-3.15,9.28-.82,3.52,1.47,13.09,4.99,16.61,6.28l5.57-2.57,6.93-16.74c.76-1.91,3.22-5.2,7.49-5.2h14.93c1.46-.14,4.76.15,7.73,4.62,2.25,3.37,6.43,13.67,7.91,17.4l3.68,1.84,17.67-6.84c2.26-1.06,6.72-1.91,9.97,1.34l10.32,10.32c1.89,1.42,4.32,5.06,2.23,10.63-1.53,4.08-5.41,12.83-6.91,16.2l1.97,4.73,18.34,7.1.41.33c1.32,1.05,4.38,3.84,4.38,7v16.11c0,3.16-3.06,5.95-4.38,7l-.41.33-18.34,7.1-1.97,4.73c1.51,3.37,5.39,12.13,6.91,16.2,2.09,5.57-.34,9.21-2.23,10.63l-10.32,10.32c-3.24,3.25-7.71,2.4-9.97,1.34l-17.67-6.84-3.68,1.84c-1.48,3.72-5.66,14.02-7.91,17.4-2.65,3.98-5.57,4.64-7.2,4.64Z"/>
      <path class="cls-1" d="M229.67,154.95c0,4.3-4.17,8.1-5.97,9.54l-.56.45-24.99,9.68-2.69,6.45c2.05,4.6,7.34,16.52,9.42,22.08,2.85,7.6-.46,12.55-3.04,14.49l-14.07,14.07c-4.42,4.42-10.5,3.27-13.58,1.82l-24.08-9.32-5.02,2.51c-2.02,5.07-7.71,19.11-10.78,23.7-3.62,5.43-7.58,6.32-9.81,6.32-.27,0-.51-.01-.73-.03h-20.35c-5.82,0-9.16-4.49-10.22-7.14l-9.42-22.76-7.59-3.5c-4.79,1.75-17.84,6.55-22.64,8.55-7.58,3.17-11.26.48-12.65-1.12-3.57-3.57-13.12-12.97-16.38-15.58-3.98-3.19-3.28-9.15,2.58-22.02,2.24-4.92,4.7-9.59,6.1-12.19l-3.29-7.13c-22.81-8.8-27.95-13.73-28.76-14.65l-1.17-1.32v-27.75l1.17-1.32c.81-.92,5.95-5.84,28.76-14.65l3.29-7.13c-1.4-2.59-3.86-7.27-6.1-12.19-5.86-12.86-6.56-18.83-2.58-22.02,3.26-2.61,12.81-12.01,16.38-15.58,1.4-1.6,5.08-4.29,12.65-1.12,4.79,2,17.84,6.8,22.64,8.55l7.59-3.5,9.44-22.81c1.04-2.6,4.39-7.09,10.2-7.09h20.35c1.99-.19,6.48.21,10.54,6.29,3.07,4.6,8.76,18.63,10.78,23.7l5.02,2.51,24.08-9.32c3.07-1.45,9.16-2.6,13.58,1.82l14.07,14.07c2.58,1.94,5.89,6.9,3.04,14.49-2.08,5.55-7.37,17.48-9.42,22.08l2.69,6.45,24.99,9.68.56.45c1.79,1.43,5.97,5.24,5.97,9.54v21.95Z"/>
      <path class="cls-2" d="M124.51,256.73c-.27,0-.51-.01-.73-.03h-20.35c-5.82,0-9.16-4.49-10.22-7.14l-9.42-22.76-7.59-3.5c-4.79,1.75-17.84,6.55-22.64,8.55-7.58,3.17-11.26.48-12.65-1.12-3.57-3.57-13.12-12.97-16.38-15.58-3.98-3.19-3.28-9.15,2.58-22.02,2.24-4.92,4.7-9.59,6.1-12.19l-3.29-7.13c-22.81-8.8-27.95-13.73-28.76-14.65l-1.17-1.32v-27.75l1.17-1.32c.81-.92,5.95-5.84,28.76-14.65l3.29-7.13c-1.4-2.59-3.86-7.27-6.1-12.19-5.86-12.86-6.56-18.83-2.58-22.02,3.26-2.61,12.81-12.01,16.38-15.58,1.4-1.6,5.08-4.29,12.65-1.12,4.79,2,17.84,6.8,22.64,8.55l7.59-3.5,9.44-22.81c1.04-2.6,4.39-7.09,10.2-7.09h20.35c1.99-.19,6.48.21,10.54,6.29,3.07,4.6,8.76,18.63,10.78,23.7l5.02,2.51,24.08-9.32c3.07-1.45,9.16-2.6,13.58,1.82l14.07,14.07c2.58,1.94,5.89,6.9,3.04,14.49-2.08,5.55-7.37,17.48-9.42,22.08l2.69,6.45,24.99,9.68.56.45c1.79,1.43,5.97,5.24,5.97,9.54v21.95c0,4.3-4.17,8.1-5.97,9.54l-.56.45-24.99,9.68-2.69,6.45c2.05,4.6,7.34,16.52,9.42,22.08,2.85,7.6-.46,12.55-3.04,14.49l-14.07,14.07c-4.42,4.42-10.5,3.27-13.58,1.82l-24.08-9.32-5.02,2.51c-2.02,5.07-7.71,19.11-10.78,23.7-3.62,5.43-7.58,6.32-9.81,6.32ZM101.81,246.03c.07.14.67,1.37,1.63,1.37h21.12c.36-.19,1.12-.77,2.04-2.15,2.27-3.41,7.53-15.98,10.52-23.6l.65-1.66,11.88-5.94,28.49,11.05h0s2.17.94,3.08.03l15-15,.15-.03c.41-.51.58-1.72-.16-3.7-2.45-6.54-9.94-23.2-10.02-23.37l-.83-1.83,5.76-13.82,27.29-10.56c.85-.77,1.69-1.71,1.99-2.25v-21.18c-.3-.53-1.14-1.48-1.99-2.25l-27.29-10.56-5.76-13.82.83-1.83c.08-.17,7.57-16.83,10.02-23.37.76-2.02.56-3.24.14-3.73l-.7-.3-.06-.35-14.35-14.35c-.92-.92-3.12.04-3.14.05l-.35.15-28.09,10.87-11.88-5.94-.65-1.66c-2.98-7.62-8.24-20.19-10.52-23.6-.92-1.38-1.68-1.97-2.04-2.15h-21.12c-.98,0-1.58,1.28-1.63,1.38l-10.82,26.14-14.36,6.63-1.8-.65c-.76-.28-18.75-6.82-24.84-9.37-1.36-.57-2.2-.72-2.62-.76-1.71,1.7-11.35,11.29-16.01,15.3.37,3.75,5.2,14.83,11.11,25.34l1.16,2.07-6.86,14.86-1.77.67c-16.33,6.19-23.17,10.2-25.71,11.95v19.77c2.54,1.75,9.38,5.75,25.71,11.95l1.77.67,6.86,14.85-1.16,2.07c-5.91,10.52-10.74,21.59-11.11,25.34,4.66,4.01,14.3,13.59,16.01,15.3.43-.03,1.26-.19,2.62-.76,6.09-2.55,24.08-9.09,24.84-9.37l1.8-.65,14.36,6.63,10.82,26.15Z"/>
      <path class="cls-2" d="M114.41,184.92c-22.58,0-40.95-18.37-40.95-40.95s18.37-40.95,40.95-40.95,40.95,18.37,40.95,40.95-18.37,40.95-40.95,40.95ZM114.41,112.3c-17.46,0-31.66,14.2-31.66,31.66s14.2,31.66,31.66,31.66,31.66-14.2,31.66-31.66-14.2-31.66-31.66-31.66Z"/>
    </g>
  </g>
</svg>