<?xml version="1.0" encoding="UTF-8"?>
<svg id="Layer_1" data-name="Layer 1" xmlns="http://www.w3.org/2000/svg" viewBox="0 0 2834.65 2834.65">
  <defs>
    <style>
      .cls-1 {
        fill: #fff;
        stroke-width: 0px;
      }
    </style>
  </defs>
  <path class="cls-1" d="M469.01,922.47c-47.89-37.97-93.96-74.5-143.28-113.6-29.8,37.86-58.81,74.93-88.05,111.82-24.5,30.91-56.16,48.08-96.09,47.16-59.16-1.37-100.78-32.69-127.26-82.57-25.28-47.63-15.72-92.65,17.83-135.07,112.1-141.69,222.88-284.43,334.53-426.48,42.66-54.27,106.5-70.66,159.31-42.18,66.14,35.67,98.5,100.52,77.76,159.96-5.79,16.6-16.49,32-27.16,46.3-25.48,34.15-52.27,67.32-80.07,102.85,25.3,20.2,48.81,39.06,72.43,57.79,23.06,18.29,46.23,36.43,71.32,56.19,118.91-111.17,256.3-188.82,414.11-231.31v-203.86c-17.03,0-33.78.4-50.49-.07-66.93-1.88-105.84-40.56-107.71-107.22-.56-19.96-.91-40,.26-59.91,3.45-58.83,43.81-101.1,102.44-101.44,201.63-1.15,403.27-1.07,604.91.1,53.86.31,93.55,38.07,99.52,91.57,3.04,27.22,3.02,55.29.18,82.54-5.76,55.23-47.25,91.68-104.15,94.23-18.74.84-37.54.13-57.65.13v202.7c394.12,127.03,630.16,391.65,705.71,800.43h86.94c0-46.47-.98-91.83.2-137.14,2.48-94.66,91.79-158.32,178.58-128.15,51.68,17.97,87.84,64.81,89.74,120.44,1.62,47.33.33,94.76.33,146.42,22.58,0,42.13-.1,61.68.02,97.7.58,162.28,64.58,163.15,162.77.67,76.07.15,152.15.15,228.22,0,332.94-.25,665.88.24,998.82.08,56.71-16.5,104.59-62.56,139.97-28.22,21.67-60.29,31.1-95.73,31.1-520.28-.1-1040.55.23-1560.83-.33-93.12-.1-157.12-65.9-157.49-158.91-.47-119.86-.57-239.72.32-359.58.15-19.99-5.69-29.5-24.8-37.57-375.01-158.38-607.85-537.49-581.27-941.41,9.66-146.77,49.63-283.73,122.92-414.73ZM412.05,1395.77c-7.52,478.02,390.5,884.02,873.06,890.55,486.67,6.59,891.36-383.04,899.1-865.62,7.95-495.86-382.42-902.08-874.78-909.52-488.05-7.38-896.29,385.81-897.39,884.59ZM1939.68,2109.03c-271.42,232.13-577.13,297.7-919.49,205.9,0,10.53,0,18.99,0,27.45,0,108.43-.08,216.85.03,325.28.07,66.85,32.31,98.76,100.2,98.77,512.59.07,1025.18.08,1537.76,0,68.9-.01,101.45-32.43,101.47-101.19.11-329.08-.16-658.17.52-987.25.05-23.06-5.43-30.96-29.82-30.8-160.71,1.05-321.44.94-482.15.05-20.72-.12-29.37,6.29-35.21,26.12-36.12,122.79-95.61,233.45-177.13,332.13-19.15,23.19-39.43,45.45-54.47,62.72,11,16.36,26.62,28.95,27.15,42.16,2.58,63.61,2.24,127.42-.11,191.05-.38,10.29-15.77,28.27-24.84,28.67-60.71,2.63-121.64,2.84-182.34.11-9.58-.43-25.18-19.49-25.52-30.33-.35-10.94,12.9-25.22,23.84-32.64,8.1-5.49,22.05-2.85,33.4-2.93,35.68-.26,71.36-.1,106.69-.1v-155.15ZM1300.59,201.01c94.12,0,188.23.06,282.35-.03,42.57-.04,53.46-11.2,53.62-54.27.03-7.61.02-15.21,0-22.82-.11-46-9.16-55.3-54.7-55.32-178.74-.07-357.49-.03-536.23-.03q-81.44,0-81.09,80.27c.19,44.68,7.8,52.15,53.7,52.18,94.12.06,188.23.02,282.35.02ZM541.28,413.82c.32-32.88-22.71-62.57-51.42-73.8-24.03-9.41-48.96.1-71.17,28.4-111.52,142.1-222.93,284.3-334.17,426.63-24.71,31.62-20.12,59.73,12.88,85.8,35.08,27.71,63.5,26.49,88.9-5.78,114.01-144.87,227.67-290,341.09-435.33,7.28-9.32,11.38-21.12,13.89-25.92ZM2332.58,1345.08h-76.41c-5.15,78.94-10.11,155.19-15.11,231.92h517.58c0-54.27,1.94-106.43-.66-158.37-1.83-36.61-30.96-69.17-65.13-73.63-28.48-3.71-57.83-.76-86.39-.76-14.53,111.79-60.93,164.85-139.99,162.32-79.67-2.54-124.85-56.55-133.9-161.49ZM1470.82,271.06h-344.64v186.76c115.76-20.64,229.72-18.79,344.64.91v-187.67ZM2535.19,1254.24c0-37.03,0-74.07,0-111.1,0-1.9.02-3.8-.06-5.7-1.71-40.41-27.89-68.18-64.74-68.66-37.95-.5-66.91,28.03-67.35,69.31-.83,76.9-.85,153.82.04,230.71.45,39.49,29.1,68.55,65.12,69.3,37.13.77,65.89-28.69,66.77-70,.81-37.94.17-75.91.23-113.86ZM504.52,862.92c29.56-37.79,57.34-73.32,86-109.96-46.08-36.45-90.52-71.6-136.58-108.03-29.11,37.23-56.85,72.72-85.97,109.97,46.4,36.7,90.84,71.86,136.55,108.02Z"/>
  <path class="cls-1" d="M1303.68,659.44c434.57,6.9,742.23,365.53,734.52,754.66-7.65,386.62-330.91,722.18-742.68,719.3-417.55-2.92-735.86-343.14-733.99-742.1,1.77-377.16,303.99-730.41,742.14-731.86ZM703.78,1701.07c31.61-17.52,59.63-33.41,88-48.65,24.4-13.11,44.38-9.35,54.53,9.4,10.24,18.91,2.86,36.71-21.86,50.79-27.87,15.88-56.02,31.25-86.16,48.02,53.46,80.95,117.69,146.11,198.86,197.23,17.62-30.73,34-58.49,49.57-86.7,11.46-20.77,26.51-33.27,50.75-22.27,20.63,9.36,23.39,30.04,8.7,56.37-16.03,28.73-32.43,57.24-49.59,87.48,85.77,42.68,173.21,67.03,269.73,70.59,0-34.4-.13-66.48.04-98.56.16-31.13,11.16-46.03,33.75-46.3,22.75-.28,34.46,14.84,34.65,45.4.2,32.78.04,65.56.04,100.07,97.51-6.08,185.3-28.75,269.1-72.63-17.87-31.25-34.37-60.05-50.82-88.89-11.27-19.76-12.29-38.36,8.61-52.37,18.16-12.17,37.13-4.95,51.38,19.19,16.78,28.42,32.94,57.19,50.52,87.83,80.39-52.37,144.7-116.64,197.7-196.68-30-16.12-58.37-31.16-86.54-46.56-27.4-14.97-35.34-32.13-24.54-51.8,10.79-19.64,30.05-22.73,56.98-8.56,29.21,15.37,58.19,31.15,88.75,47.54,43.29-85.11,68.18-171.42,72.65-267.11-35.45,0-68.47.34-101.47-.1-28.2-.38-42.95-12.74-42.86-34.65.09-21.91,14.48-33.39,43.22-33.64,33.01-.29,66.02-.07,101.35-.07-5.84-97.37-28.76-185.8-73.46-270.82-31.66,17.88-60.4,34.32-89.35,50.39-26.62,14.78-46.04,11.9-55.93-9.13-11.64-24.74,2.04-38.96,22.43-50.4,29.48-16.54,58.54-33.81,88.65-51.27-53.63-80.43-117.61-145.3-197.76-197.28-17.88,31.22-34.33,60.02-50.86,88.77-11.26,19.57-26.39,30.59-49.24,19.1-19.75-9.93-23.17-29.56-9.64-54.03,16.04-29,32.73-57.64,50.35-88.55-85.04-42.94-172.71-68.29-269.22-71.24,0,35.65.19,67.85-.06,100.05-.23,30.06-12.75,46.2-35.48,44.42-27.01-2.12-33.37-20.59-33.05-44.19.44-33,.11-66.02.11-100.47-96.93,3.9-184.87,26.37-269.92,69.97,17.59,30.99,33.63,59.86,50.28,88.39,11.94,20.47,14.94,39.71-7.31,54.8-18.76,12.72-37.24,4.81-52.68-21.67-16.58-28.43-32.78-57.09-50.05-87.22-81.25,53.24-146.03,118.1-198.64,198.89,30.87,18.43,59.44,35.16,87.67,52.43,24.18,14.79,30.94,32.94,20.01,51.44-11.1,18.79-29.87,21.63-54.47,7.45-28.74-16.55-57.17-33.64-87.72-51.66-43.57,85.69-68.43,173.84-71.52,271.82,34.68,0,66.73-.14,98.79.04,31.24.17,45.99,11.09,46.1,33.65.11,22.59-15.18,34.46-45.68,34.73-32.09.28-64.18.06-99.1.06,4.45,95.41,28.75,181.8,71.71,267.17Z"/>
  <path class="cls-1" d="M1129.36,2533.67c0-29.44-.08-58.89.03-88.33.1-25.52,13.58-39.1,38.57-39.39,53.18-.62,106.37-.46,159.55-.1,25.24.17,39.1,13.96,39.33,38.97.57,60.78.58,121.58.03,182.36-.24,26.61-15.24,39.62-41.69,39.62-51.28,0-102.57.43-153.85-.16-29.34-.34-41.38-12.72-41.87-41.79-.51-30.39-.11-60.79-.11-91.18ZM1296.56,2597.11v-120.92h-96.92v120.92h96.92Z"/>
  <path class="cls-1" d="M1690.52,2537.68c0,28.48.39,56.98-.1,85.45-.55,31.53-11.78,43.22-42.77,43.54-50.31.51-100.64.53-150.95,0-31.1-.33-42.46-12.1-42.65-43.53-.35-57.92-.34-115.84,0-173.75.19-31.45,11.52-43.2,42.64-43.53,50.31-.53,100.64-.51,150.95,0,31,.32,42.24,12.01,42.78,43.53.5,29.43.11,58.87.11,88.3ZM1620.93,2476.29h-95.94v119.96h95.94v-119.96Z"/>
  <path class="cls-1" d="M1773.58,2536.09c0-30.38.07-60.77-.02-91.15-.08-25.92,13.73-38.77,38.63-39.02,53.16-.54,106.33-.53,159.49,0,25.15.25,38.38,13.78,38.38,39.35.01,60.77.05,121.53-.02,182.3-.03,25.65-13.61,38.83-38.69,39.05-53.16.46-106.33.55-159.49-.05-24.96-.28-38.46-13.48-38.32-39.32.16-30.38.04-60.77.04-91.15ZM1939.42,2596.7v-120.89h-95.89v120.89h95.89Z"/>
  <path class="cls-1" d="M2093.18,2536.42c0-30.38.13-60.77-.03-91.15-.14-25.85,13.36-39.04,38.32-39.32,53.16-.6,106.33-.52,159.49-.06,25.07.22,38.66,13.4,38.69,39.05.07,60.77.51,121.54-.19,182.3-.32,27.45-12.67,39.05-41.02,39.38-51.26.6-102.54.62-153.79,0-29.57-.35-40.9-12.26-41.37-41.91-.46-29.43-.1-58.87-.09-88.3ZM2164.07,2475.7v120.66h95.1v-120.66h-95.1Z"/>
  <path class="cls-1" d="M2653.85,2539.1c0,29.43-.11,58.87.02,88.3.11,25.89-13.54,38.9-38.47,39.17-53.16.57-106.33.52-159.49.03-25.11-.23-38.52-13.59-38.54-39.2-.04-60.77-.5-121.54.21-182.3.32-27.36,12.74-38.9,41.17-39.23,51.26-.59,102.54-.62,153.79,0,29.46.36,40.77,12.35,41.21,42.07.45,30.38.1,60.77.09,91.15ZM2487.09,2596.88h95.94v-120.78h-95.94v120.78Z"/>
  <path class="cls-1" d="M2653.84,1879.56c-.01,30.37-.07,60.75,0,91.12.07,24.52-13.07,37.68-36.52,38.07-54.08.91-108.2.78-162.28.14-23.35-.28-37.5-12.45-37.58-37.07-.2-61.7-.26-123.4.02-185.09.11-25.6,13.93-38.11,39.31-38.13,52.2-.03,104.4-.38,156.6.13,28.15.28,39.78,11.91,40.33,39.71.6,30.36.14,60.75.13,91.12ZM2487.77,1817.86v121.34h95.31v-121.34h-95.31Z"/>
  <path class="cls-1" d="M2653.86,2206.61c0,29.41.31,58.81-.08,88.21-.4,30.52-10.99,41.94-40.38,42.21-52.16.49-104.33.51-156.49-.03-28.18-.3-39.12-11.31-39.41-40.34-.6-59.75-.63-119.52.04-179.27.32-28.76,11.05-39.09,40.34-39.43,52.16-.61,104.33-.66,156.49.04,28.21.38,38.88,11.87,39.37,40.4.5,29.4.11,58.81.12,88.21ZM2583.95,2147.97h-95.98v119.17h95.98v-119.17Z"/>
  <path class="cls-1" d="M2093.18,2206.93c0-29.41-.38-58.82.1-88.21.47-28.8,10.94-40.33,39.05-40.71,53.1-.72,106.22-.29,159.33-.13,25.82.08,38.02,13.79,38.01,39.18-.03,60.71.14,121.41-.13,182.12-.11,25.53-13.45,38.1-39.11,38.02-53.11-.16-106.22.02-159.34-.1-25.82-.06-37.99-13.66-37.93-39.1.07-30.35.02-60.71,0-91.06ZM2259.37,2267.41v-118.76h-96.01v118.76h96.01Z"/>
  <path class="cls-1" d="M2261.27,1936.3c0-46.48-.07-88.13.05-129.78.03-9.46-2.79-21.44,1.83-27.83,8.47-11.72,20.35-26.11,32.9-28.54,18.59-3.59,32.61,10.64,32.88,30.68.86,63.52.89,127.07.13,190.59-.26,21.73-15.04,32.63-35.49,32.9-54.99.75-110.01.94-164.98-.12-21.78-.42-36.13-12.85-34.82-36.18,1.21-21.61,15.12-31.61,36.18-31.69,42.45-.15,84.91-.04,131.32-.04Z"/>
  <path class="cls-1" d="M1334.8,1207.73c0,14.26.64,28.55-.13,42.77-1.63,29.7-.05,53.39,31.34,73.45,19.32,12.34,29.54,44.9,35.39,70.32,4.03,17.51,8.68,27.94,23.91,37.03,78.26,46.73,156.15,94.11,233.42,142.46,11.05,6.91,22.19,19.24,25.45,31.2,2.42,8.87-5.13,26.66-13.14,30.66-10.71,5.34-28.81,5.99-39.11.28-45.65-25.28-89.63-53.57-134.23-80.75-35.68-21.74-71.73-42.9-106.9-65.44-14.16-9.08-24.73-10.9-40.91-1.69-49.84,28.35-110.18,10.6-138.16-38.02-28.01-48.69-12.8-108.69,37.17-138.46,13.48-8.03,18.05-15.86,17.75-30.97-.94-48.46-.44-96.95-.32-145.42.08-32.46,12.05-48.89,34.86-48.44,22.93.45,33.45,15.96,33.58,49.74.09,23.76.02,47.53.02,71.29ZM1308.77,1363.61c-29.18,4.58-42.55,15.25-41.83,36.67.72,21.25,14.58,33.53,35.14,32.65,21.08-.9,34.39-16.89,31.03-36.08-2.31-13.2-17.3-24.18-24.34-33.24Z"/>
</svg>