<?xml version="1.0" encoding="UTF-8"?>
<svg version="1.1" xmlns="http://www.w3.org/2000/svg" width="512" height="512">
<path d="M0 0 C0.95177628 -0.0071553 1.90355255 -0.01431061 2.88417053 -0.02168274 C3.92680054 -0.02437164 4.96943054 -0.02706055 6.0436554 -0.02983093 C7.14315018 -0.03640213 8.24264496 -0.04297333 9.37545776 -0.04974365 C13.02177496 -0.06948796 16.66805093 -0.08114227 20.31440735 -0.09111023 C21.55938303 -0.09518576 22.80435871 -0.09926128 24.08706093 -0.10346031 C29.99773531 -0.12217461 35.90839659 -0.13673856 41.81909341 -0.14507228 C48.62964125 -0.15483449 55.43986321 -0.18112848 62.25029629 -0.22157317 C68.15826988 -0.25544741 74.06616423 -0.26722357 79.97423744 -0.27127647 C82.482417 -0.27614571 84.990593 -0.2877692 87.49870872 -0.30631447 C91.01265193 -0.33068033 94.52574719 -0.32974489 98.03974915 -0.32279968 C99.072258 -0.33560974 100.10476685 -0.3484198 101.16856384 -0.36161804 C107.40457551 -0.31678646 112.17708588 0.53523019 117.3651886 4.14717102 C123.38464263 10.48343842 123.70508822 15.61596784 123.6776886 24.02217102 C123.69380188 25.00314758 123.70991516 25.98412415 123.72651672 26.99482727 C123.73087066 33.44736699 123.19631594 38.07797161 118.6464386 43.01045227 C118.0586261 43.48869446 117.4708136 43.96693665 116.8651886 44.45967102 C116.2773761 44.95080383 115.6895636 45.44193665 115.0839386 45.94795227 C108.81985061 50.3185773 102.44664782 48.14717102 94.3651886 48.14717102 C94.6951886 59.69717102 95.0251886 71.24717102 95.3651886 83.14717102 C98.0258136 83.99279602 100.6864386 84.83842102 103.4276886 85.70967102 C122.55814161 92.0015107 140.71844346 101.42142399 156.3651886 114.14717102 C156.91916321 114.59431458 157.47313782 115.04145813 158.04389954 115.50215149 C191.37404976 142.57708947 212.61966985 180.53457363 218.3651886 223.14717102 C223.3151886 223.14717102 228.2651886 223.14717102 233.3651886 223.14717102 C233.31878235 221.07435852 233.2723761 219.00154602 233.2245636 216.86592102 C233.19672515 214.83371408 233.16903815 212.80150219 233.14546204 210.76924133 C233.1254823 209.36872629 233.0982884 207.9682932 233.06343079 206.56806946 C232.82722221 196.82793952 233.1874654 190.11527429 239.6776886 182.39717102 C246.29138965 176.86011898 251.70628931 174.86627584 260.3651886 175.14717102 C267.19414398 176.19185824 273.17405395 179.6277967 277.3651886 185.14717102 C281.87888013 193.12605909 281.85548084 200.79817984 281.6151886 209.77217102 C281.59714172 211.06252258 281.57909485 212.35287415 281.5605011 213.68232727 C281.51374938 216.838068 281.44823065 219.99221203 281.3651886 223.14717102 C282.33198547 223.11236633 283.29878235 223.07756165 284.2948761 223.04170227 C296.7334987 222.78307744 304.55555944 223.92604584 314.1386261 232.30732727 C319.49443909 239.13833787 320.96099573 246.55464083 320.87312317 255.05207825 C320.88248311 256.46926203 320.88248311 256.46926203 320.89203215 257.91507578 C320.90787535 261.05324826 320.89539183 264.19063461 320.88276672 267.32881165 C320.88819168 269.58989919 320.89531644 271.8509832 320.90400696 274.11206055 C320.92219854 280.23393404 320.91518982 286.35553703 320.90249062 292.47741508 C320.89234145 298.89358609 320.90176162 305.30973443 320.90803528 311.72590637 C320.91577138 323.18880978 320.90336522 334.65156379 320.88299793 346.11444193 C320.86512866 356.49243711 320.86823332 366.87025328 320.88667297 377.24824524 C320.90811406 389.32099212 320.91602853 401.39360393 320.90422392 413.46637678 C320.89799788 419.84938318 320.89712901 426.23226647 320.91036987 432.61526489 C320.92195103 438.61706589 320.91386082 444.61852986 320.89079285 450.62029457 C320.88551792 452.81885024 320.88699861 455.01743442 320.89584351 457.21597862 C320.90683049 460.22511922 320.89299692 463.23319067 320.87312317 466.24226379 C320.8865075 467.53655296 320.8865075 467.53655296 320.90016222 468.85698938 C320.7996685 476.74165395 318.54665443 484.84023505 312.8026886 490.52217102 C304.82130109 497.59125822 295.63890784 498.74126827 285.32121277 498.64837646 C283.57704659 498.65667806 283.57704659 498.65667806 281.79764473 498.66514736 C278.60160587 498.67632931 275.40619613 498.66979415 272.2101891 498.65541065 C268.75139505 498.64423542 265.29266726 498.65626485 261.83387756 498.66525269 C255.07113362 498.679142 248.30857718 498.67166143 241.54584228 498.6565771 C233.66278866 498.63966688 225.7797811 498.64293349 217.89671494 498.64667118 C203.82838844 498.65254167 189.76015162 498.63840908 175.69184875 498.61372375 C162.05379375 498.58979622 148.41585849 498.58272409 134.77778625 498.59321594 C119.90849573 498.60463456 105.0392605 498.60654426 90.16997063 498.59211785 C88.58346375 498.59059208 86.99695687 498.58907172 85.41044998 498.58755684 C84.62995394 498.58679902 83.8494579 498.58604121 83.04531046 498.58526043 C77.55559303 498.58052562 72.06590036 498.58236327 66.57618332 498.58662224 C59.88402097 498.59155733 53.19197164 498.58552681 46.49983512 498.56572794 C43.08804053 498.55588141 39.67641776 498.55072216 36.26461411 498.55862045 C32.56129175 498.56458256 28.85847407 498.55204937 25.15519714 498.53485107 C23.5482315 498.54386614 23.5482315 498.54386614 21.90880191 498.55306333 C11.79438299 498.46773408 4.70991323 496.35588428 -2.68559265 489.33467102 C-8.60967329 482.68640417 -9.73347109 475.67078771 -9.84013367 466.97016907 C-9.85003326 466.26718185 -9.85993286 465.56419464 -9.87013245 464.83990479 C-9.90157471 462.52960003 -9.92643608 460.21927476 -9.95121765 457.90888977 C-9.97180212 456.3017729 -9.99279898 454.69466126 -10.01419067 453.08755493 C-10.06925719 448.867541 -10.11873416 444.64747946 -10.16703796 440.42738342 C-10.21736591 436.11713956 -10.2729929 431.80696442 -10.32817078 427.4967804 C-10.43556361 419.0469688 -10.53705011 410.59709952 -10.6348114 402.14717102 C-11.51490623 401.73892593 -11.51490623 401.73892593 -12.41278076 401.32243347 C-15.12645793 400.05930361 -17.83568751 398.78689057 -20.54496765 397.51435852 C-21.46749329 397.08663147 -22.39001892 396.65890442 -23.34049988 396.21821594 C-38.38040488 389.12934352 -51.46318041 379.39729051 -63.6348114 368.14717102 C-64.57582703 367.2886554 -65.51684265 366.43013977 -66.4863739 365.54560852 C-96.64371565 336.77880703 -114.48779336 295.0704184 -115.97465515 253.63935852 C-116.58282686 223.37803457 -111.72067088 192.73262529 -96.3223114 166.19795227 C-95.44667604 164.18458707 -95.44667604 164.18458707 -96.09184265 162.21748352 C-98.3757937 159.15294161 -101.30008288 156.9959979 -104.3223114 154.70967102 C-104.92237 154.24496399 -105.52242859 153.78025696 -106.14067078 153.3014679 C-110.23477094 150.14843909 -114.41622979 147.13104582 -118.6348114 144.14717102 C-118.99196228 144.62549377 -119.34911316 145.10381653 -119.71708679 145.59663391 C-121.37142142 147.80534522 -123.03429272 150.00749185 -124.6973114 152.20967102 C-125.25869812 152.96183899 -125.82008484 153.71400696 -126.39848328 154.4889679 C-137.52980643 169.18231446 -137.52980643 169.18231446 -146.6348114 171.14717102 C-153.39192548 171.910071 -158.64219245 170.33495451 -164.6348114 167.14717102 C-167.5098114 164.70967102 -167.5098114 164.70967102 -169.6348114 162.14717102 C-170.3566864 161.32217102 -171.0785614 160.49717102 -171.8223114 159.64717102 C-176.22453948 153.57513229 -176.50371717 147.43476775 -175.6348114 140.14717102 C-173.36508664 133.18821796 -167.98876729 127.77323223 -163.3066864 122.31123352 C-160.66170628 119.21134753 -158.16511772 116.01398899 -155.6973114 112.77217102 C-152.22968045 108.22516163 -148.73491867 103.70252608 -145.1973114 99.20967102 C-144.73977478 98.62846497 -144.28223816 98.04725891 -143.81083679 97.44844055 C-142.88271104 96.26991471 -141.95440664 95.09152953 -141.02592468 93.9132843 C-138.72606898 90.99346048 -136.43068781 88.07012399 -134.1348114 85.14717102 C-133.2220581 83.9857071 -132.30929767 82.82424877 -131.39653015 81.66279602 C-129.52292368 79.27832706 -127.65069158 76.89278707 -125.77934265 74.50654602 C-123.48824408 71.5851006 -121.1917769 68.6679269 -118.89408875 65.75166321 C-117.70362079 64.23484362 -116.52243788 62.71075001 -115.34184265 61.18623352 C-114.65477234 60.3070929 -113.96770203 59.42795227 -113.2598114 58.52217102 C-112.67457703 57.7667804 -112.08934265 57.01138977 -111.4863739 56.23310852 C-106.81755486 50.97329973 -101.55180171 47.84155515 -94.5879364 46.85810852 C-86.46782347 46.51190216 -80.70115662 50.25344312 -74.6582489 55.21357727 C-69.56237165 60.08318971 -68.40036241 64.6784688 -68.1348114 71.64717102 C-68.54061409 82.04288107 -73.58553055 87.61796711 -80.1973114 95.21748352 C-82.59680131 98.10148581 -84.61406412 100.99443105 -86.6348114 104.14717102 C-79.42298109 110.31122382 -72.20175049 116.41819647 -64.6348114 122.14717102 C-61.24570737 120.7364356 -58.66238847 118.60771205 -55.86576843 116.26338196 C-40.0446089 103.01872801 -12.37554799 83.14717102 9.3651886 83.14717102 C9.3651886 71.59717102 9.3651886 60.04717102 9.3651886 48.14717102 C4.0851886 48.14717102 -1.1948114 48.14717102 -6.6348114 48.14717102 C-12.25253637 45.70789571 -14.8484291 43.75889357 -17.81889343 38.31684875 C-19.47420368 33.91507073 -19.24809571 29.35494115 -19.1973114 24.70967102 C-19.22115906 23.71129211 -19.24500671 22.71291321 -19.26957703 21.6842804 C-19.25631757 14.9617371 -18.11129268 10.28058326 -13.6348114 5.14717102 C-9.13971032 1.64099218 -5.66736823 0.02926747 0 0 Z M-5.6348114 16.14717102 C-5.98535195 19.14458981 -6.10388447 21.72656458 -6.0098114 24.70967102 C-6.00852234 25.49019836 -6.00723328 26.27072571 -6.00590515 27.0749054 C-6.09414952 31.58687309 -6.09414952 31.58687309 -3.6348114 35.14717102 C-1.58769941 35.45336848 -1.58769941 35.45336848 0.79949951 35.40786743 C2.19807693 35.41849464 2.19807693 35.41849464 3.62490845 35.42933655 C5.16395088 35.42562042 5.16395088 35.42562042 6.73408508 35.42182922 C7.81220459 35.42694016 8.8903241 35.43205109 10.00111389 35.43731689 C13.5795592 35.45126374 17.15781302 35.45025229 20.73628235 35.44795227 C23.21488518 35.4518364 25.69348734 35.45617047 28.17208862 35.4609375 C33.37327734 35.46841068 38.57439819 35.46810047 43.77558899 35.46284485 C49.12527172 35.45747195 54.47476527 35.46451664 59.82441711 35.48335266 C66.27172897 35.50576629 72.71888249 35.51361176 79.16623116 35.50967979 C81.62828686 35.5101945 84.09034619 35.51546011 86.55238152 35.52549171 C89.99073861 35.53778103 93.42854971 35.53110931 96.86689758 35.51948547 C98.40290367 35.53095108 98.40290367 35.53095108 99.96994019 35.54264832 C100.90514496 35.535634 101.84034973 35.52861969 102.80389404 35.52139282 C104.02367777 35.52164443 104.02367777 35.52164443 105.2681036 35.52190113 C107.91653945 35.04864961 108.79303274 34.30800454 110.3651886 32.14717102 C110.69031869 29.38210069 110.82970241 26.90749123 110.8026886 24.14717102 C110.82266907 23.4227179 110.84264954 22.69826477 110.86323547 21.95185852 C110.90775869 19.56426523 110.90775869 19.56426523 110.3651886 16.14717102 C107.60478691 13.4495356 105.62060783 12.77169148 101.81098938 12.76622009 C100.90254272 12.75776062 99.99409607 12.74930115 99.05812073 12.74058533 C97.57429901 12.74969437 97.57429901 12.74969437 96.0605011 12.75898743 C94.48918427 12.75110199 94.48918427 12.75110199 92.88612366 12.74305725 C89.42066066 12.7298448 85.95565634 12.73860003 82.4901886 12.74873352 C80.08410046 12.74671315 77.67801292 12.74380202 75.27192688 12.74003601 C70.22808505 12.73561096 65.18440255 12.74204972 60.14057922 12.75605774 C53.67053037 12.77314951 47.20085485 12.76330933 40.7308197 12.74534035 C35.76205118 12.73450754 30.79337139 12.73794659 25.82460022 12.74572372 C23.43873551 12.74772711 21.05286279 12.74526162 18.66700745 12.73828506 C15.33441279 12.73067908 12.00242544 12.74226349 8.6698761 12.75898743 C7.68066162 12.75291473 6.69144714 12.74684204 5.67225647 12.74058533 C4.76380981 12.7490448 3.85536316 12.75750427 2.91938782 12.76622009 C1.73806778 12.76791671 1.73806778 12.76791671 0.53288269 12.7696476 C-2.26022566 13.25609254 -3.62477372 14.16207505 -5.6348114 16.14717102 Z M22.3651886 48.14717102 C22.3651886 58.70717102 22.3651886 69.26717102 22.3651886 80.14717102 C28.8001886 79.65217102 28.8001886 79.65217102 35.3651886 79.14717102 C37.86041274 79.06779591 40.35698478 79.01685305 42.85346985 79.01435852 C44.13020569 79.01242493 45.40694153 79.01049133 46.72236633 79.00849915 C48.02762268 79.01301086 49.33287903 79.01752258 50.6776886 79.02217102 C51.35340912 79.02305725 52.02912964 79.02394348 52.72532654 79.02485657 C62.64702566 79.04012817 72.47638033 79.3315992 82.3651886 80.14717102 C82.3651886 69.58717102 82.3651886 59.02717102 82.3651886 48.14717102 C62.5651886 48.14717102 42.7651886 48.14717102 22.3651886 48.14717102 Z M-108.7598114 74.02217102 C-109.89180686 75.53677797 -111.02598009 77.04975936 -112.16215515 78.56123352 C-113.02236267 79.70640442 -113.02236267 79.70640442 -113.89994812 80.87471008 C-116.62769189 84.4477243 -119.46976022 87.92354415 -122.3223114 91.39717102 C-126.97755017 97.08131749 -131.51746442 102.82915204 -135.97465515 108.67060852 C-138.56565392 112.06612287 -141.18682117 115.43769749 -143.81230164 118.80659485 C-145.02127469 120.35923043 -146.22784502 121.91374009 -147.43193054 123.47016907 C-150.16281993 126.99742687 -152.90954236 130.50192044 -155.7519989 133.94013977 C-156.22121765 134.5182843 -156.6904364 135.09642883 -157.1738739 135.6920929 C-158.41779063 137.22152852 -159.67802426 138.73765334 -160.9394989 140.25263977 C-163.03916449 143.83755268 -163.12269698 146.05569489 -162.6348114 150.14717102 C-159.85206398 153.64548207 -156.74063198 156.34461565 -152.6348114 158.14717102 C-148.77669713 158.14717102 -147.16667093 157.63181354 -144.30278015 155.02217102 C-141.3523464 151.84278707 -138.63254058 148.55045591 -135.9473114 145.14717102 C-135.42403259 144.48854065 -134.90075378 143.82991028 -134.36161804 143.15132141 C-130.64815819 138.46457798 -126.98631096 133.73939543 -123.35258484 128.99067688 C-118.96365865 123.25622132 -114.49539129 117.58504526 -110.02592468 111.9132843 C-107.27127788 108.41607213 -104.52222309 104.91446036 -101.77323914 101.41279602 C-99.41147827 98.40515206 -97.04585912 95.40066645 -94.6738739 92.40107727 C-94.18596375 91.7829718 -93.69805359 91.16486633 -93.19535828 90.5280304 C-92.27348936 89.36032977 -91.35041473 88.19357946 -90.42582703 87.0280304 C-89.1497959 85.41017053 -87.88793294 83.78283458 -86.6348114 82.14717102 C-85.93642151 81.23741516 -85.93642151 81.23741516 -85.22392273 80.3092804 C-82.93993439 77.2417814 -81.66816017 75.36208529 -81.0723114 71.52217102 C-81.90772589 66.50968411 -84.07525402 64.3068419 -88.0723114 61.33467102 C-97.61537271 56.91227676 -103.67613445 67.07290248 -108.7598114 74.02217102 Z M17.3651886 94.14717102 C16.21276672 94.41328186 16.21276672 94.41328186 15.0370636 94.68476868 C-12.98406216 101.43250301 -37.20857669 116.15005888 -57.6348114 136.14717102 C-58.73695984 137.1739093 -58.73695984 137.1739093 -59.8613739 138.22138977 C-85.27850965 162.37273191 -101.27901845 200.27002334 -102.75883484 235.06318665 C-103.87180528 279.60948496 -91.22795678 319.61868178 -60.24809265 352.40498352 C-58.95451843 353.76236633 -58.95451843 353.76236633 -57.6348114 355.14717102 C-56.96836609 355.8664679 -56.30192078 356.58576477 -55.61528015 357.32685852 C-28.70407819 385.5411292 11.79203526 400.36125301 50.19233704 401.43061829 C88.82284065 401.90610752 125.80241436 388.0687376 154.3651886 362.14717102 C155.33069641 361.31314758 156.29620422 360.47912415 157.29096985 359.61982727 C163.73633739 353.97678764 169.18886187 347.96477208 174.3651886 341.14717102 C175.16698547 340.11076477 175.96878235 339.07435852 176.7948761 338.00654602 C196.75036464 311.59819764 206.58728729 279.68720569 206.6151886 246.77217102 C206.61586334 246.05752686 206.61653809 245.34288269 206.61723328 244.60658264 C206.60062268 233.52405324 206.01012546 222.94038779 203.3651886 212.14717102 C203.19889954 211.42497375 203.03261047 210.70277649 202.86128235 209.95869446 C196.41996482 182.39224109 181.91985714 159.20699511 163.3651886 138.14717102 C162.43319641 137.08562805 162.43319641 137.08562805 161.4823761 136.00263977 C141.27964627 114.48627953 112.77551447 100.71073858 84.3651886 94.14717102 C83.34932678 93.90160461 83.34932678 93.90160461 82.3129425 93.65107727 C61.56058764 88.8000076 38.07047293 89.23969056 17.3651886 94.14717102 Z M-96.6348114 115.14717102 C-99.05048632 117.56409156 -101.11863561 120.29921435 -103.2598114 122.95967102 C-103.87082703 123.6976593 -104.48184265 124.43564758 -105.1113739 125.19599915 C-105.9776239 126.26430969 -105.9776239 126.26430969 -106.8613739 127.35420227 C-107.65922302 128.33610535 -107.65922302 128.33610535 -108.47319031 129.33784485 C-109.90494051 131.20956699 -109.90494051 131.20956699 -109.6348114 134.14717102 C-108.14675285 135.71154943 -108.14675285 135.71154943 -106.1269989 137.14326477 C-105.38707703 137.70207336 -104.64715515 138.26088196 -103.8848114 138.83662415 C-102.7091864 139.70190735 -102.7091864 139.70190735 -101.5098114 140.58467102 C-100.74926453 141.1576593 -99.98871765 141.73064758 -99.2051239 142.32099915 C-95.09726458 145.39835238 -90.93778784 148.34954896 -86.6348114 151.14717102 C-85.0303421 149.06407016 -83.42622622 146.98069875 -81.8223114 144.89717102 C-81.370495 144.31064758 -80.91867859 143.72412415 -80.45317078 143.11982727 C-78.1617036 140.14259254 -75.87949987 137.15997547 -73.6348114 134.14717102 C-74.97484457 131.06906275 -76.33165793 129.29797472 -78.9707489 127.23701477 C-79.62301453 126.7220343 -80.27528015 126.20705383 -80.9473114 125.6764679 C-81.9682489 124.88852844 -81.9682489 124.88852844 -83.0098114 124.08467102 C-83.68270203 123.55551086 -84.35559265 123.02635071 -85.0488739 122.4811554 C-86.34133029 121.46728951 -87.63770507 120.45839263 -88.93852234 119.45527649 C-90.29715561 118.40755671 -91.64381923 117.34432259 -92.9863739 116.27607727 C-94.5768434 114.95882625 -94.5768434 114.95882625 -96.6348114 115.14717102 Z M251.7401886 189.89717102 C250.85460266 190.38443665 250.85460266 190.38443665 249.9511261 190.88154602 C247.38056148 192.93293256 246.47692647 195.20939879 246.09103394 198.44804382 C246.08039413 199.29154388 246.06975433 200.13504395 246.05879211 201.00410461 C246.04280472 201.96545319 246.02681732 202.92680176 246.01034546 203.9172821 C246.00498276 204.94962982 245.99962006 205.98197754 245.99409485 207.04560852 C245.98506638 208.11332489 245.9760379 209.18104126 245.96673584 210.28111267 C245.95223478 212.53884579 245.94334697 214.79662092 245.93965149 217.05439758 C245.92775573 220.50271119 245.87856686 223.94923502 245.82807922 227.39717102 C245.81861472 229.5924748 245.81137982 231.78778955 245.80659485 233.98310852 C245.78706253 235.01140778 245.76753021 236.03970703 245.74740601 237.09916687 C245.78510771 243.40356137 245.78510771 243.40356137 248.75971985 248.7858429 C252.06538459 251.78175644 253.83847347 252.17723396 258.1464386 252.38545227 C261.72036291 252.00163293 263.74163488 250.51476828 266.3651886 248.14717102 C268.20004924 245.17499905 268.62013909 242.92688566 268.6398468 239.45796204 C268.64937881 238.53342728 268.65891083 237.60889252 268.66873169 236.65634155 C268.66782028 235.66460434 268.66690887 234.67286713 268.66596985 233.65107727 C268.67025497 232.62538132 268.6745401 231.59968536 268.67895508 230.54290771 C268.68469442 228.37511432 268.68520156 226.20730166 268.68086243 224.039505 C268.67770364 220.72544958 268.70116306 217.4122879 268.72651672 214.0983429 C268.72878988 211.99092215 268.72949313 209.883499 268.72846985 207.77607727 C268.7376796 206.78636429 268.74688934 205.79665131 268.75637817 204.77694702 C268.72090938 197.96308137 268.72090938 197.96308137 265.3651886 192.14717102 C260.65810971 188.44159828 257.21736866 186.76045997 251.7401886 189.89717102 Z M219.3651886 236.14717102 C219.30460266 237.93381165 219.24401672 239.72045227 219.18159485 241.56123352 C219.09709151 243.964884 219.01244859 246.36852958 218.9276886 248.77217102 C218.88837219 249.94263977 218.84905579 251.11310852 218.80854797 252.31904602 C218.76665344 253.4920929 218.72475891 254.66513977 218.68159485 255.87373352 C218.64493713 256.93157043 218.60827942 257.98940735 218.57051086 259.07929993 C218.26623583 265.10763596 217.79523652 271.12650018 217.3651886 277.14717102 C247.0651886 277.14717102 276.7651886 277.14717102 307.3651886 277.14717102 C310.13868958 250.10557207 310.13868958 250.10557207 303.3651886 241.14717102 C298.30066507 236.57674735 294.90941332 236.02291208 288.1776886 236.08467102 C286.90538391 236.09369446 285.63307922 236.1027179 284.32221985 236.11201477 C283.34639954 236.12361633 282.37057922 236.1352179 281.3651886 236.14717102 C281.26721985 237.00439758 281.1692511 237.86162415 281.0683136 238.74482727 C279.79786865 248.45935032 278.0227493 254.68707553 270.1386261 260.92451477 C264.52835356 264.79238989 257.95740388 265.02137548 251.3651886 264.14717102 C243.77012673 261.5765347 239.47804172 258.05986198 235.6776886 251.02217102 C233.73204999 246.25324161 233.67945498 241.23828634 233.3651886 236.14717102 C228.7451886 236.14717102 224.1251886 236.14717102 219.3651886 236.14717102 Z M214.3651886 290.14717102 C211.41221147 297.52574644 211.41221147 297.52574644 208.54096985 304.93623352 C200.60082948 325.69263467 189.89274547 343.72022746 174.51753235 359.81904602 C172.34852194 361.94817618 172.34852194 361.94817618 171.3651886 364.14717102 C172.0045636 364.43592102 172.6439386 364.72467102 173.3026886 365.02217102 C175.3651886 366.14717102 175.3651886 366.14717102 176.3651886 368.14717102 C176.4885963 370.95619206 176.55359655 373.73944826 176.5683136 376.54951477 C176.57401367 377.38301956 176.57971375 378.21652435 176.58558655 379.07528687 C176.59503904 380.83971384 176.60157152 382.60415848 176.60542297 384.36860657 C176.61513764 387.07049737 176.64616164 389.77163042 176.6776886 392.4733429 C176.68421773 394.186229 176.68946856 395.89912054 176.6933136 397.61201477 C176.7056604 398.42146042 176.7180072 399.23090607 176.73072815 400.06488037 C176.70831663 405.69637655 176.70831663 405.69637655 175.06202698 407.85923767 C172.23134316 410.00778177 168.93648168 409.59429995 165.5214386 409.58076477 C164.75593689 409.58600662 163.99043518 409.59124847 163.20173645 409.59664917 C161.58452059 409.60306784 159.96725804 409.60173432 158.35005188 409.59321594 C155.87378513 409.58470058 153.39982141 409.61347381 150.92378235 409.6452179 C149.35216846 409.64682988 147.78055048 409.64625243 146.2089386 409.64326477 C145.46825134 409.65449875 144.72756409 409.66573273 143.96443176 409.67730713 C140.67162647 409.63259245 138.84355084 409.58487247 136.36323547 407.31538391 C134.95906464 404.26488461 135.44922179 402.31782537 136.3651886 399.14717102 C139.0473167 397.80610697 141.24916891 397.93266684 144.2480011 397.83076477 C145.29874817 397.79265686 146.34949524 397.75454895 147.43208313 397.71528625 C149.44084534 397.65063171 149.44084534 397.65063171 151.4901886 397.58467102 C157.8633136 397.36810852 157.8633136 397.36810852 164.3651886 397.14717102 C164.3651886 388.56717102 164.3651886 379.98717102 164.3651886 371.14717102 C161.7251886 373.12717102 159.0851886 375.10717102 156.3651886 377.14717102 C118.27217286 405.47274683 74.09350754 418.08771176 26.76313782 411.53291321 C21.09136324 410.62053245 15.508384 409.30251064 9.9276886 407.95185852 C6.4861838 407.03700776 6.4861838 407.03700776 3.3651886 407.14717102 C3.29551603 415.50119132 3.24229017 423.85508914 3.20975208 432.20932865 C3.19413125 436.08902348 3.17295911 439.96851875 3.13887024 443.84809875 C3.10614804 447.59581894 3.08830866 451.3433478 3.08055687 455.09119987 C3.07503632 456.51727241 3.06425616 457.94333509 3.04799843 459.36932564 C2.68365203 470.94020921 2.68365203 470.94020921 7.8651886 480.88935852 C12.0652018 484.06124349 14.89049564 485.26986862 20.10046673 485.28418541 C21.5702773 485.29179722 21.5702773 485.29179722 23.06978101 485.29956281 C24.68852249 485.30030945 24.68852249 485.30030945 26.33996582 485.30107117 C27.48436278 485.30545342 28.62875974 485.30983567 29.8078354 485.31435072 C32.98945898 485.325419 36.17105479 485.3319643 39.3526932 485.33653188 C42.78228349 485.34248855 46.21185565 485.35409822 49.64143372 485.36482239 C57.92652943 485.3893447 66.21163115 485.40397318 74.49675199 485.41688246 C76.83680469 485.42059448 79.17685678 485.4245677 81.51690888 485.42863512 C96.04814549 485.45387146 110.57938303 485.47592468 125.11063671 485.48836327 C128.47649323 485.49129296 131.84234973 485.49425463 135.20820618 485.49726868 C136.46305782 485.49838775 136.46305782 485.49838775 137.74326 485.49952944 C151.29480165 485.51218275 164.84621209 485.54540561 178.3976924 485.58707051 C192.31053957 485.62949583 206.22331956 485.65305897 220.13623124 485.65828383 C227.94790695 485.66169725 235.75937758 485.67344415 243.57098961 485.70638657 C250.22386681 485.7343965 256.87649691 485.74538236 263.5294285 485.7341911 C266.92307567 485.72900658 270.31578656 485.73460552 273.70942879 485.75665665 C277.39188299 485.77928262 281.07303288 485.77108159 284.75549316 485.75517273 C285.82350054 485.76905482 286.89150792 485.7829369 287.99187917 485.79723966 C294.6116654 485.72675611 299.41021311 484.75307755 304.3651886 480.14717102 C307.4533046 475.72638126 307.79165616 471.69191768 307.72595215 466.44029236 C307.72851542 465.68379218 307.7310787 464.92729199 307.73371965 464.14786756 C307.73864474 461.6234899 307.72218607 459.09971585 307.70576477 456.57539368 C307.70491822 454.76172398 307.70539418 452.94805325 307.70709229 451.13438416 C307.70795257 446.21745061 307.69032126 441.30073688 307.66937041 436.38385439 C307.65060931 431.2429087 307.64885361 426.10195791 307.64529419 420.96098328 C307.63597207 411.22882671 307.61135598 401.49677131 307.58124572 391.76465929 C307.54143503 378.6115408 307.52524819 365.45839463 307.50773907 352.30523109 C307.47953506 331.58580197 307.41976657 310.86658632 307.3651886 290.14717102 C276.6751886 290.14717102 245.9851886 290.14717102 214.3651886 290.14717102 Z " fill="#000000" transform="translate(183.6348114013672,6.8528289794921875)"/>
<path d="M0 0 C9.74327516 8.67447318 17.94870117 18.03703174 25 29 C25.96679688 30.49273437 25.96679688 30.49273437 26.953125 32.015625 C44.53062242 60.59816428 48.89109154 95.50094001 42 128 C38.36628023 143.23773943 32.10023691 158.23747263 23 171 C22.28328125 172.01320313 21.5665625 173.02640625 20.828125 174.0703125 C10.91225254 187.69713452 -0.91952588 198.79551024 -15 208 C-15.80308594 208.54914063 -16.60617187 209.09828125 -17.43359375 209.6640625 C-44.17928749 227.00009276 -80.00093929 232.33020168 -111 226 C-146.98967112 218.00632154 -176.43179614 197.60214366 -196.25 166.5625 C-213.7126163 136.94732828 -220.09902971 101.69386604 -212 68 C-202.95102221 33.34532555 -181.65175438 4.29762434 -150.92871094 -14.14331055 C-103.20933771 -41.75637475 -41.71201548 -35.73536849 0 0 Z M-123.75 -12 C-124.87486816 -11.62657471 -124.87486816 -11.62657471 -126.02246094 -11.24560547 C-129.98538651 -9.87091502 -133.47726572 -8.32999748 -137 -6 C-135.06620664 -0.72869527 -132.20553146 3.92167306 -129.36328125 8.74609375 C-127.81836491 12.43353017 -127.89969782 14.20758791 -129 18 C-130 19 -130 19 -133.73046875 19.59375 C-135.91943359 19.56640625 -135.91943359 19.56640625 -138 19 C-140.40899624 16.50956218 -141.79978219 13.59430733 -143.3125 10.5 C-144.13221701 8.90123411 -144.96118872 7.30716831 -145.80078125 5.71875 C-146.15309814 5.00654297 -146.50541504 4.29433594 -146.8684082 3.56054688 C-147.2418335 3.04556641 -147.61525879 2.53058594 -148 2 C-155.47817126 2 -162.96519376 10.65234014 -168.125 15.75 C-173.71611315 21.38188451 -178.44341396 27.51031686 -183 34 C-178.28906773 37.98481113 -173.14744239 40.82417428 -167.765625 43.8046875 C-165 46 -165 46 -163.984375 49.0703125 C-164 52 -164 52 -166 55 C-172.71169502 55.8678916 -176.47751119 54.1560413 -182 50.5 C-182.67933594 50.07074219 -183.35867187 49.64148438 -184.05859375 49.19921875 C-185.71595637 48.14877765 -187.35949645 47.07658045 -189 46 C-192.09275244 49.54377883 -193.49822669 53.55558686 -195 57.9375 C-195.26127686 58.69313232 -195.52255371 59.44876465 -195.79174805 60.22729492 C-199.34082437 70.71284991 -201.42173313 80.93316861 -202 92 C-201.38479492 92.01458252 -200.76958984 92.02916504 -200.13574219 92.04418945 C-197.33987146 92.11880577 -194.54517713 92.2154198 -191.75 92.3125 C-190.78191406 92.33505859 -189.81382812 92.35761719 -188.81640625 92.38085938 C-187.88183594 92.41630859 -186.94726562 92.45175781 -185.984375 92.48828125 C-185.12553711 92.51446533 -184.26669922 92.54064941 -183.38183594 92.56762695 C-180.56938615 93.07816904 -179.1350676 94.14370135 -177 96 C-177.875 102.875 -177.875 102.875 -179 104 C-180.70563778 104.15740605 -182.41727244 104.25093392 -184.12890625 104.31640625 C-185.16337891 104.35830078 -186.19785156 104.40019531 -187.26367188 104.44335938 C-188.35228516 104.48267578 -189.44089844 104.52199219 -190.5625 104.5625 C-192.2012207 104.62727539 -192.2012207 104.62727539 -193.87304688 104.69335938 C-196.58189564 104.79982068 -199.29083992 104.90183516 -202 105 C-201.28734202 114.48572342 -199.87088497 123.4369234 -197.125 132.5625 C-196.75834229 133.79178223 -196.75834229 133.79178223 -196.38427734 135.04589844 C-194.72583969 140.33263991 -192.59154837 145.10298328 -190 150 C-184.32503813 149.2482793 -180.03401413 146.32816007 -175.15625 143.49609375 C-172.03932935 142.0186425 -170.37882804 141.51645747 -167 142 C-165.125 143.625 -165.125 143.625 -164 146 C-163.86328125 148.8125 -163.86328125 148.8125 -165 152 C-167.7883835 154.23669177 -170.87666607 155.77604468 -174.0625 157.375 C-175.34350586 158.04982422 -175.34350586 158.04982422 -176.65039062 158.73828125 C-178.75776745 159.84494841 -180.8734171 160.93083927 -183 162 C-174.52928571 176.0144816 -162.91106618 186.21087195 -150 196 C-145.81402174 192.30703696 -143.58448166 187.80053345 -141.17578125 182.86914062 C-139.41907208 179.55518927 -138.521296 178.17179818 -134.89453125 176.9765625 C-132 177 -132 177 -129.5625 178.5625 C-128 181 -128 181 -128.1484375 183.69921875 C-129.18126685 187.70261692 -130.91565917 190.74979664 -133.0625 194.25 C-135.87685278 198.35257963 -135.87685278 198.35257963 -137 203 C-122.24475009 210.48916572 -107.38685236 213.71588408 -91 215 C-90.970271 213.97060303 -90.970271 213.97060303 -90.93994141 212.92041016 C-90.84489055 209.82154221 -90.73513153 206.72336706 -90.625 203.625 C-90.5940625 202.54476562 -90.563125 201.46453125 -90.53125 200.3515625 C-90.49257812 199.3203125 -90.45390625 198.2890625 -90.4140625 197.2265625 C-90.36693115 195.79691162 -90.36693115 195.79691162 -90.31884766 194.33837891 C-90 192 -90 192 -88 190 C-85 189.75 -85 189.75 -82 190 C-79.43863779 192.56136221 -79.70333143 193.66561331 -79.5859375 197.2265625 C-79.54726562 198.2578125 -79.50859375 199.2890625 -79.46875 200.3515625 C-79.4378125 201.43179688 -79.406875 202.51203125 -79.375 203.625 C-79.33632812 204.71296875 -79.29765625 205.8009375 -79.2578125 206.921875 C-79.16333753 209.61441165 -79.07777569 212.30693757 -79 215 C-62.86416133 213.63151748 -47.49780618 210.50437104 -33 203 C-34.66353857 197.32539127 -37.43586196 192.92636876 -40.63671875 188 C-42.26474357 184.41741244 -42.20761111 182.71248132 -41 179 C-38 177 -38 177 -35.1484375 176.83984375 C-30.32572465 178.61694762 -28.96091345 182.16943015 -26.625 186.5625 C-25.95017578 187.77196289 -25.95017578 187.77196289 -25.26171875 189.00585938 C-24.15562051 190.99448281 -23.06972525 192.99164639 -22 195 C-9.94154133 192.32156722 2.43482102 176.77392034 9.9375 167.3125 C10.9584375 165.6728125 10.9584375 165.6728125 12 164 C10.85783619 160.57350858 10.45803971 160.40118921 7.4375 158.7734375 C6.72335937 158.3815625 6.00921875 157.9896875 5.2734375 157.5859375 C4.52320313 157.18632812 3.77296875 156.78671875 3 156.375 C1.52017613 155.57152175 0.04097581 154.76689363 -1.4375 153.9609375 C-2.09621094 153.60821777 -2.75492188 153.25549805 -3.43359375 152.89208984 C-5 152 -5 152 -6 151 C-6.1875 147.5625 -6.1875 147.5625 -6 144 C-4 142 -4 142 -1.3984375 141.59375 C3.23298541 142.14739136 6.42445592 144.12110094 10.375 146.5 C11.11105469 146.92925781 11.84710938 147.35851562 12.60546875 147.80078125 C14.41044544 148.85563776 16.20618718 149.92626881 18 151 C24.79603171 144.65986433 27.20048954 133.09623234 29.3125 124.25 C29.47161865 123.5904834 29.6307373 122.9309668 29.79467773 122.25146484 C31.06811969 116.55076212 31.56173017 110.81764602 32 105 C31.31373535 104.98541748 30.6274707 104.97083496 29.92041016 104.95581055 C26.82136099 104.88149849 23.72340945 104.78478418 20.625 104.6875 C19.54476562 104.66494141 18.46453125 104.64238281 17.3515625 104.61914062 C16.3203125 104.58369141 15.2890625 104.54824219 14.2265625 104.51171875 C13.27346191 104.48553467 12.32036133 104.45935059 11.33837891 104.43237305 C10.56671387 104.28968994 9.79504883 104.14700684 9 104 C6.85237816 100.77856724 6.438932 99.7404533 7 96 C9.91110837 93.2379344 12.02395584 92.60902574 15.984375 92.48828125 C16.91894531 92.45283203 17.85351562 92.41738281 18.81640625 92.38085938 C19.78449219 92.35830078 20.75257813 92.33574219 21.75 92.3125 C22.73355469 92.27833984 23.71710938 92.24417969 24.73046875 92.20898438 C27.15353199 92.12664727 29.57623998 92.05745162 32 92 C30.40388815 76.01788005 26.75106841 61.60481132 20 47 C15.64363802 47.56545101 12.84795184 49.18776388 9.1875 51.5625 C4.02788805 54.67737685 0.95700872 55.89917113 -5 55 C-6 54 -6 54 -6.625 50.3125 C-6.58888635 47.42340788 -6.37918687 46.37831115 -4.30859375 44.3125 C-1.93269152 42.72581051 0.47889788 41.34383071 3 40 C3.85851562 39.51144531 4.71703125 39.02289063 5.6015625 38.51953125 C7.72080291 37.31862835 9.85167629 36.14780416 12 35 C9.64201116 30.13458127 6.38425824 26.19648022 3 22 C2.25169922 21.06220703 2.25169922 21.06220703 1.48828125 20.10546875 C-2.25896245 15.5574442 -6.45345684 11.73770121 -11 8 C-11.70898438 7.40316406 -12.41796875 6.80632812 -13.1484375 6.19140625 C-14.18871094 5.35416016 -14.18871094 5.35416016 -15.25 4.5 C-15.87390625 3.9946875 -16.4978125 3.489375 -17.140625 2.96875 C-18.94534494 1.80962458 -18.94534494 1.80962458 -20.96875 2.21459961 C-23.5544234 3.21437261 -24.06409432 4.1785291 -25.359375 6.59765625 C-25.94912109 7.67563477 -25.94912109 7.67563477 -26.55078125 8.77539062 C-26.94652344 9.53013672 -27.34226562 10.28488281 -27.75 11.0625 C-28.16121094 11.82111328 -28.57242188 12.57972656 -28.99609375 13.36132812 C-30.00926383 15.23451468 -31.0062056 17.11646233 -32 19 C-33.27875 19.061875 -34.5575 19.12375 -35.875 19.1875 C-36.95394531 19.23970703 -36.95394531 19.23970703 -38.0546875 19.29296875 C-38.69664062 19.19628906 -39.33859375 19.09960938 -40 19 C-42 16 -42 16 -41.87890625 13.265625 C-40.81119438 9.29848222 -39.07206237 6.23018458 -36.9375 2.75 C-34.12314722 -1.35257963 -34.12314722 -1.35257963 -33 -6 C-48.01433324 -13.19394702 -62.28479031 -17.28321306 -79 -18 C-79.01458252 -17.31373535 -79.02916504 -16.6274707 -79.04418945 -15.92041016 C-79.11850151 -12.82136099 -79.21521582 -9.72340945 -79.3125 -6.625 C-79.33505859 -5.54476562 -79.35761719 -4.46453125 -79.38085938 -3.3515625 C-79.4340332 -1.8046875 -79.4340332 -1.8046875 -79.48828125 -0.2265625 C-79.51446533 0.72653809 -79.54064941 1.67963867 -79.56762695 2.66162109 C-79.71031006 3.43328613 -79.85299316 4.20495117 -80 5 C-83 7 -83 7 -86.125 6.6875 C-89 6 -89 6 -90 5 C-90.15740605 3.29436222 -90.25093392 1.58272756 -90.31640625 -0.12890625 C-90.35830078 -1.16337891 -90.40019531 -2.19785156 -90.44335938 -3.26367188 C-90.48267578 -4.35228516 -90.52199219 -5.44089844 -90.5625 -6.5625 C-90.60568359 -7.65498047 -90.64886719 -8.74746094 -90.69335938 -9.87304688 C-90.79982068 -12.58189564 -90.90183516 -15.29083992 -91 -18 C-102.16815444 -18.31215338 -113.22104854 -15.5017101 -123.75 -12 Z " fill="#000000" transform="translate(321,154)"/>
<path d="M0 0 C1.6396875 -0.02900391 1.6396875 -0.02900391 3.3125 -0.05859375 C11.21085041 -0.010197 11.21085041 -0.010197 14.703125 2.80078125 C16.09876488 5.84008134 16.58940618 8.10517827 16.75 11.4375 C16.80671875 12.41332031 16.8634375 13.38914062 16.921875 14.39453125 C16.94765625 15.13058594 16.9734375 15.86664063 17 16.625 C17.845625 16.728125 18.69125 16.83125 19.5625 16.9375 C23.41442701 17.7078854 26.44075031 18.98774514 30 20.625 C30.49628906 20.191875 30.99257813 19.75875 31.50390625 19.3125 C32.18324219 18.755625 32.86257813 18.19875 33.5625 17.625 C34.55443359 16.7896875 34.55443359 16.7896875 35.56640625 15.9375 C38.97055415 14.10155506 41.18552434 14.10350608 45 14.625 C47.6953125 16.671875 47.6953125 16.671875 50.125 19.375 C53.25503544 22.79503872 56.37505714 25.74009738 60 28.625 C61.49590709 31.61681417 61.42743011 33.2666206 61 36.625 C59.9535122 38.06909794 58.86558913 39.48359192 57.75 40.875 C55.99886743 43.10379376 55.99886743 43.10379376 55 45.625 C55.54058927 48.58536982 56.52125567 50.80194265 57.9140625 53.4609375 C59 55.625 59 55.625 59 58.625 C59.67546875 58.67398438 60.3509375 58.72296875 61.046875 58.7734375 C61.93890625 58.84820312 62.8309375 58.92296875 63.75 59 C64.63171875 59.06960937 65.5134375 59.13921875 66.421875 59.2109375 C69.02386288 59.62883252 70.77433233 60.23145133 73 61.625 C75.05217837 65.72935673 74.18489112 71.05175128 74.1875 75.5625 C74.19974609 76.67302734 74.21199219 77.78355469 74.22460938 78.92773438 C74.22654297 79.99185547 74.22847656 81.05597656 74.23046875 82.15234375 C74.23457764 83.12937256 74.23868652 84.10640137 74.24291992 85.11303711 C74 87.625 74 87.625 72 90.625 C67.17653731 92.15242985 63.08706057 92.87935303 58 92.625 C57.87882813 93.21667969 57.75765625 93.80835937 57.6328125 94.41796875 C56.73255357 98.66303585 55.79543379 102.64939661 54 106.625 C54.433125 107.0375 54.86625 107.45 55.3125 107.875 C58.20922252 110.87900854 60.4534071 113.34928923 60.8125 117.625 C60.45191281 121.97720352 58.24825358 124.09747575 55.05859375 126.8828125 C54.37925781 127.45773438 53.69992187 128.03265625 53 128.625 C52.35160156 129.28242188 51.70320313 129.93984375 51.03515625 130.6171875 C47.95846941 133.65122719 45.43631439 136.07287142 41 136.4375 C36.03920914 136.01425792 32.58872811 132.83194853 29 129.625 C28.07767578 130.058125 28.07767578 130.058125 27.13671875 130.5 C26.32847656 130.87125 25.52023437 131.2425 24.6875 131.625 C23.88699219 131.99625 23.08648437 132.3675 22.26171875 132.75 C20 133.625 20 133.625 17 133.625 C16.96261719 134.37265625 16.92523438 135.1203125 16.88671875 135.890625 C16.82097656 136.87546875 16.75523437 137.8603125 16.6875 138.875 C16.62949219 139.84953125 16.57148438 140.8240625 16.51171875 141.828125 C15.9252442 145.03358897 15.28035522 146.31582561 13 148.625 C10.3203125 149.14257812 10.3203125 149.14257812 7.125 149.15625 C5.97515625 149.16140625 4.8253125 149.1665625 3.640625 149.171875 C2.43921875 149.15640625 1.2378125 149.1409375 0 149.125 C-1.20140625 149.14046875 -2.4028125 149.1559375 -3.640625 149.171875 C-5.36539063 149.16414063 -5.36539063 149.16414063 -7.125 149.15625 C-8.70667969 149.14948242 -8.70667969 149.14948242 -10.3203125 149.14257812 C-13 148.625 -13 148.625 -14.83520508 146.76660156 C-16.3008129 144.07192292 -16.50584227 141.92684984 -16.6875 138.875 C-16.75324219 137.89015625 -16.81898438 136.9053125 -16.88671875 135.890625 C-16.94279297 134.76914062 -16.94279297 134.76914062 -17 133.625 C-18.2684375 133.4703125 -18.2684375 133.4703125 -19.5625 133.3125 C-23.41442701 132.5421146 -26.44075031 131.26225486 -30 129.625 C-30.4125 130.058125 -30.825 130.49125 -31.25 130.9375 C-31.8275 131.494375 -32.405 132.05125 -33 132.625 C-33.556875 133.181875 -34.11375 133.73875 -34.6875 134.3125 C-38.14993303 136.27766469 -41.20312773 136.57940505 -45 135.625 C-48.09171156 133.68163845 -50.48745411 131.25742879 -53 128.625 C-53.67933594 127.97660156 -54.35867188 127.32820313 -55.05859375 126.66015625 C-58.25322457 123.4141028 -60.43508188 121.01266216 -60.609375 116.33203125 C-60.02201008 112.75889468 -59.81205141 111.65664497 -57.25 109.3125 C-55.76010015 107.67990942 -55.76010015 107.67990942 -55 105.625 C-55.62032818 102.54071092 -56.65706418 99.94246764 -57.94921875 97.078125 C-59 94.625 -59 94.625 -59 91.625 C-59.74765625 91.59921875 -60.4953125 91.5734375 -61.265625 91.546875 C-62.74289062 91.46179688 -62.74289062 91.46179688 -64.25 91.375 C-65.22453125 91.32859375 -66.1990625 91.2821875 -67.203125 91.234375 C-70.69907355 90.47268789 -71.7684296 89.38639939 -74 86.625 C-74.48583984 84.10717773 -74.48583984 84.10717773 -74.4609375 81.30859375 C-74.45707031 80.29732422 -74.45320313 79.28605469 -74.44921875 78.24414062 C-74.42472656 77.19419922 -74.40023438 76.14425781 -74.375 75.0625 C-74.37371094 74.00869141 -74.37242187 72.95488281 -74.37109375 71.86914062 C-74.28123985 64.04685978 -74.28123985 64.04685978 -72 60.625 C-67.55188368 59.23952115 -63.68287298 58.33232044 -59 58.625 C-58.896875 57.75875 -58.79375 56.8925 -58.6875 56 C-58 52.625 -58 52.625 -56.3125 49.5625 C-54.69233513 46.73604132 -54.69233513 46.73604132 -55.625 44 C-56.89795283 41.61443836 -56.89795283 41.61443836 -58.625 39.8125 C-60.71398263 36.48911855 -60.82436349 33.36815651 -60 29.625 C-58.04517903 26.5277846 -55.58575122 24.13597147 -52.9375 21.625 C-51.95233398 20.60599609 -51.95233398 20.60599609 -50.94726562 19.56640625 C-47.69055118 16.3770721 -45.85397345 14.77195871 -41.27734375 13.984375 C-37.7485746 14.67414632 -36.28667776 15.52946021 -33.625 17.875 C-31.42743555 19.61316978 -31.42743555 19.61316978 -29 20.625 C-26.26253859 20.07924029 -24.34037303 19.12737114 -21.9453125 17.7109375 C-20 16.625 -20 16.625 -17 16.625 C-16.96132813 15.52091797 -16.96132813 15.52091797 -16.921875 14.39453125 C-16.83679688 12.93080078 -16.83679688 12.93080078 -16.75 11.4375 C-16.70359375 10.47457031 -16.6571875 9.51164063 -16.609375 8.51953125 C-14.62892511 -0.88760573 -8.17695918 -0.14463961 0 0 Z M-4 13.625 C-4.09796875 14.38425781 -4.1959375 15.14351562 -4.296875 15.92578125 C-4.44640625 16.91964844 -4.5959375 17.91351563 -4.75 18.9375 C-4.88921875 19.92363281 -5.0284375 20.90976562 -5.171875 21.92578125 C-6.17818777 25.20579127 -7.04134323 25.96426865 -10 27.625 C-11.78976011 28.35050633 -13.60513231 29.01505791 -15.4375 29.625 C-18.41243182 30.61802314 -20.92410198 31.57857362 -23.60546875 33.21875 C-27.02635594 35.2277539 -30.19194695 35.42972064 -34 34.625 C-36.64590363 33.18722595 -38.66680236 31.56933137 -41 29.625 C-42.32 30.945 -43.64 32.265 -45 33.625 C-43.92598892 36.54017292 -43.22189824 38.40310176 -41 40.625 C-40.21095566 46.93735469 -41.68067119 50.58003323 -44.6953125 56.08984375 C-46.31487845 59.23684465 -47.33758576 62.42284063 -48.32421875 65.8125 C-49 67.625 -49 67.625 -51 69.625 C-53.3828125 70.2578125 -53.3828125 70.2578125 -56.125 70.75 C-57.49011719 71.00136719 -57.49011719 71.00136719 -58.8828125 71.2578125 C-59.58148438 71.37898438 -60.28015625 71.50015625 -61 71.625 C-61 73.935 -61 76.245 -61 78.625 C-60.25234375 78.72554688 -59.5046875 78.82609375 -58.734375 78.9296875 C-50.82487829 80.44118818 -50.82487829 80.44118818 -48.5546875 83.69921875 C-47.625 86.1875 -47.625 86.1875 -46.8359375 88.87109375 C-45.956928 91.76689606 -44.7248146 94.11407446 -43.25 96.75 C-40.88158916 101.42082881 -40.20616086 104.42094343 -41 109.625 C-43 112.625 -43 112.625 -45 114.625 C-43.63016497 117.78615776 -43.0109362 118.6177092 -40 120.625 C-39.56429687 120.2640625 -39.12859375 119.903125 -38.6796875 119.53125 C-37.78636719 118.83515625 -37.78636719 118.83515625 -36.875 118.125 C-36.00488281 117.42890625 -36.00488281 117.42890625 -35.1171875 116.71875 C-32.19955843 115.21148775 -30.25385603 115.2792778 -27 115.625 C-24.0703125 116.83203125 -24.0703125 116.83203125 -21.125 118.4375 C-17.54222782 120.36908152 -14.38603714 121.86368331 -10.4375 122.8125 C-7 124.625 -7 124.625 -5.84765625 127.25 C-5.0767413 130.03524112 -4.46469284 132.77391578 -4 135.625 C-1.36 135.625 1.28 135.625 4 135.625 C4.10054688 134.87734375 4.20109375 134.1296875 4.3046875 133.359375 C5.81618818 125.44987829 5.81618818 125.44987829 9.07421875 123.1796875 C10.77366617 122.54472912 12.49817225 121.97407913 14.23828125 121.4609375 C17.16124691 120.57619259 19.57578837 119.33954555 22.25 117.875 C26.0480522 115.9670861 28.69795956 114.66899101 33 115.625 C35.50140851 117.10241032 37.76453843 118.77313834 40 120.625 C43.12197478 119.3160428 43.12197478 119.3160428 45 116.625 C44.175 115.614375 43.35 114.60375 42.5 113.5625 C40.7241482 111.00812292 39.98261371 109.54439082 39.3125 106.4375 C40.18529535 101.59745306 42.16849983 97.86890721 44.51171875 93.5703125 C45.81900298 90.98319357 46.49086106 88.85683581 47.125 86.0625 C49 82.625 49 82.625 51.84765625 81.47265625 C54.89272941 80.69981312 57.89376669 80.0873231 61 79.625 C61 76.985 61 74.345 61 71.625 C60.31292969 71.52703125 59.62585938 71.4290625 58.91796875 71.328125 C58.01691406 71.17859375 57.11585938 71.0290625 56.1875 70.875 C55.29417969 70.73578125 54.40085937 70.5965625 53.48046875 70.453125 C50.37059631 69.41486838 49.60606269 68.45610751 48 65.625 C47.2681773 63.66898858 46.60496088 61.68639156 46 59.6875 C45.03436667 56.50493348 44.13169385 53.84255308 42.40625 50.9921875 C40.39441786 47.6056034 40.17465103 44.40539305 41 40.625 C42.45041984 38.24288686 44.00528682 36.61971318 46 34.625 C44.35 32.975 42.7 31.325 41 29.625 C40.01 30.45 39.02 31.275 38 32.125 C34.83191213 34.33191151 32.29067015 35.43565456 28.3046875 35.1875 C24.17329439 34.17915999 20.56560541 32.15394795 16.84765625 30.1328125 C14.51260528 28.89642063 12.36786318 28.00978055 9.875 27.1875 C7 25.625 7 25.625 5.625 22.25 C5.315625 20.455625 5.315625 20.455625 5 18.625 C4.690625 17.1709375 4.690625 17.1709375 4.375 15.6875 C4.25125 15.006875 4.1275 14.32625 4 13.625 C1.36 13.625 -1.28 13.625 -4 13.625 Z " fill="#000000" transform="translate(430,6.375)"/>
<path d="M0 0 C0.92876953 0.00185303 1.85753906 0.00370605 2.81445312 0.00561523 C3.82894531 0.0049707 4.8434375 0.00432617 5.88867188 0.00366211 C6.94699219 0.02364258 8.0053125 0.04362305 9.09570312 0.06420898 C10.15402344 0.05711914 11.21234375 0.0500293 12.30273438 0.04272461 C20.07950204 0.10695458 20.07950204 0.10695458 22.38989258 1.8737793 C24.05390491 4.12031386 24.10357618 5.92295399 24.28320312 8.68920898 C24.34894531 9.59026367 24.4146875 10.49131836 24.48242188 11.41967773 C24.53849609 12.4502832 24.53849609 12.4502832 24.59570312 13.50170898 C31.4731057 16.41066088 31.4731057 16.41066088 38.59570312 15.50170898 C39.21445313 14.98608398 39.83320312 14.47045898 40.47070312 13.93920898 C43.71967213 11.74137701 45.72784339 11.99309134 49.59570312 12.50170898 C52.45297545 14.35626703 54.69377254 16.6659746 57.03320312 19.12670898 C57.98743164 20.05290039 57.98743164 20.05290039 58.9609375 20.99780273 C61.85471939 23.9506414 63.45148249 25.62488933 64.13476562 29.77905273 C63.59570312 32.50170898 63.59570312 32.50170898 61.53320312 35.43920898 C59.24607539 38.4010168 59.24607539 38.4010168 59.78320312 42.06420898 C60.18539062 43.76577148 60.18539062 43.76577148 60.59570312 45.50170898 C60.93364431 47.16744745 61.26785402 48.83395485 61.59570312 50.50170898 C62.35496094 50.5390918 63.11421875 50.57647461 63.89648438 50.61499023 C64.89035156 50.68073242 65.88421875 50.74647461 66.90820312 50.81420898 C68.38740234 50.9012207 68.38740234 50.9012207 69.89648438 50.98999023 C72.97854038 51.57428739 73.72393454 52.05132034 75.59570312 54.50170898 C76.23169966 58.11670561 76.05902716 61.77454392 76.03320312 65.43920898 C76.05318359 66.44145508 76.07316406 67.44370117 76.09375 68.47631836 C76.08889595 75.75254136 76.08889595 75.75254136 73.84960938 79.15405273 C71.41206553 80.61150963 69.90389848 80.94398394 67.09570312 81.12670898 C63.99824611 81.69783478 62.91947401 82.08970669 60.94726562 84.59936523 C59.65620625 87.32539187 58.87604148 89.49485408 58.59570312 92.50170898 C59.55985505 94.69024853 60.74341614 96.13500388 62.31445312 97.92749023 C63.59570312 99.50170898 63.59570312 99.50170898 64.34570312 102.43920898 C63.16004181 107.28065934 60.075531 110.06142461 56.59570312 113.50170898 C55.93570313 114.19522461 55.27570313 114.88874023 54.59570312 115.60327148 C49.6566382 120.4458703 49.6566382 120.4458703 45.03320312 120.68920898 C42.21130846 119.71437265 40.51153413 118.84970856 38.09570312 117.25170898 C36.94070312 116.67420898 35.78570312 116.09670898 34.59570312 115.50170898 C30.84213352 116.63391193 30.84213352 116.63391193 27.59570312 118.50170898 C26.60570313 118.50170898 25.61570312 118.50170898 24.59570312 118.50170898 C24.56992188 119.17717773 24.54414062 119.85264648 24.51757812 120.54858398 C24.4325 121.88663086 24.4325 121.88663086 24.34570312 123.25170898 C24.29929687 124.13342773 24.25289063 125.01514648 24.20507812 125.92358398 C23.373796 129.44054682 22.64973592 130.50835824 19.59570312 132.50170898 C16.08541628 133.09008529 12.64715634 133.05953455 9.09570312 133.00170898 C8.14566406 133.01717773 7.195625 133.03264648 6.21679688 133.04858398 C-0.63021152 133.01006354 -0.63021152 133.01006354 -4.02148438 130.78295898 C-5.59559619 128.18611916 -5.85489737 126.51239521 -6.02929688 123.50170898 C-6.57204568 120.21098876 -6.88928972 118.92272973 -9.50195312 116.78686523 C-12.23861958 115.4948945 -14.38413825 114.74241336 -17.40429688 114.50170898 C-19.58962964 115.46870808 -21.03876712 116.65045213 -22.83007812 118.22045898 C-24.40429688 119.50170898 -24.40429688 119.50170898 -27.34179688 120.25170898 C-32.18324723 119.06604767 -34.9640125 115.98153686 -38.40429688 112.50170898 C-39.0978125 111.84170898 -39.79132812 111.18170898 -40.50585938 110.50170898 C-45.34845819 105.56264406 -45.34845819 105.56264406 -45.59179688 100.93920898 C-44.61696054 98.11731432 -43.75229645 96.41753999 -42.15429688 94.00170898 C-41.57679687 92.84670898 -40.99929687 91.69170898 -40.40429688 90.50170898 C-41.53649982 86.74813938 -41.53649982 86.74813938 -43.40429688 83.50170898 C-43.40429688 82.51170898 -43.40429688 81.52170898 -43.40429688 80.50170898 C-44.07976563 80.47592773 -44.75523438 80.45014648 -45.45117188 80.42358398 C-46.34320313 80.36686523 -47.23523438 80.31014648 -48.15429688 80.25170898 C-49.03601562 80.20530273 -49.91773438 80.15889648 -50.82617188 80.11108398 C-54.34313471 79.27980186 -55.41094613 78.55574178 -57.40429688 75.50170898 C-57.99267318 71.99142214 -57.96212244 68.5531622 -57.90429688 65.00170898 C-57.91976562 64.05166992 -57.93523438 63.10163086 -57.95117188 62.12280273 C-57.9126785 55.2806056 -57.9126785 55.2806056 -55.70117188 51.89233398 C-53.0408522 50.28166425 -51.24803902 49.91453752 -48.15429688 49.75170898 C-46.81625 49.66663086 -46.81625 49.66663086 -45.45117188 49.57983398 C-44.77570312 49.55405273 -44.10023437 49.52827148 -43.40429688 49.50170898 C-43.28054687 48.61483398 -43.15679687 47.72795898 -43.02929688 46.81420898 C-42.40429688 43.50170898 -42.40429688 43.50170898 -41.02929688 41.12670898 C-40.11552558 38.55267764 -40.11552558 38.55267764 -41.38867188 36.58764648 C-42.30050216 35.21990106 -43.25055526 33.8767246 -44.24023438 32.56420898 C-45.7399305 29.90702927 -45.90029094 28.51441366 -45.40429688 25.50170898 C-42.805372 21.80546027 -39.58723442 18.70035182 -36.40429688 15.50170898 C-35.84742187 14.9100293 -35.29054688 14.31834961 -34.71679688 13.70874023 C-32.0513826 11.12299867 -30.65069141 10.50610889 -26.90429688 10.43920898 C-23.40429688 11.50170898 -23.40429688 11.50170898 -20.27929688 13.62670898 C-17.62477385 15.77274444 -17.62477385 15.77274444 -14.90429688 15.31420898 C-14.07929687 15.04608398 -13.25429688 14.77795898 -12.40429688 14.50170898 C-10.40532559 14.16226103 -8.40554049 13.82749283 -6.40429688 13.50170898 C-6.36691406 12.89842773 -6.32953125 12.29514648 -6.29101562 11.67358398 C-6.22527344 10.87436523 -6.15953125 10.07514648 -6.09179688 9.25170898 C-6.00478516 8.06834961 -6.00478516 8.06834961 -5.91601562 6.86108398 C-5.1121439 3.15468307 -3.85705876 0.80485944 0 0 Z M6.59570312 13.50170898 C6.48613281 14.12819336 6.3765625 14.75467773 6.26367188 15.40014648 C6.02583984 16.62604492 6.02583984 16.62604492 5.78320312 17.87670898 C5.63238281 18.68881836 5.4815625 19.50092773 5.32617188 20.33764648 C4.59570312 22.50170898 4.59570312 22.50170898 1.59570312 24.50170898 C-0.57683672 25.23511415 -2.76682291 25.91773619 -4.96679688 26.56420898 C-9.28338588 27.78423411 -9.28338588 27.78423411 -13.40429688 29.50170898 C-19.48791958 30.09814258 -22.46005791 28.73059974 -27.40429688 25.50170898 C-28.39429687 26.82170898 -29.38429688 28.14170898 -30.40429688 29.50170898 C-29.74429688 30.34733398 -29.08429687 31.19295898 -28.40429688 32.06420898 C-26.01842635 36.16492395 -25.70282963 37.82526069 -26.40429688 42.50170898 C-27.50678545 45.11065141 -28.75657069 47.57500006 -30.10742188 50.06420898 C-31.23712508 52.18750657 -32.12428968 54.25502312 -32.96679688 56.50170898 C-34.40429688 59.50170898 -34.40429688 59.50170898 -36.21679688 60.87670898 C-38.92525758 61.6505549 -41.61490531 62.12133741 -44.40429688 62.50170898 C-44.40429688 64.15170898 -44.40429688 65.80170898 -44.40429688 67.50170898 C-43.78941406 67.58807617 -43.17453125 67.67444336 -42.54101562 67.76342773 C-35.93958647 68.91104461 -35.93958647 68.91104461 -33.59179688 71.50170898 C-33.19992188 72.49170898 -32.80804688 73.48170898 -32.40429688 74.50170898 C-32.07945313 75.29706055 -31.75460938 76.09241211 -31.41992188 76.91186523 C-30.7197513 78.63438633 -30.03518725 80.36336418 -29.36914062 82.09936523 C-28.45274737 84.48904009 -28.45274737 84.48904009 -27.30664062 86.63452148 C-25.9449473 89.45222455 -26.03953181 91.40120593 -26.40429688 94.50170898 C-27.56022879 96.99952709 -28.91376954 99.17276003 -30.40429688 101.50170898 C-29.08429687 102.49170898 -27.76429687 103.48170898 -26.40429688 104.50170898 C-25.10492188 103.51170898 -25.10492188 103.51170898 -23.77929688 102.50170898 C-20.00960312 100.26781639 -18.67993844 100.09450503 -14.40429688 100.50170898 C-11.15039063 101.74389648 -11.15039063 101.74389648 -7.84179688 103.37670898 C-3.26940848 105.61771459 -3.26940848 105.61771459 1.41992188 107.59155273 C3.59570312 108.50170898 3.59570312 108.50170898 4.84570312 110.18920898 C5.84088867 113.25769774 6.22669394 116.30362934 6.59570312 119.50170898 C8.24570313 119.50170898 9.89570312 119.50170898 11.59570312 119.50170898 C11.68207031 118.88682617 11.7684375 118.27194336 11.85742188 117.63842773 C13.00503875 111.03699858 13.00503875 111.03699858 15.59570312 108.68920898 C16.58570313 108.29733398 17.57570312 107.90545898 18.59570312 107.50170898 C19.78873047 107.01444336 19.78873047 107.01444336 21.00585938 106.51733398 C22.72838047 105.81716341 24.45735832 105.13259936 26.19335938 104.46655273 C28.58303424 103.55015948 28.58303424 103.55015948 30.72851562 102.40405273 C33.54621869 101.04235941 35.49520007 101.13694392 38.59570312 101.50170898 C41.09352123 102.6576409 43.26675417 104.01118165 45.59570312 105.50170898 C46.58570312 104.18170898 47.57570313 102.86170898 48.59570312 101.50170898 C47.93570313 100.63545898 47.27570313 99.76920898 46.59570312 98.87670898 C44.33358536 95.05938525 43.84642294 93.83088337 44.59570312 89.50170898 C45.72256338 86.94691893 46.97637615 84.4999378 48.29882812 82.04077148 C49.48685948 79.71480648 50.34771664 77.47819545 51.15820312 75.00170898 C52.59570313 71.50170898 52.59570313 71.50170898 54.40820312 70.06420898 C57.12163815 69.36646855 59.82028049 68.88017571 62.59570312 68.50170898 C62.59570312 66.85170898 62.59570312 65.20170898 62.59570312 63.50170898 C61.9434375 63.53135742 61.29117188 63.56100586 60.61914062 63.59155273 C57.40635168 63.40674629 55.44130976 63.0561747 52.59570312 61.50170898 C50.45187066 57.76085153 49.07528431 54.09013745 47.75195312 50.00561523 C46.74851018 46.44272789 46.74851018 46.44272789 44.59570312 43.50170898 C43.83985659 37.95883439 45.69845078 35.02866577 48.59570312 30.50170898 C47.27570313 29.51170898 45.95570312 28.52170898 44.59570312 27.50170898 C43.72945313 28.16170898 42.86320312 28.82170898 41.97070312 29.50170898 C38.21580303 31.72683496 36.85311518 31.9069262 32.59570312 31.50170898 C29.63085937 30.29467773 29.63085937 30.29467773 26.65820312 28.68920898 C23.275405 26.87384403 20.14080303 25.29716367 16.47070312 24.18920898 C13.59570312 22.50170898 13.59570312 22.50170898 12.73242188 20.32202148 C12.21077907 18.04382639 11.83439125 15.82526477 11.59570312 13.50170898 C9.94570312 13.50170898 8.29570313 13.50170898 6.59570312 13.50170898 Z " fill="#000000" transform="translate(64.404296875,372.498291015625)"/>
<path d="M0 0 C0.70125 0.00515625 1.4025 0.0103125 2.125 0.015625 C2.82625 0.01046875 3.5275 0.0053125 4.25 0 C6.125 0.265625 6.125 0.265625 8.125 2.265625 C8.29739189 4.86844146 8.35359993 7.37441492 8.328125 9.9765625 C8.3386742 11.54688329 8.35043075 13.11719635 8.36328125 14.6875 C8.37359771 17.1654144 8.37498687 19.64225152 8.35498047 22.12011719 C8.34021205 24.51069614 8.36267139 26.89865225 8.390625 29.2890625 C8.37525696 30.02772552 8.35988892 30.76638855 8.34405518 31.5274353 C8.32543534 33.9051176 8.32543534 33.9051176 9.125 37.265625 C11.93529694 39.67822925 11.93529694 39.67822925 15.125 41.265625 C18.88633119 45.43358659 20.26850724 48.36362511 20.1875 53.953125 C20.17847656 54.76136719 20.16945312 55.56960937 20.16015625 56.40234375 C20.14855469 57.01722656 20.13695312 57.63210937 20.125 58.265625 C20.85662354 58.5430957 21.58824707 58.82056641 22.34204102 59.10644531 C24.92996622 60.18438802 27.23994753 61.39135499 29.65234375 62.8125 C30.51706299 63.32127686 31.38178223 63.83005371 32.27270508 64.35424805 C33.1933374 64.90250244 34.11396973 65.45075684 35.0625 66.015625 C36.01729248 66.5825708 36.97208496 67.1495166 37.95581055 67.73364258 C45.17538739 72.04652168 52.32804756 76.46121433 59.4375 80.953125 C60.39197021 81.55286133 61.34644043 82.15259766 62.32983398 82.77050781 C63.64576538 83.6092041 63.64576538 83.6092041 64.98828125 84.46484375 C65.76469971 84.95815186 66.54111816 85.45145996 67.34106445 85.9597168 C69.125 87.265625 69.125 87.265625 70.125 89.265625 C70.57220497 94.52028339 70.57220497 94.52028339 69 97.140625 C66.10991681 98.87467491 64.50448194 98.66920153 61.125 98.265625 C57.66107382 96.69431116 54.47963311 94.70485913 51.25 92.703125 C50.3019751 92.13263428 49.3539502 91.56214355 48.37719727 90.97436523 C43.0308982 87.73795348 37.7603076 84.39649207 32.51953125 80.9921875 C30.90183838 79.95106812 30.90183838 79.95106812 29.25146484 78.88891602 C27.15084028 77.53143845 25.06090826 76.15724751 22.98291016 74.76538086 C22.02819824 74.14800049 21.07348633 73.53062012 20.08984375 72.89453125 C18.83095337 72.0603064 18.83095337 72.0603064 17.54663086 71.20922852 C15.11585027 69.9776798 15.11585027 69.9776798 12.50219727 71.03881836 C11.71772217 71.44366455 10.93324707 71.84851074 10.125 72.265625 C4.44107788 74.16026571 -1.64247231 74.15863125 -7.1875 71.765625 C-11.55651739 69.21333898 -14.2030172 66.04935358 -15.875 61.265625 C-16.75175626 54.84169934 -16.82437546 48.6631048 -12.875 43.265625 C-10.43758751 40.88671041 -7.94091676 38.79858338 -4.875 37.265625 C-4.845271 35.69095459 -4.845271 35.69095459 -4.81494141 34.08447266 C-4.73897802 30.19669239 -4.65024702 26.30929097 -4.55761719 22.421875 C-4.51928896 20.73803171 -4.48444288 19.05410545 -4.453125 17.37011719 C-4.40755713 14.95217194 -4.34955077 12.53479972 -4.2890625 10.1171875 C-4.27173569 8.98429794 -4.27173569 8.98429794 -4.25405884 7.82852173 C-4.0482924 0.57350809 -4.0482924 0.57350809 0 0 Z M-1 50.390625 C-3.18490066 52.19057443 -3.18490066 52.19057443 -3.25 55.328125 C-3.16430236 58.38423741 -3.16430236 58.38423741 -0.875 60.265625 C2.125 60.68229167 2.125 60.68229167 5.125 60.265625 C7.27262184 57.04419224 7.686068 56.0060783 7.125 52.265625 C4.25339893 49.48974397 2.6677523 48.44887378 -1 50.390625 Z " fill="#000000" transform="translate(233.875,197.734375)"/>
<path d="M0 0 C5.46404118 4.10546833 10.7918321 9.73034975 12.15234375 16.6171875 C13.09828753 25.92782512 12.9235523 33.95820045 7.15234375 41.6171875 C0.75653471 48.96984986 -5.77177773 51.96620052 -15.34765625 52.9921875 C-24.54802255 52.00643397 -32.41978295 49.05907759 -38.3828125 41.73046875 C-43.21386825 34.56135104 -44.82520878 26.89689993 -43.48828125 18.30859375 C-41.57005284 10.00059099 -36.59072074 4.10262126 -29.78515625 -0.8984375 C-20.83272797 -5.71375877 -8.64233977 -5.09049631 0 0 Z M-25.59765625 12.8046875 C-29.03982123 17.10739373 -30.88304446 20.60005937 -30.78515625 26.1796875 C-29.27878151 31.70306153 -27.07916816 35.19692428 -22.09765625 38.0546875 C-17.78479931 39.97062209 -14.32502789 40.06329511 -9.84765625 38.6171875 C-5.51501968 36.32824742 -2.65143163 34.22683568 -0.84765625 29.6171875 C-0.30053742 25.01227072 -0.23345895 21.02984128 -2.09765625 16.7421875 C-2.67515625 16.0409375 -3.25265625 15.3396875 -3.84765625 14.6171875 C-4.40453125 13.8953125 -4.96140625 13.1734375 -5.53515625 12.4296875 C-11.94884057 7.40274573 -19.2212885 7.73257679 -25.59765625 12.8046875 Z " fill="#000000" transform="translate(445.84765625,57.3828125)"/>
<path d="M0 0 C0.76171509 -0.00619858 1.52343018 -0.01239716 2.30822754 -0.01878357 C3.91527023 -0.02587298 5.52238649 -0.02272293 7.12939453 -0.01000977 C9.58633629 0.00386439 12.03947322 -0.03022837 14.49609375 -0.06835938 C16.05989676 -0.06931057 17.62370454 -0.06745173 19.1875 -0.0625 C19.91988892 -0.07575821 20.65227783 -0.08901642 21.40686035 -0.10267639 C24.94743382 -0.03813307 26.78703533 0.31518101 29.55249023 2.58032227 C31.52738436 6.40654276 31.68735537 9.76195603 31.66015625 13.97265625 C31.66945412 15.17613708 31.66945412 15.17613708 31.67893982 16.40393066 C31.68602243 18.0949584 31.68289116 19.78605609 31.67016602 21.47705078 C31.6562902 24.05892574 31.69039948 26.63718035 31.72851562 29.21875 C31.72946684 30.8658863 31.72760789 32.51302712 31.72265625 34.16015625 C31.73591446 34.92799438 31.74917267 35.69583252 31.76283264 36.48693848 C31.69673143 40.30673331 31.21571622 42.39034477 29.02514648 45.55249023 C25.46544325 47.99806298 22.74084977 48.27673824 18.5625 48.1953125 C17.49219543 48.19893044 17.49219543 48.19893044 16.40026855 48.20262146 C14.89748556 48.2016456 13.39466546 48.1883139 11.89208984 48.16333008 C9.59998713 48.12899967 7.31174028 48.14268387 5.01953125 48.16210938 C3.55467119 48.15521043 2.08982103 48.14553758 0.625 48.1328125 C-0.05534302 48.13777237 -0.73568604 48.14273224 -1.43664551 48.14784241 C-4.69457117 48.0677491 -6.92408375 47.55736238 -9.83764648 46.07983398 C-12.84908504 42.42082774 -12.60972204 39.39628412 -12.53515625 34.78515625 C-12.53756821 33.93465698 -12.53998016 33.08415771 -12.54246521 32.20788574 C-12.54148716 30.41246877 -12.52810331 28.6170215 -12.50317383 26.82177734 C-12.46886304 24.07545412 -12.48251517 21.33234882 -12.50195312 18.5859375 C-12.49505448 16.83983007 -12.48538193 15.09373094 -12.47265625 13.34765625 C-12.47761612 12.52777222 -12.48257599 11.70788818 -12.48768616 10.86315918 C-12.41398711 7.29092315 -12.2579856 5.14000328 -10.36499023 2.05297852 C-6.96365581 -0.00349307 -3.86329445 -0.02616292 0 0 Z M1.09375 13.56640625 C1.09375 20.49640625 1.09375 27.42640625 1.09375 34.56640625 C6.70375 34.56640625 12.31375 34.56640625 18.09375 34.56640625 C18.09375 27.63640625 18.09375 20.70640625 18.09375 13.56640625 C12.48375 13.56640625 6.87375 13.56640625 1.09375 13.56640625 Z " fill="#000000" transform="translate(442.90625,370.43359375)"/>
<path d="M0 0 C0.76171509 -0.00241196 1.52343018 -0.00482391 2.30822754 -0.00730896 C3.91533627 -0.00633142 5.52247906 0.00704031 7.12939453 0.03198242 C9.58612708 0.06629977 12.03926255 0.0526393 14.49609375 0.03320312 C16.05991111 0.04010185 17.6237192 0.04977448 19.1875 0.0625 C19.91988892 0.05754013 20.65227783 0.05258026 21.40686035 0.04747009 C24.61053738 0.12126429 26.79300986 0.44707657 29.55249023 2.11547852 C31.83066668 5.8306419 31.68607 9.12652097 31.66015625 13.41015625 C31.66945412 14.68590515 31.66945412 14.68590515 31.67893982 15.98742676 C31.68603304 17.78278459 31.68287259 19.57820827 31.67016602 21.37353516 C31.65629475 24.12004572 31.69038047 26.86315194 31.72851562 29.609375 C31.72946681 31.35546958 31.72760803 33.10156843 31.72265625 34.84765625 C31.73591446 35.66754028 31.74917267 36.48742432 31.76283264 37.33215332 C31.69875817 41.25642484 31.57956587 43.03862249 29.02514648 46.14233398 C25.46976225 47.94534345 22.46558484 48.22376696 18.5625 48.1953125 C17.84896362 48.20151108 17.13542725 48.20770966 16.40026855 48.21409607 C14.89755614 48.22117329 13.39476497 48.2180568 11.89208984 48.20532227 C9.59976356 48.19144266 7.3115139 48.22556232 5.01953125 48.26367188 C3.55468651 48.2646231 2.08983668 48.26276407 0.625 48.2578125 C-0.05534302 48.27107071 -0.73568604 48.28432892 -1.43664551 48.29798889 C-5.01478732 48.22837165 -6.87128826 47.65292552 -9.83764648 45.61499023 C-12.47816145 41.80333691 -12.61251125 38.7026064 -12.53515625 34.22265625 C-12.53756821 33.42033569 -12.53998016 32.61801514 -12.54246521 31.79138184 C-12.54148862 30.10029136 -12.52813958 28.40916818 -12.50317383 26.71826172 C-12.46885209 24.13658552 -12.48252468 21.55833285 -12.50195312 18.9765625 C-12.49505429 17.32941258 -12.48538155 15.68227146 -12.47265625 14.03515625 C-12.47761612 13.26731812 -12.48257599 12.49947998 -12.48768616 11.70837402 C-12.41121613 8.2111288 -11.97550171 5.76307664 -10.36499023 2.64282227 C-7.02267845 -0.09481351 -4.13997285 -0.07494464 0 0 Z M1.09375 13.62890625 C1.09375 20.55890625 1.09375 27.48890625 1.09375 34.62890625 C6.70375 34.62890625 12.31375 34.62890625 18.09375 34.62890625 C18.09375 27.69890625 18.09375 20.76890625 18.09375 13.62890625 C12.48375 13.62890625 6.87375 13.62890625 1.09375 13.62890625 Z " fill="#000000" transform="translate(385.90625,370.37109375)"/>
<path d="M0 0 C1.2148407 -0.00574036 1.2148407 -0.00574036 2.45422363 -0.01159668 C4.16562138 -0.01431724 5.87706059 -0.00694584 7.58837891 0.00976562 C10.20960087 0.03117527 12.82808214 0.00997108 15.44921875 -0.015625 C17.11198522 -0.01298175 18.77474999 -0.00785681 20.4375 0 C21.22193481 -0.00809692 22.00636963 -0.01619385 22.8145752 -0.02453613 C25.95927175 0.02971565 28.15268071 0.1056924 30.71142578 2.02929688 C32.18285634 5.68397946 32.14670179 9.21528853 32.1171875 13.09375 C32.12005768 13.92205322 32.12292786 14.75035645 32.12588501 15.60375977 C32.12792318 17.35205775 32.12241056 19.10037867 32.10986328 20.84863281 C32.09380554 23.52200393 32.10971971 26.1938633 32.12890625 28.8671875 C32.12692377 30.56771166 32.12308001 32.26823489 32.1171875 33.96875 C32.12629654 35.16576538 32.12629654 35.16576538 32.1355896 36.38696289 C32.09619544 39.50124092 31.87990889 42.13096974 30.71142578 45.03320312 C27.56010035 47.40229561 24.22327827 47.10157674 20.4375 47.0625 C19.6276062 47.0663269 18.8177124 47.07015381 17.98327637 47.07409668 C16.27187862 47.07681724 14.56043941 47.06944584 12.84912109 47.05273438 C10.22789913 47.03132473 7.60941786 47.05252892 4.98828125 47.078125 C3.32551478 47.07548175 1.66275001 47.07035681 0 47.0625 C-0.78443481 47.07059692 -1.56886963 47.07869385 -2.3770752 47.08703613 C-5.52177175 47.03278435 -7.71518071 46.9568076 -10.27392578 45.03320312 C-11.74535634 41.37852054 -11.70920179 37.84721147 -11.6796875 33.96875 C-11.68399277 32.72629517 -11.68399277 32.72629517 -11.68838501 31.45874023 C-11.69042318 29.71044225 -11.68491056 27.96212133 -11.67236328 26.21386719 C-11.65630554 23.54049607 -11.67221971 20.8686367 -11.69140625 18.1953125 C-11.68942377 16.49478834 -11.68558001 14.79426511 -11.6796875 13.09375 C-11.68576019 12.29573975 -11.69183289 11.49772949 -11.6980896 10.67553711 C-11.65869544 7.56125908 -11.44240889 4.93153026 -10.27392578 2.02929688 C-7.12260035 -0.33979561 -3.78577827 -0.03907674 0 0 Z M1.71875 13.53125 C1.71875 20.13125 1.71875 26.73125 1.71875 33.53125 C7.32875 33.53125 12.93875 33.53125 18.71875 33.53125 C18.71875 26.93125 18.71875 20.33125 18.71875 13.53125 C13.10875 13.53125 7.49875 13.53125 1.71875 13.53125 Z " fill="#000000" transform="translate(442.28125,428.46875)"/>
<path d="M0 0 C1.2148407 -0.00574036 1.2148407 -0.00574036 2.45422363 -0.01159668 C4.16562138 -0.01431724 5.87706059 -0.00694584 7.58837891 0.00976562 C10.20960087 0.03117527 12.82808214 0.00997108 15.44921875 -0.015625 C17.11198522 -0.01298175 18.77474999 -0.00785681 20.4375 0 C21.22193481 -0.00809692 22.00636963 -0.01619385 22.8145752 -0.02453613 C25.95927175 0.02971565 28.15268071 0.1056924 30.71142578 2.02929688 C32.18285634 5.68397946 32.14670179 9.21528853 32.1171875 13.09375 C32.12005768 13.92205322 32.12292786 14.75035645 32.12588501 15.60375977 C32.12792318 17.35205775 32.12241056 19.10037867 32.10986328 20.84863281 C32.09380554 23.52200393 32.10971971 26.1938633 32.12890625 28.8671875 C32.12692377 30.56771166 32.12308001 32.26823489 32.1171875 33.96875 C32.12629654 35.16576538 32.12629654 35.16576538 32.1355896 36.38696289 C32.09619544 39.50124092 31.87990889 42.13096974 30.71142578 45.03320312 C27.56010035 47.40229561 24.22327827 47.10157674 20.4375 47.0625 C19.6276062 47.0663269 18.8177124 47.07015381 17.98327637 47.07409668 C16.27187862 47.07681724 14.56043941 47.06944584 12.84912109 47.05273438 C10.22789913 47.03132473 7.60941786 47.05252892 4.98828125 47.078125 C3.32551478 47.07548175 1.66275001 47.07035681 0 47.0625 C-0.78443481 47.07059692 -1.56886963 47.07869385 -2.3770752 47.08703613 C-5.52177175 47.03278435 -7.71518071 46.9568076 -10.27392578 45.03320312 C-11.74535634 41.37852054 -11.70920179 37.84721147 -11.6796875 33.96875 C-11.68399277 32.72629517 -11.68399277 32.72629517 -11.68838501 31.45874023 C-11.69042318 29.71044225 -11.68491056 27.96212133 -11.67236328 26.21386719 C-11.65630554 23.54049607 -11.67221971 20.8686367 -11.69140625 18.1953125 C-11.68942377 16.49478834 -11.68558001 14.79426511 -11.6796875 13.09375 C-11.68576019 12.29573975 -11.69183289 11.49772949 -11.6980896 10.67553711 C-11.65869544 7.56125908 -11.44240889 4.93153026 -10.27392578 2.02929688 C-7.12260035 -0.33979561 -3.78577827 -0.03907674 0 0 Z M1.71875 13.53125 C1.71875 20.13125 1.71875 26.73125 1.71875 33.53125 C7.32875 33.53125 12.93875 33.53125 18.71875 33.53125 C18.71875 26.93125 18.71875 20.33125 18.71875 13.53125 C13.10875 13.53125 7.49875 13.53125 1.71875 13.53125 Z " fill="#000000" transform="translate(385.28125,428.46875)"/>
<path d="M0 0 C1.2148407 -0.00574036 1.2148407 -0.00574036 2.45422363 -0.01159668 C4.16562138 -0.01431724 5.87706059 -0.00694584 7.58837891 0.00976562 C10.20960087 0.03117527 12.82808214 0.00997108 15.44921875 -0.015625 C17.11198522 -0.01298175 18.77474999 -0.00785681 20.4375 0 C21.22193481 -0.00809692 22.00636963 -0.01619385 22.8145752 -0.02453613 C25.95927175 0.02971565 28.15268071 0.1056924 30.71142578 2.02929688 C32.18285634 5.68397946 32.14670179 9.21528853 32.1171875 13.09375 C32.12005768 13.92205322 32.12292786 14.75035645 32.12588501 15.60375977 C32.12792318 17.35205775 32.12241056 19.10037867 32.10986328 20.84863281 C32.09380554 23.52200393 32.10971971 26.1938633 32.12890625 28.8671875 C32.12692377 30.56771166 32.12308001 32.26823489 32.1171875 33.96875 C32.12629654 35.16576538 32.12629654 35.16576538 32.1355896 36.38696289 C32.09619544 39.50124092 31.87990889 42.13096974 30.71142578 45.03320312 C27.56010035 47.40229561 24.22327827 47.10157674 20.4375 47.0625 C19.6276062 47.0663269 18.8177124 47.07015381 17.98327637 47.07409668 C16.27187862 47.07681724 14.56043941 47.06944584 12.84912109 47.05273438 C10.22789913 47.03132473 7.60941786 47.05252892 4.98828125 47.078125 C3.32551478 47.07548175 1.66275001 47.07035681 0 47.0625 C-0.78443481 47.07059692 -1.56886963 47.07869385 -2.3770752 47.08703613 C-5.52177175 47.03278435 -7.71518071 46.9568076 -10.27392578 45.03320312 C-11.74535634 41.37852054 -11.70920179 37.84721147 -11.6796875 33.96875 C-11.68399277 32.72629517 -11.68399277 32.72629517 -11.68838501 31.45874023 C-11.69042318 29.71044225 -11.68491056 27.96212133 -11.67236328 26.21386719 C-11.65630554 23.54049607 -11.67221971 20.8686367 -11.69140625 18.1953125 C-11.68942377 16.49478834 -11.68558001 14.79426511 -11.6796875 13.09375 C-11.68576019 12.29573975 -11.69183289 11.49772949 -11.6980896 10.67553711 C-11.65869544 7.56125908 -11.44240889 4.93153026 -10.27392578 2.02929688 C-7.12260035 -0.33979561 -3.78577827 -0.03907674 0 0 Z M1.71875 13.53125 C1.71875 20.13125 1.71875 26.73125 1.71875 33.53125 C7.32875 33.53125 12.93875 33.53125 18.71875 33.53125 C18.71875 26.93125 18.71875 20.33125 18.71875 13.53125 C13.10875 13.53125 7.49875 13.53125 1.71875 13.53125 Z " fill="#000000" transform="translate(329.28125,428.46875)"/>
<path d="M0 0 C1.2148407 -0.00574036 1.2148407 -0.00574036 2.45422363 -0.01159668 C4.16562138 -0.01431724 5.87706059 -0.00694584 7.58837891 0.00976562 C10.20960087 0.03117527 12.82808214 0.00997108 15.44921875 -0.015625 C17.11198522 -0.01298175 18.77474999 -0.00785681 20.4375 0 C21.22193481 -0.00809692 22.00636963 -0.01619385 22.8145752 -0.02453613 C25.95927175 0.02971565 28.15268071 0.1056924 30.71142578 2.02929688 C32.18285634 5.68397946 32.14670179 9.21528853 32.1171875 13.09375 C32.12005768 13.92205322 32.12292786 14.75035645 32.12588501 15.60375977 C32.12792318 17.35205775 32.12241056 19.10037867 32.10986328 20.84863281 C32.09380554 23.52200393 32.10971971 26.1938633 32.12890625 28.8671875 C32.12692377 30.56771166 32.12308001 32.26823489 32.1171875 33.96875 C32.12629654 35.16576538 32.12629654 35.16576538 32.1355896 36.38696289 C32.09619544 39.50124092 31.87990889 42.13096974 30.71142578 45.03320312 C27.56010035 47.40229561 24.22327827 47.10157674 20.4375 47.0625 C19.6276062 47.0663269 18.8177124 47.07015381 17.98327637 47.07409668 C16.27187862 47.07681724 14.56043941 47.06944584 12.84912109 47.05273438 C10.22789913 47.03132473 7.60941786 47.05252892 4.98828125 47.078125 C3.32551478 47.07548175 1.66275001 47.07035681 0 47.0625 C-0.78443481 47.07059692 -1.56886963 47.07869385 -2.3770752 47.08703613 C-5.52177175 47.03278435 -7.71518071 46.9568076 -10.27392578 45.03320312 C-11.74535634 41.37852054 -11.70920179 37.84721147 -11.6796875 33.96875 C-11.68399277 32.72629517 -11.68399277 32.72629517 -11.68838501 31.45874023 C-11.69042318 29.71044225 -11.68491056 27.96212133 -11.67236328 26.21386719 C-11.65630554 23.54049607 -11.67221971 20.8686367 -11.69140625 18.1953125 C-11.68942377 16.49478834 -11.68558001 14.79426511 -11.6796875 13.09375 C-11.68576019 12.29573975 -11.69183289 11.49772949 -11.6980896 10.67553711 C-11.65869544 7.56125908 -11.44240889 4.93153026 -10.27392578 2.02929688 C-7.12260035 -0.33979561 -3.78577827 -0.03907674 0 0 Z M1.71875 13.53125 C1.71875 20.13125 1.71875 26.73125 1.71875 33.53125 C7.32875 33.53125 12.93875 33.53125 18.71875 33.53125 C18.71875 26.93125 18.71875 20.33125 18.71875 13.53125 C13.10875 13.53125 7.49875 13.53125 1.71875 13.53125 Z " fill="#000000" transform="translate(273.28125,428.46875)"/>
<path d="M0 0 C5.97808114 4.22977439 10.22358859 9.34688847 12.0703125 16.46484375 C13.11864445 25.16048142 12.23293467 32.26846134 7.0703125 39.46484375 C2.2897591 44.94159425 -3.3782877 47.98574903 -10.6015625 48.74609375 C-19.41858753 49.03837082 -25.85505215 47.14293373 -32.390625 41.14453125 C-38.00827142 35.01359734 -39.31766267 28.48587794 -39.19921875 20.41015625 C-38.56925058 13.52615627 -36.20091462 8.23596091 -31.1171875 3.52734375 C-22.10433016 -3.47165169 -10.44538499 -5.41541178 0 0 Z M-24.9296875 16.46484375 C-26.13612316 20.08415073 -26.25237309 22.6571538 -25.9296875 26.46484375 C-23.67634546 30.80461361 -21.47601821 33.56172857 -16.9296875 35.46484375 C-12.66924263 36.00708219 -10.50872744 35.7654991 -6.6796875 33.77734375 C-2.49594477 30.25919645 -1.15712246 28.03161792 -0.3671875 22.58984375 C-0.50844969 18.21071573 -2.49776837 15.91318311 -5.421875 12.8125 C-8.54047813 10.02514746 -11.4989754 10.01688681 -15.53515625 10.04296875 C-19.64378952 10.76683889 -22.33954546 13.296545 -24.9296875 16.46484375 Z " fill="#000000" transform="translate(86.9296875,415.53515625)"/>
<path d="M0 0 C0.8098938 -0.00524185 1.6197876 -0.0104837 2.45422363 -0.0158844 C4.16559706 -0.02230442 5.87701462 -0.02096782 7.58837891 -0.01245117 C10.20945589 -0.00393644 12.82835692 -0.03270747 15.44921875 -0.06445312 C17.11197851 -0.0660651 18.77474214 -0.06548767 20.4375 -0.0625 C21.22193481 -0.07373398 22.00636963 -0.08496796 22.8145752 -0.09654236 C25.97018549 -0.05603843 28.15106089 0.0040231 30.71362305 1.94311523 C32.16205464 5.53200295 32.12722064 8.9690818 32.08203125 12.77734375 C32.08277901 13.98650452 32.08277901 13.98650452 32.08354187 15.22009277 C32.08120546 16.92133046 32.07150241 18.62257188 32.05493164 20.32373047 C32.0313328 22.92446882 32.03437461 25.52418171 32.04101562 28.125 C32.03543864 29.77995401 32.02832862 31.43490372 32.01953125 33.08984375 C32.02089836 34.25404846 32.02089836 34.25404846 32.02229309 35.44177246 C31.93177632 42.35069326 31.93177632 42.35069326 29.71875 45.43359375 C26.63955245 46.97319252 23.38911352 46.63824493 20.0078125 46.671875 C19.24326752 46.67994675 18.47872253 46.68801849 17.69100952 46.69633484 C16.07202419 46.71017188 14.45300974 46.72089574 12.83398438 46.72875977 C10.36011434 46.74597984 7.88757854 46.78986726 5.4140625 46.83398438 C3.84115566 46.8441109 2.26823746 46.85262713 0.6953125 46.859375 C-0.04335052 46.87688309 -0.78201355 46.89439117 -1.5430603 46.91242981 C-4.77578686 46.89880159 -6.95464836 46.62890198 -9.7487793 44.95800781 C-12.01839852 41.21930099 -11.83599976 37.91443034 -11.77734375 33.6171875 C-11.77879898 32.76431656 -11.78025421 31.91144562 -11.78175354 31.0327301 C-11.78009617 29.23312965 -11.76855299 27.43351479 -11.74780273 25.6340332 C-11.71881375 22.87715627 -11.72720315 20.12219858 -11.74023438 17.36523438 C-11.73399779 15.61587606 -11.72560746 13.86652382 -11.71484375 12.1171875 C-11.71777939 11.29214218 -11.72071503 10.46709686 -11.72373962 9.61705017 C-11.62919008 3.89471985 -11.62919008 3.89471985 -9.98658752 1.71777344 C-7.05713924 -0.4882051 -3.52712714 -0.01319978 0 0 Z M1.71875 12.43359375 C1.71875 19.36359375 1.71875 26.29359375 1.71875 33.43359375 C7.32875 33.43359375 12.93875 33.43359375 18.71875 33.43359375 C18.71875 26.50359375 18.71875 19.57359375 18.71875 12.43359375 C13.10875 12.43359375 7.49875 12.43359375 1.71875 12.43359375 Z " fill="#000000" transform="translate(442.28125,313.56640625)"/>
<path d="M0 0 C0.78769775 -0.00428513 1.57539551 -0.00857025 2.38696289 -0.01298523 C4.05125976 -0.01872454 5.71558171 -0.01923172 7.37988281 -0.01489258 C9.92816834 -0.01173033 12.47529533 -0.03520324 15.0234375 -0.06054688 C16.64062353 -0.06281967 18.25781269 -0.06352346 19.875 -0.0625 C20.63756104 -0.07170975 21.40012207 -0.08091949 22.18579102 -0.09040833 C27.47775065 -0.04403695 27.47775065 -0.04403695 29.63809204 1.57624817 C31.95354893 4.64924921 31.36238907 8.53558757 31.3359375 12.23828125 C31.33880768 13.11476318 31.34167786 13.99124512 31.34463501 14.89428711 C31.34667598 16.74691413 31.34114378 18.59956267 31.32861328 20.45214844 C31.31255984 23.29020304 31.32846055 26.12683352 31.34765625 28.96484375 C31.34567382 30.76432606 31.34183016 32.56380749 31.3359375 34.36328125 C31.34504654 35.63836548 31.34504654 35.63836548 31.3543396 36.93920898 C31.28377341 42.84121816 31.28377341 42.84121816 29.63809204 45.02531433 C26.7524024 47.1896204 23.34056229 46.70591745 19.875 46.6640625 C18.69345337 46.66481026 18.69345337 46.66481026 17.48803711 46.66557312 C15.82370479 46.66323407 14.15936884 46.65351541 12.49511719 46.63696289 C9.94694401 46.61336869 7.39981716 46.61640311 4.8515625 46.62304688 C3.23436876 46.61747 1.61717943 46.61036006 0 46.6015625 C-1.14384155 46.60292961 -1.14384155 46.60292961 -2.31079102 46.60432434 C-6.09059414 46.55363886 -7.84080539 46.44857766 -11.0625 44.30078125 C-11.44345093 42.47924805 -11.44345093 42.47924805 -11.45068359 40.25 C-11.46014008 39.41573486 -11.46959656 38.58146973 -11.4793396 37.72192383 C-11.47326691 36.81982178 -11.46719421 35.91771973 -11.4609375 34.98828125 C-11.46380768 34.06362061 -11.46667786 33.13895996 -11.46963501 32.1862793 C-11.47167849 30.22932321 -11.46612882 28.27234682 -11.45361328 26.31542969 C-11.43756364 23.31268832 -11.45345237 20.31129304 -11.47265625 17.30859375 C-11.47067387 15.41015327 -11.4668303 13.51171362 -11.4609375 11.61328125 C-11.46701019 10.7111792 -11.47308289 9.80907715 -11.4793396 8.87963867 C-11.46988312 8.04537354 -11.46042664 7.2111084 -11.45068359 6.3515625 C-11.44829681 5.61591064 -11.44591003 4.88025879 -11.44345093 4.12231445 C-10.3535881 -1.0889114 -4.14556834 -0.00495475 0 0 Z M0.9375 13.30078125 C0.9375 19.90078125 0.9375 26.50078125 0.9375 33.30078125 C6.5475 33.30078125 12.1575 33.30078125 17.9375 33.30078125 C17.9375 26.70078125 17.9375 20.10078125 17.9375 13.30078125 C12.3275 13.30078125 6.7175 13.30078125 0.9375 13.30078125 Z " fill="#000000" transform="translate(217.0625,428.69921875)"/>
<path d="M0 0 C1.69384766 0.99438477 1.69384766 0.99438477 3 3 C3.29843503 5.89481975 3.42032551 8.56994596 3.3984375 11.46484375 C3.40130768 12.29456192 3.40417786 13.12428009 3.40713501 13.97914124 C3.40917583 15.73341555 3.40364465 17.48771261 3.39111328 19.24194336 C3.37507959 21.92418496 3.39095023 24.60491511 3.41015625 27.28710938 C3.40817342 28.99219082 3.40432893 30.69727133 3.3984375 32.40234375 C3.40754654 33.60406471 3.40754654 33.60406471 3.4168396 34.83006287 C3.37750604 37.95297615 3.16357781 40.59335491 1.99267578 43.50415039 C-1.15933475 45.87028228 -4.49637381 45.57031743 -8.28125 45.53125 C-9.0911438 45.5350769 -9.9010376 45.53890381 -10.73547363 45.54284668 C-12.44687138 45.54556724 -14.15831059 45.53819584 -15.86962891 45.52148438 C-18.49085087 45.50007473 -21.10933214 45.52127892 -23.73046875 45.546875 C-25.39323522 45.54423175 -27.05599999 45.53910681 -28.71875 45.53125 C-29.50318481 45.53934692 -30.28761963 45.54744385 -31.0958252 45.55578613 C-36.49217029 45.46268929 -36.49217029 45.46268929 -39.02148438 43.15820312 C-40.43484702 40.04090627 -40.02830008 38.22200691 -39 35 C-36.74327139 32.7794077 -35.4153187 32.05145378 -32.25097656 31.65942383 C-30.71135254 31.6829895 -30.71135254 31.6829895 -29.140625 31.70703125 C-28.02558594 31.71669922 -26.91054688 31.72636719 -25.76171875 31.73632812 C-24.02341797 31.7740332 -24.02341797 31.7740332 -22.25 31.8125 C-20.48849609 31.83280273 -20.48849609 31.83280273 -18.69140625 31.85351562 C-15.79380702 31.8888522 -12.89713573 31.93819021 -10 32 C-10.01571045 31.13721436 -10.0314209 30.27442871 -10.04760742 29.38549805 C-10.09875955 26.18190733 -10.1363616 22.97852485 -10.16479492 19.7746582 C-10.17987397 18.38852081 -10.2003405 17.00243106 -10.22631836 15.61645508 C-10.26273716 13.62341854 -10.27813018 11.63003277 -10.29296875 9.63671875 C-10.3086792 8.43748779 -10.32438965 7.23825684 -10.34057617 6.00268555 C-10 3 -10 3 -8.70043945 1.10864258 C-5.83206149 -0.76146572 -3.30698485 -0.35431981 0 0 Z " fill="#000000" transform="translate(414,314)"/>
</svg>
