<?xml version="1.0" encoding="UTF-8"?>
<svg id="Layer_2" data-name="Layer 2" xmlns="http://www.w3.org/2000/svg" viewBox="0 0 279.91 279.91">
  <defs>
    <style>
      .cls-1 {
        fill: #fff;
      }

      .cls-1, .cls-2 {
        stroke-width: 0px;
      }

      .cls-2 {
        fill: #2561b9;
      }
    </style>
  </defs>
  <g id="Layer_1-2" data-name="Layer 1">
    <g>
      <path class="cls-2" d="M139.96,279.91C62.78,279.91,0,217.13,0,139.96S62.78,0,139.96,0s139.96,62.78,139.96,139.96-62.78,139.96-139.96,139.96ZM139.96,8.28C67.35,8.28,8.28,67.35,8.28,139.96s59.07,131.68,131.68,131.68,131.68-59.07,131.68-131.68S212.57,8.28,139.96,8.28Z"/>
      <path class="cls-2" d="M140.33,98.95c-40.23,0-78.55-17.34-105.14-47.57l6.22-5.47c25.02,28.45,61.07,44.76,98.92,44.76s73.06-15.95,98.02-43.75l6.16,5.53c-26.53,29.55-64.5,46.5-104.18,46.5Z"/>
      <path class="cls-2" d="M41.95,233.4l-6.18-5.5c26.55-29.83,64.67-46.93,104.57-46.93s77.66,16.95,104.18,46.5l-6.16,5.53c-24.96-27.8-60.69-43.75-98.02-43.75s-73.4,16.09-98.39,44.16Z"/>
      <path class="cls-2" d="M137.45,279.07c-.75-.57-18.46-14.16-36.73-38.09-16.92-22.15-37.39-57.64-38.83-100.89-1.14-34.36,11.6-69.37,36.84-101.22C117.71,14.93,136.77,1.33,137.57.76l4.78,6.76c-.19.13-19.03,13.61-37.27,36.68-16.67,21.09-36.26,54.8-34.9,95.62,1.36,40.98,20.86,74.79,36.98,95.95,17.6,23.1,35.14,36.58,35.31,36.72l-5.01,6.59Z"/>
      <path class="cls-2" d="M150.71,279.07l-5.01-6.59c.26-.2,17.75-13.67,35.31-36.71,16.12-21.15,35.62-54.97,36.98-95.95,1.36-40.82-18.23-74.53-34.9-95.62-18.24-23.07-37.09-36.55-37.27-36.68l4.78-6.76c.8.57,19.86,14.17,38.83,38.11,25.24,31.86,37.98,66.86,36.84,101.22-1.44,43.25-21.91,78.74-38.82,100.89-18.27,23.92-35.98,37.52-36.73,38.09ZM148.2,275.78l-2.51-3.29h0s2.51,3.29,2.51,3.29Z"/>
      <rect class="cls-2" x="4.14" y="135.82" width="271.64" height="8.28"/>
      <rect class="cls-2" x="31.23" y="105.21" width="216.71" height="70.59" rx="16.67" ry="16.67"/>
      <g>
        <path class="cls-1" d="M87.88,123.74l7.32,24.85,7.57-24.85h7.14l-10.74,31.77h-7.45l-3.6-10.51-2.98-11.02-3.04,11.02-3.6,10.51h-7.45l-10.8-31.77h7.2l7.57,24.85,7.32-24.85h5.52Z"/>
        <path class="cls-1" d="M140.51,123.74l7.32,24.85,7.57-24.85h7.14l-10.74,31.77h-7.45l-3.6-10.51-2.98-11.02-3.04,11.02-3.6,10.51h-7.45l-10.8-31.77h7.2l7.57,24.85,7.32-24.85h5.52Z"/>
        <path class="cls-1" d="M193.14,123.74l7.32,24.85,7.57-24.85h7.14l-10.74,31.77h-7.45l-3.6-10.51-2.98-11.02-3.04,11.02-3.6,10.51h-7.45l-10.8-31.77h7.2l7.57,24.85,7.32-24.85h5.52Z"/>
        <path class="cls-1" d="M220.38,148.27c1.32-.68,2.64-.68,3.94,0,1.3.68,1.95,1.88,1.95,3.59s-.65,2.91-1.95,3.62c-1.3.7-2.62.7-3.94,0-1.32-.7-1.99-1.91-1.99-3.62s.66-2.9,1.99-3.59Z"/>
      </g>
    </g>
  </g>
</svg>